<?xml version="1.0" encoding="UTF-8" standalone="no"?>
<!-- Created with Inkscape (http://www.inkscape.org/) -->

<svg
   width="13.546667mm"
   height="13.546667mm"
   viewBox="0 0 13.546667 13.546667"
   version="1.1"
   id="svg628"
   xml:space="preserve"
   inkscape:version="1.2.2 (732a01da63, 2022-12-09)"
   sodipodi:docname="enblem_web.svg"
   xmlns:inkscape="http://www.inkscape.org/namespaces/inkscape"
   xmlns:sodipodi="http://sodipodi.sourceforge.net/DTD/sodipodi-0.dtd"
   xmlns:xlink="http://www.w3.org/1999/xlink"
   xmlns="http://www.w3.org/2000/svg"
   xmlns:svg="http://www.w3.org/2000/svg"><sodipodi:namedview
     id="namedview630"
     pagecolor="#ffffff"
     bordercolor="#000000"
     borderopacity="0.25"
     inkscape:showpageshadow="2"
     inkscape:pageopacity="0.0"
     inkscape:pagecheckerboard="0"
     inkscape:deskcolor="#d1d1d1"
     inkscape:document-units="mm"
     showgrid="false"
     inkscape:zoom="10.226191"
     inkscape:cx="-8.0186257"
     inkscape:cy="18.970895"
     inkscape:window-width="1920"
     inkscape:window-height="1009"
     inkscape:window-x="-8"
     inkscape:window-y="-8"
     inkscape:window-maximized="1"
     inkscape:current-layer="layer1" /><defs
     id="defs625"><linearGradient
       inkscape:collect="always"
       id="linearGradient12980"><stop
         style="stop-color:#b1c633;stop-opacity:1;"
         offset="0"
         id="stop12976" /><stop
         style="stop-color:#6b771c;stop-opacity:1;"
         offset="1"
         id="stop12978" /></linearGradient><linearGradient
       inkscape:collect="always"
       id="linearGradient12134"><stop
         style="stop-color:#b1c633;stop-opacity:1;"
         offset="0"
         id="stop12130" /><stop
         style="stop-color:#9daf2d;stop-opacity:1;"
         offset="1"
         id="stop12132" /></linearGradient><linearGradient
       inkscape:collect="always"
       id="linearGradient7133"><stop
         style="stop-color:#b8ccea;stop-opacity:1;"
         offset="0"
         id="stop7129" /><stop
         style="stop-color:#3465a4;stop-opacity:0.97872335;"
         offset="1"
         id="stop7131" /></linearGradient><radialGradient
       inkscape:collect="always"
       xlink:href="#linearGradient7133"
       id="radialGradient7135"
       cx="45.890366"
       cy="134.26308"
       fx="45.890366"
       fy="134.26308"
       r="5.7350626"
       gradientUnits="userSpaceOnUse"
       gradientTransform="matrix(-0.37223661,-1.2088029,1.2060312,-0.37137808,-99.735923,238.25486)" /><radialGradient
       inkscape:collect="always"
       xlink:href="#linearGradient12980"
       id="radialGradient12136"
       cx="52.949299"
       cy="130.99367"
       fx="52.949299"
       fy="130.99367"
       r="5.7278869"
       gradientTransform="matrix(-0.05726136,-0.82901821,0.91372303,-0.06311549,-63.710482,183.33557)"
       gradientUnits="userSpaceOnUse" /><radialGradient
       inkscape:collect="always"
       xlink:href="#linearGradient12134"
       id="radialGradient12138"
       gradientUnits="userSpaceOnUse"
       gradientTransform="matrix(-0.05726136,-0.82901821,0.91372303,-0.06311549,-63.710482,183.33557)"
       cx="52.949299"
       cy="130.99367"
       fx="52.949299"
       fy="130.99367"
       r="5.7278869" /><radialGradient
       inkscape:collect="always"
       xlink:href="#linearGradient12134"
       id="radialGradient12140"
       gradientUnits="userSpaceOnUse"
       gradientTransform="matrix(-0.05726136,-0.82901821,0.91372303,-0.06311549,-63.710482,183.33557)"
       cx="52.949299"
       cy="130.99367"
       fx="52.949299"
       fy="130.99367"
       r="5.7278869" /><radialGradient
       inkscape:collect="always"
       xlink:href="#linearGradient12134"
       id="radialGradient12142"
       gradientUnits="userSpaceOnUse"
       gradientTransform="matrix(-0.05726136,-0.82901821,0.91372303,-0.06311549,-63.710482,183.33557)"
       cx="52.949299"
       cy="130.99367"
       fx="52.949299"
       fy="130.99367"
       r="5.7278869" /><radialGradient
       inkscape:collect="always"
       xlink:href="#linearGradient12134"
       id="radialGradient12144"
       gradientUnits="userSpaceOnUse"
       gradientTransform="matrix(-0.05726136,-0.82901821,0.91372303,-0.06311549,-63.710482,183.33557)"
       cx="52.949299"
       cy="130.99367"
       fx="52.949299"
       fy="130.99367"
       r="5.7278869" /><radialGradient
       inkscape:collect="always"
       xlink:href="#linearGradient12134"
       id="radialGradient12146"
       gradientUnits="userSpaceOnUse"
       gradientTransform="matrix(-0.05726136,-0.82901821,0.91372303,-0.06311549,-63.710482,183.33557)"
       cx="52.949299"
       cy="130.99367"
       fx="52.949299"
       fy="130.99367"
       r="5.7278869" /><radialGradient
       inkscape:collect="always"
       xlink:href="#linearGradient12134"
       id="radialGradient12148"
       gradientUnits="userSpaceOnUse"
       gradientTransform="matrix(-0.05726136,-0.82901821,0.91372303,-0.06311549,-63.710482,183.33557)"
       cx="52.949299"
       cy="130.99367"
       fx="52.949299"
       fy="130.99367"
       r="5.7278869" /><radialGradient
       inkscape:collect="always"
       xlink:href="#linearGradient12134"
       id="radialGradient12150"
       gradientUnits="userSpaceOnUse"
       gradientTransform="matrix(-0.05726136,-0.82901821,0.91372303,-0.06311549,-63.710482,183.33557)"
       cx="52.949299"
       cy="130.99367"
       fx="52.949299"
       fy="130.99367"
       r="5.7278869" /><radialGradient
       inkscape:collect="always"
       xlink:href="#linearGradient12134"
       id="radialGradient12152"
       gradientUnits="userSpaceOnUse"
       gradientTransform="matrix(-0.05726136,-0.82901821,0.91372303,-0.06311549,-63.710482,183.33557)"
       cx="52.949299"
       cy="130.99367"
       fx="52.949299"
       fy="130.99367"
       r="5.7278869" /></defs><g
     inkscape:label="Layer 1"
     inkscape:groupmode="layer"
     id="layer1"
     transform="translate(-31.560804,-120.41002)"><g
       id="g7694"
       transform="translate(-8.1358106,-7.9339255)"><ellipse
         style="fill:#214c89;fill-opacity:0.847059;stroke-width:3.02171"
         id="path761-5-2"
         cx="46.469948"
         cy="135.11728"
         rx="6.1214752"
         ry="6.0839787" /><ellipse
         style="fill:#b1c6e1;fill-opacity:1;stroke-width:2.93655"
         id="path761-5"
         cx="46.469948"
         cy="135.11728"
         rx="5.9489555"
         ry="5.9125156" /><circle
         style="fill:url(#radialGradient7135);fill-opacity:1;stroke-width:2.83968"
         id="path761"
         cx="46.469948"
         cy="135.11728"
         r="5.7350626" /></g><g
       id="g11085"
       style="fill:url(#radialGradient12136);fill-opacity:1"
       transform="matrix(1.0005372,0,0,1.0165709,-13.115418,-8.5372986)"><path
         style="fill:url(#radialGradient12138);fill-opacity:1;stroke-width:3.19794"
         d="m 47.972686,133.80995 c 0.01359,0.0183 0.02714,0.0368 0.04074,0.0553 0.01359,0.008 0.03095,0.0144 0.04074,0.0272 0.0054,0.006 -0.0042,0.0191 0,0.0271 0.01398,0.028 0.144043,0.11419 0.176543,0.1358 0.0073,0.004 0.01907,-0.004 0.02715,0 0.04608,0.023 0.09722,0.001 0.12222,0.0133 0.02339,0.0116 0.06193,0.0446 0.0815,0.0543 0.04334,0.0217 0.116571,-0.0156 0.162962,0 0.01408,0.004 0.02724,0.0205 0.04074,0.0271 0.0042,0.002 0.01104,-0.003 0.01359,0 0.0104,0.0156 3.96e-4,0.0411 0.01359,0.0543 0.0035,0.003 0.0097,-0.002 0.01359,0 0.02472,0.0122 0.03402,0.0453 0.0679,0.0679 0.01916,-0.008 0.0119,0.0256 0.01359,0.0272 0.0132,0.0131 0.03939,0.002 0.05431,0.0135 0.03309,0.0249 -0.0043,0.0253 0.02714,0.0407 0.0042,0.002 0.0097,-0.002 0.01359,0 0.03002,0.0152 0.0044,0.007 0.01359,0.0271 0.01126,0.0224 0.03892,0.0255 0.05429,0.0408 0.0063,0.006 -0.0063,0.0209 0,0.0271 0.01539,0.0155 0.04308,0.0181 0.05432,0.0408 0.0042,0.007 -0.0063,0.0209 0,0.0272 0.01155,0.0114 0.0292,0.0157 0.04074,0.0271 0.0036,0.003 0.0103,0.0238 0.01359,0.0272 0.01061,0.009 0.04057,0.008 0.05432,0.0135 0.02754,0.007 0.05586,0.0144 0.0815,0.0271 0.0057,0.002 0.0071,0.0119 0.01359,0.0136 0.02456,0.005 0.05882,0.002 0.0815,0.0135 0.02537,0.0125 0.06268,0.0826 0.06791,0.10865 0.0037,0.0169 -10e-4,0.0669 0.01359,0.0814 0.0069,0.006 0.02,0.006 0.02715,0.0137 0.0069,0.006 0.0072,0.0189 0.01359,0.0272 0.03352,0.0447 0.07814,0.0927 0.12222,0.12223 0.08178,0.0547 0.152609,0.0212 0.230861,0.0408 0.0061,10e-4 0.0075,0.009 0.01359,0.0137 0.01933,0.008 0.0609,0 0.0815,0 0.01816,0 0.07597,-0.008 0.09506,0 0.0065,0.003 0.05282,0.0249 0.0543,0.0271 0.0077,0.0118 0.007,0.0278 0.01359,0.0407 0.0125,0.0251 0.02823,0.002 0.04074,0.0271 0.0042,0.007 -0.0042,0.0191 0,0.0271 0.0013,0.003 0.09362,0.0785 0.09506,0.0814 0.01671,0.0334 0.0039,0.0518 0.01359,0.0814 0.01115,0.0336 0.04434,0.0516 0.0543,0.0815 0.0072,0.0224 -0.0056,0.0592 0,0.0814 0.0013,0.005 0.0101,0.007 0.01359,0.0136 0.03495,0.0523 0.05348,0.11291 0.04074,0.17654 -0.0073,0.038 -0.04661,0.0642 -0.05431,0.0952 -0.0036,0.0132 0.0036,0.0275 0,0.0408 -0.0062,0.0253 -0.04297,0.0452 -0.0543,0.0679 -0.01673,0.0334 0.03942,-0.0121 -0.01359,0.0408 -0.0063,0.006 -0.02076,-0.006 -0.02714,0 -0.01868,0.0186 -0.0249,0.0467 -0.04074,0.0678 -0.01061,0.0142 -0.03292,0.0253 -0.04074,0.0408 -0.0018,0.004 0,0.008 0,0.0135 -0.0046,0.0134 -0.0056,0.0288 -0.01359,0.0407 -0.0022,0.003 -0.0104,-0.003 -0.01359,0 -0.0035,0.003 0.0018,0.008 0,0.0136 -0.0027,0.005 -0.01203,0.006 -0.01359,0.0136 -0.0045,0.0174 0.0078,0.0381 0,0.0544 -0.02831,0.0566 -0.01359,0.15014 -0.01359,0.21727 0,0.14938 0,0.29876 0,0.44813 0,0.0495 0.01402,0.17521 0,0.21731 -0.02586,0.0775 -0.07653,0.0395 -0.135802,0.0543 -0.02503,0.005 -0.0346,0.0172 -0.0543,0.0272 -0.0078,0.004 -0.02076,-0.006 -0.02715,0 -0.01319,0.013 -0.0035,0.0388 -0.01359,0.0543 -0.0022,0.003 -0.0104,-0.003 -0.01359,0 -0.02921,0.0292 -0.07073,0.22831 -0.108643,0.28518 -0.0069,0.009 -0.02143,0.0158 -0.02715,0.0272 -0.0063,0.0126 -0.0056,0.0287 -0.01359,0.0408 -0.0022,0.003 -0.0104,-0.003 -0.01359,0 -0.0035,0.003 0.0022,0.009 0,0.0135 -0.0069,0.009 -0.02006,0.0165 -0.02715,0.0271 -0.0104,0.0156 -0.0053,0.0376 -0.01359,0.0543 -0.01347,0.027 -0.04047,0.0538 -0.05431,0.0815 -0.0057,0.0114 -0.0057,0.0464 -0.01359,0.0544 -0.0035,0.003 -0.0104,-0.003 -0.01359,0 -0.0062,0.005 -0.03913,0.0599 -0.04074,0.0679 -0.0038,0.0176 0.0066,0.0376 0,0.0543 -0.006,0.0153 -0.03344,0.0123 -0.04074,0.0271 -0.0042,0.007 0.0042,0.0191 0,0.0272 -0.02272,0.0453 -0.08382,0.0577 -0.108642,0.0952 -0.0022,0.003 0.0035,0.009 0,0.0135 -0.04327,0.0434 -0.02938,0.004 -0.06789,0.0814 -0.0018,0.004 0,0.008 0,0.0134 -0.0093,0.008 -0.02006,0.0165 -0.02715,0.0271 -0.0022,0.003 0.0042,0.0115 0,0.0137 -0.0078,0.004 -0.01991,-0.005 -0.02715,0 -0.01812,0.0135 -0.02049,0.0443 -0.04074,0.0543 -0.01214,0.005 -0.02785,-0.004 -0.04074,0 -0.01609,0.005 -0.02546,0.033 -0.04074,0.0408 -0.04098,0.0206 -0.08465,0.0355 -0.122221,0.0544 -0.01756,0.008 -0.04884,-0.004 -0.06791,0 -0.04787,0.0118 -0.149057,0.0274 -0.190122,-0.0136 -0.0069,-0.006 -0.0052,-0.0215 -0.01359,-0.0271 -0.01359,-0.008 -0.02715,0.004 -0.04074,0 -0.03055,-0.009 -0.05662,-0.005 -0.0815,-0.0136 -0.006,-0.002 -0.0071,-0.0119 -0.01359,-0.0137 -0.01317,-0.003 -0.02744,0.002 -0.04074,0 -0.01,-0.002 -0.01734,-0.0114 -0.02715,-0.0134 -0.02697,-0.006 -0.07049,0.0121 -0.09506,0 -0.0091,-0.004 -0.05049,-0.0331 -0.05432,-0.0408 -0.0042,-0.007 0.0042,-0.0191 0,-0.0272 -0.0057,-0.0114 -0.02143,-0.0158 -0.02715,-0.0271 -0.04091,-0.0817 -0.02715,-0.19437 -0.02715,-0.28518 0,-0.0575 -0.01439,-0.24199 0,-0.28517 0.02453,-0.0735 0.04674,-0.26119 0.02715,-0.33951 -0.0033,-0.0117 -0.02421,-0.0424 -0.02715,-0.0543 -0.03574,-0.14299 0.0505,0.0738 -0.02715,-0.0814 -0.006,-0.012 0.0036,-0.0275 0,-0.0408 -0.0067,-0.0275 -0.04318,-0.18515 -0.0543,-0.20372 -0.03211,-0.0536 -0.0448,-0.0515 -0.05431,-0.10864 -0.0099,-0.0589 0.01787,-0.38061 0,-0.4074 -0.03533,-0.0529 -0.01311,-0.0135 -0.0543,-0.0272 -0.006,-0.002 -0.0075,-0.009 -0.01359,-0.0136 -0.0644,-0.0322 -0.146514,-0.0455 -0.21728,-0.0544 -0.04515,-0.005 -0.09046,-0.009 -0.135803,-0.0136 -0.0093,-7.5e-4 -0.01905,0.004 -0.02715,0 -0.01149,-0.005 -0.01572,-0.0215 -0.02715,-0.0272 -0.01448,-0.006 -0.03984,0.006 -0.05432,0 -0.0397,-0.02 -0.0104,-0.0426 -0.02715,-0.0679 -0.0056,-0.007 -0.02156,-0.004 -0.02715,-0.0137 -0.0101,-0.0152 0.0045,-0.0368 0,-0.0543 -0.0069,-0.0283 -0.03457,-0.0567 -0.04074,-0.0815 -0.01051,-0.0419 -0.0069,-0.16099 0,-0.20371 0.0065,-0.0399 0.04184,-0.0645 0.02715,-0.10864 -0.0072,-0.0223 -0.02163,-0.028 -0.04074,-0.0408 -0.01604,-0.009 -0.01901,-0.0326 -0.02715,-0.0408 -0.01104,-0.0114 -0.03426,-0.009 -0.05432,-0.0408 -0.0104,-0.0156 -0.0073,-0.0366 -0.01359,-0.0543 -0.006,-0.0181 -0.01848,-0.0371 -0.02715,-0.0544 -0.01455,-0.029 -0.0046,-0.1358 0,-0.16296 0.0099,-0.0587 0.08215,-0.12354 0.108641,-0.17654 0.0102,-0.0203 -0.0084,-0.0469 0,-0.0678 0.0048,-0.0118 0.02006,-0.0165 0.02715,-0.0271 0.0073,-0.0114 -0.0036,-0.0275 0,-0.0408 0.0021,-0.009 0.01191,-0.017 0.01359,-0.0271 0.01606,-0.0965 -0.01915,-0.20303 0,-0.29876 0.006,-0.0303 0.05671,-0.18301 0.05431,-0.19012 -0.01776,-0.0532 -0.09926,-0.0176 -0.135804,-0.0544 -0.02959,-0.0296 -0.05183,-0.079 -0.0815,-0.10862 -0.0035,-0.003 -0.0104,0.003 -0.01359,0 -0.0035,-0.003 0.0018,-0.008 0,-0.0136 -0.0103,-0.0207 -0.04712,-0.0327 -0.05431,-0.0544 -0.0044,-0.0126 0.006,-0.0286 0,-0.0407 -0.01577,-0.0317 -0.01359,-0.0563 -0.01359,-0.0952 0,-0.0301 0.03307,-0.005 0.0543,-0.0271 0.0093,-0.008 0.0165,-0.0203 0.02715,-0.0272 0.0073,-0.004 0.121253,-0.0142 0.149384,0 0.01149,0.005 0.0165,0.0203 0.02714,0.0272 0.02987,0.02 0.203235,-0.0131 0.230863,-0.0272 0.0163,-0.007 0.02444,-0.0326 0.04074,-0.0408 0.02568,-0.0128 0.04202,-0.0371 0.0679,-0.0544 0.004,-0.002 0.0104,0.003 0.01359,0 0.009,-0.008 -0.0044,-0.0415 0,-0.0543 0.01,-0.0294 0.01368,-0.0681 0.02715,-0.0952 0.03107,-0.0621 -0.0056,0.0576 0.02715,-0.0408 0.0025,-0.007 -0.0063,-0.0209 0,-0.0272 0.01609,-0.0161 0.01359,0.0442 0.01359,0.067"
         id="path8548-9" /><path
         style="fill:url(#radialGradient12140);fill-opacity:1;stroke-width:3.19794"
         d="m 47.836799,133.95987 c 0.284263,0.1847 0.715451,0.21482 1.005014,0.40786 0.01597,0.009 0.0229,0.0334 0.04074,0.0408 0.01733,0.006 0.03698,0.006 0.05432,0.0136 0.0092,0.003 0.100868,0.0795 0.108641,0.0952 0.0018,0.004 -0.0035,0.009 0,0.0134 0.0069,0.006 0.02001,0.006 0.02715,0.0137 0.0093,0.008 -0.0093,0.0453 0,0.0543 0.0035,0.003 0.0104,-0.003 0.01359,0 0.016,0.016 0.0336,0.0328 0.04074,0.0543 0.0025,0.007 -0.0054,0.0201 0,0.0271 0.02495,0.0333 0.05054,0.0332 0.0679,0.0679 0.0102,0.0204 0.03832,0.0246 0.05431,0.0407 0.0063,0.006 -0.0042,0.0191 0,0.0271 0.03571,0.0714 0.119967,0.0934 0.176542,0.1358 0.09768,0.0733 -0.02866,-0.0152 0.04074,0.0543 0.02191,0.0219 0.06518,0.0469 0.09506,0.0543 0.02501,0.005 0.05707,-0.007 0.0815,0 0.006,0.002 0.0071,0.0119 0.01359,0.0135 0.07804,0.0197 0.226873,-0.024 0.298764,0 0.006,0.002 0.0093,0.008 0.01359,0.0133 0.01359,0.004 0.02661,0.0114 0.04074,0.0136 0.0048,7.9e-4 0.07362,0.007 0.08148,0.0136 0.01072,0.006 0.01618,0.0206 0.02715,0.0271 0.03916,0.0234 0.08718,0.0194 0.122219,0.0543 0.0069,0.006 0.0063,0.0201 0.01359,0.0271 0.0035,0.003 0.0099,-0.002 0.01359,0 0.03227,0.0215 0.06631,0.0647 0.0815,0.0952 0.01093,0.0217 0.04666,0.0177 0.05433,0.0407 0.0057,0.0171 -0.0078,0.0382 0,0.0543 0.02163,0.0432 0.05446,0.0548 0.0679,0.10864 0.01339,0.0536 -0.03012,0.16591 -0.0679,0.20369 -0.0069,0.006 -0.02,0.006 -0.02715,0.0136 -0.0035,0.003 0,0.008 0,0.0134 -0.0093,0.0137 -0.01442,0.0307 -0.02715,0.0408 -0.01115,0.008 -0.02928,0.004 -0.04074,0.0134 -0.0082,0.0165 -0.0116,0.0304 -0.02715,0.0408 -0.01191,0.007 -0.02928,0.004 -0.04074,0.0137 -0.03123,0.0233 -0.05027,0.0445 -0.0815,0.0678 -0.04574,0.0343 -0.06484,0.0904 -0.09506,0.1358 -0.02712,0.0407 -0.01521,0.0592 -0.02715,0.0952 -0.0018,0.005 -0.01072,0.007 -0.01359,0.0135 -0.0079,0.0162 0.0045,0.0368 0,0.0543 -0.0013,0.005 -0.01203,0.006 -0.01359,0.0136 -0.01546,0.0618 0,0.22789 0,0.29876 0,0.0896 0.03606,0.19529 0.01359,0.2852 -0.0054,0.0216 -0.03166,0.0837 -0.04074,0.0952 -0.02204,0.0275 -0.02688,-6.2e-4 -0.04074,0.0271 -0.0063,0.0127 -0.005,0.0293 -0.01359,0.0408 -0.01977,0.0265 -0.03089,0.005 -0.05433,0.0135 -0.01762,0.005 -0.03824,0.03 -0.05431,0.0408 -0.02817,0.0188 -0.06852,0.008 -0.09506,0.0271 -0.01072,0.006 -0.01693,0.0195 -0.02715,0.0272 -0.01149,0.007 -0.03062,0.003 -0.04074,0.0135 -0.0057,0.005 -0.02166,0.0448 -0.04074,0.0543 -0.0042,0.002 -0.0104,-0.003 -0.01359,0 -0.0046,0.004 -0.0872,0.27515 -0.09506,0.29875 -0.0068,0.0212 -0.04527,0.0543 -0.05432,0.0815 -0.0044,0.0128 0.0036,0.0275 0,0.0407 -0.0015,0.006 -0.15863,0.23115 -0.17654,0.25801 -0.01635,0.0246 -0.01561,0.0583 -0.02715,0.0815 -0.0058,0.0117 -0.07558,0.11829 -0.0815,0.12222 -0.0073,0.004 -0.02076,-0.006 -0.02715,0 -0.0102,0.009 -0.005,0.0293 -0.01359,0.0408 -0.006,0.007 -0.01874,0.007 -0.02715,0.0136 -0.01072,0.006 -0.01572,0.0215 -0.02715,0.0271 -0.02106,0.009 -0.06379,0.004 -0.0815,0.0136 -0.01717,0.007 -0.02538,0.0291 -0.04074,0.0408 -0.0039,0.002 -0.0097,-0.002 -0.01359,0 -0.01846,0.008 -0.03585,0.0316 -0.05433,0.0408 -0.0501,0.0251 -0.15889,0.0543 -0.217282,0.0543 -0.05369,0 -0.111931,0.006 -0.162961,-0.0137 -0.02199,-0.008 -0.03296,-0.0437 -0.05431,-0.0543 -0.0042,-0.002 -0.0104,0.003 -0.01359,0 -0.0035,-0.003 0.004,-0.0114 0,-0.0136 -0.01192,-0.007 -0.02796,-0.006 -0.04074,-0.0135 -0.01717,-0.007 -0.02477,-0.0301 -0.04074,-0.0408 -0.004,-0.002 -0.01104,0.003 -0.01359,0 -0.0076,-0.0118 -0.0069,-0.0279 -0.01359,-0.0408 -0.03173,-0.0635 -0.06506,-0.10268 -0.0815,-0.17654 -0.0035,-0.0147 0.0019,-0.0507 0,-0.0678 -0.0102,-0.081 -0.0076,-0.16768 -0.02715,-0.24445 -0.01377,-0.0552 0.0095,-0.12057 0,-0.17655 -0.0039,-0.022 -0.02172,-0.0461 -0.02715,-0.0679 -0.0066,-0.0271 -0.0013,-0.0572 -0.01359,-0.0814 -0.02055,-0.0412 -0.05304,-0.0777 -0.06789,-0.12224 -0.0071,-0.0219 -7.92e-4,-0.0488 -0.01359,-0.0679 -0.0069,-0.009 -0.02143,-0.0158 -0.02715,-0.0272 -0.0046,-0.008 -8.8e-4,-0.21462 0,-0.21727 0.01496,-0.0449 0.102167,-0.13517 0.0679,-0.2037 -0.0217,-0.0435 -0.05666,-0.0915 -0.09507,-0.12223 -0.02263,-0.018 -0.05051,-0.0311 -0.06791,-0.0543 -0.02158,-0.0287 -0.04332,-0.0841 -0.0679,-0.10864 -0.0063,-0.006 -0.04786,-0.0208 -0.05431,-0.0271 -0.0022,-0.002 -0.01104,-0.0383 -0.01359,-0.0407 -0.0069,-0.006 -0.02,-0.006 -0.02715,-0.0136 -0.0402,-0.0402 -0.06754,-0.12204 -0.12222,-0.14939 -0.08689,-0.0435 -0.198663,-0.10108 -0.258024,-0.19012 -0.0051,-0.007 0.0042,-0.0191 0,-0.0272 -0.02065,-0.0414 -0.05245,-0.0758 -0.0679,-0.12224 -0.02091,-0.0627 -0.01359,-0.13743 -0.01359,-0.2037 0,-0.0328 0.0122,-0.15212 0,-0.17653 -0.0057,-0.0114 -0.02405,-0.0149 -0.02714,-0.0272 -0.0059,-0.0237 -0.01882,-0.15815 -0.01359,-0.17653 0.03079,-0.10781 0.0097,-0.0229 0.05434,-0.0679 0.01319,-0.013 0.0053,-0.0377 0.01359,-0.0543 0.04934,-0.0986 0.004,0.007 0.05431,-0.0679 0.02005,-0.0301 0.03062,-0.077 0.05432,-0.10864 0.0074,-0.009 0.02006,-0.0165 0.02715,-0.0271 0.0084,-0.0123 0,-0.18366 0,-0.20369 0,-0.0348 -0.0067,-0.0647 -0.02715,-0.0952 -0.0022,-0.003 -0.0104,0.003 -0.01359,0 -0.01481,-0.0149 -0.02019,-0.074 -0.02715,-0.0952 -0.0073,-0.0225 -0.06238,-0.10312 -0.0815,-0.12221 -0.01538,-0.0155 -0.04307,-0.018 -0.0543,-0.0408 -0.0069,-0.0144 -0.0062,-0.11699 0,-0.13579 0.0035,-0.008 0.02156,-0.004 0.02715,-0.0136 0.02449,-0.0367 0.03688,-0.0773 0.08149,-0.0952 0.05161,-0.0208 0.11078,-0.0277 0.162962,-0.0408 0.01317,-0.003 0.0286,0.005 0.04074,0 0.03143,-0.0158 0.08185,-0.0275 0.108642,-0.0544 0.0046,-0.004 0.02421,-0.057 0.04074,-0.0543 0.02399,0.003 0.04522,0.0176 0.06782,0.0268 z"
         id="path11002-8" /><path
         style="fill:url(#radialGradient12142);fill-opacity:1;stroke-width:3.19794"
         d="m 47.239271,134.1093 c -0.07693,-0.0542 -0.17678,-0.0854 -0.230775,-0.16256 -0.0222,-0.0317 0.03078,-0.0712 0.04074,-0.10865 0.0082,-0.031 0.0058,-0.064 0.01359,-0.0952 0.0043,-0.0165 0.02166,-0.0378 0.02715,-0.0543 0.0082,-0.0249 0.0037,-0.0508 0.01359,-0.0814 0.01221,-0.0366 -0.01223,-0.0855 0,-0.12224 0.0073,-0.0226 0.03207,-0.0873 0,-0.10863 -0.0073,-0.004 -0.01905,0.004 -0.02715,0 -0.05063,-0.0254 -0.08574,-0.0972 -0.1358,-0.12223 -0.0099,-0.004 -0.09505,-0.009 -0.108643,-0.0136 -0.01241,-0.003 -0.01501,-0.023 -0.02715,-0.0271 -0.03629,-0.0119 -0.08482,-0.004 -0.122221,-0.0135 -0.03321,-0.007 -0.07723,-0.0166 -0.108642,-0.0272 -0.006,-0.002 -0.0093,-0.008 -0.01359,-0.0136 -0.01359,-0.004 -0.02669,-0.009 -0.04074,-0.0136 -0.0091,-0.002 -0.01857,0.002 -0.02714,0 -0.03786,-0.0125 -0.05906,-0.077 -0.09506,-0.0952 -0.01439,-0.006 -0.03855,-0.007 -0.05433,-0.0136 -0.0102,-0.003 -0.102,-0.0682 -0.10864,-0.0814 -0.03271,-0.0654 0.0472,-0.0911 0.06789,-0.12224 0.0062,-0.008 -0.0062,-0.0315 0,-0.0408 0.01072,-0.016 0.03215,-0.0235 0.04074,-0.0408 0.0052,-0.009 0.02217,-0.0493 0.02715,-0.0543 0.0069,-0.006 0.02,-0.006 0.02714,-0.0136 0.01432,-0.0144 0.01674,-0.0369 0.02715,-0.0543 0.0543,-0.0905 -0.0046,0.004 0.06791,-0.0679 0.0035,-0.003 -0.0022,-0.009 0,-0.0137 0.01753,-0.0264 0.06835,-0.0547 0.09506,-0.0679 0.05195,-0.0261 0.101469,-0.0158 0.135799,-0.0272 0.006,-0.002 0.0071,-0.0119 0.01359,-0.0135 0.02758,-0.006 0.08238,0.0129 0.108642,0 0.01149,-0.005 0.01571,-0.0215 0.02715,-0.0272 0.04962,-0.0249 0.09837,-0.0237 0.149382,-0.0408 0.09794,-0.0326 0.373344,0.0547 0.420983,-0.0408 0.0088,-0.0171 0.02921,-0.0254 0.04074,-0.0407 0.01373,-0.0183 0.02466,-0.0518 0.04074,-0.0679 0.0069,-0.006 0.02154,-0.004 0.02714,-0.0137 0.0051,-0.007 -0.0042,-0.019 0,-0.0272 0.01346,-0.0269 0.05105,-0.0426 0.06789,-0.0679 0.0056,-0.007 0.0063,-0.02 0.01359,-0.0271 0.0035,-0.003 0.0099,0.002 0.01359,0 0.07873,-0.0524 0.0102,-0.006 0.02715,-0.0407 0.01051,-0.0209 0.02421,-0.009 0.04074,-0.0272 0.02531,-0.0253 0.04261,-0.0697 0.0679,-0.0952 0.0035,-0.003 0.0099,0.002 0.01359,0 0.04111,0.0335 0.02337,-0.037 0.02715,-0.0408 0.01287,-0.0127 0.03858,-0.008 0.05432,-0.0408 0.0042,-0.007 -0.0042,-0.0191 0,-0.0271 0.0018,-0.004 0.0094,8.8e-4 0.01359,0 0.01831,-0.003 0.03848,-0.003 0.05431,-0.0136 0.04004,-0.0251 0.128516,-0.11492 0.162962,-0.14938 0.04069,-0.0407 0.04364,-0.0723 0.0679,-0.10864 0.01393,-0.021 0.04039,-0.0333 0.0543,-0.0543 0.0056,-0.007 0.0063,-0.0201 0.01359,-0.0272 0.0035,-0.003 0.0099,0.002 0.01359,0 0.03095,-0.0208 0.04961,-0.0624 0.08148,-0.0814 0.01228,-0.006 0.03062,-0.003 0.04074,-0.0134 0.0102,-0.009 0.0069,-0.0278 0.01359,-0.0408 0.0014,-0.003 0.06648,-0.054 0.06791,-0.0543 0.01317,-0.003 0.02813,0.004 0.04074,0 0.01189,-0.004 0.01571,-0.0215 0.02715,-0.0272 0.0078,-0.004 0.01838,0.002 0.02714,0 0.04928,-0.0121 0.08702,-0.0462 0.135801,-0.0543 0.07127,-0.0117 0.154451,0.0177 0.217282,-0.0136 0.0079,-0.004 0.01905,0.004 0.02715,0 0.02323,-0.0115 0.07699,-0.0726 0.0815,-0.0952 0.0069,-0.0356 0.02562,-0.22187 0.01359,-0.25801 -0.0068,-0.0212 -0.131785,-0.11585 -0.122221,-0.12224 0.03607,-0.024 0.08446,-0.0218 0.122221,-0.0408 0.03341,-0.0166 0.08284,-0.0445 0.12222,-0.0543 0.03323,-0.007 0.03521,0.002 0.0679,-0.0135 0.05477,-0.0273 0.326721,0.04 0.353083,0.0135 0.009,-0.008 -0.0034,-0.0558 0,-0.0679 0.009,-0.0347 0.01359,-0.0441 0.01359,-0.0814 0,-0.0351 0.01802,-0.15851 -0.01359,-0.19011 -0.01155,-0.0115 -0.02767,-0.0172 -0.04074,-0.0272 -0.03479,-0.0262 -0.05787,-0.0728 -0.09506,-0.0952 -0.01228,-0.006 -0.02849,-0.005 -0.04074,-0.0136 -0.02046,-0.0121 -0.05958,-0.0715 -0.06789,-0.0814 -0.02242,-0.0269 -0.05436,-0.0409 -0.0679,-0.0679 -0.0125,-0.0251 -0.02823,-0.002 -0.04074,-0.0272 -0.0042,-0.007 0.0042,-0.0191 0,-0.0271 -0.0057,-0.0114 -0.02057,-0.0162 -0.02715,-0.0271 -0.01537,-0.0256 -0.02843,-0.0569 -0.04074,-0.0814 -0.0042,-0.007 0.0063,-0.0209 0,-0.0272 -0.0035,-0.003 -0.0097,0.002 -0.01359,0 -0.02024,-0.009 -0.02473,-0.0384 -0.04074,-0.0544 -0.01807,-0.0179 -0.08508,-0.0209 -0.108643,-0.0679 -0.01326,-0.0266 0.01732,-0.0667 -0.02715,-0.0814 -0.03793,-0.0124 -0.207171,-0.006 -0.244442,0 -0.016,0.003 -0.02528,0.022 -0.04074,0.0272 -0.0188,0.005 -0.03461,0.006 -0.05432,0.0134 -0.02694,0.008 -0.04241,0.0552 -0.06789,0.0679 -0.0342,0.017 0.01176,-0.0516 -0.04074,0.0272 -0.0022,0.003 0.0035,0.009 0,0.0136 -0.03598,0.036 -0.09014,0.008 -0.122221,0.0408 -0.0063,0.006 0.0042,0.019 0,0.0271 -0.0018,0.004 -0.01155,-0.004 -0.01359,0 -0.0084,0.0166 -0.0053,0.0377 -0.01359,0.0543 -0.0057,0.0114 -0.02143,0.0158 -0.02715,0.0272 -0.01812,0.0361 0.0181,0.0995 0,0.13579 -0.01115,0.0222 -0.04316,0.0183 -0.05432,0.0408 -0.0018,0.004 0.0035,0.009 0,0.0136 -0.01542,0.0155 -0.09474,0.0178 -0.108643,0.0271 -0.01072,0.006 -0.01651,0.0202 -0.02714,0.0272 -0.01678,0.0114 -0.179072,0.001 -0.203702,0.0137 -0.0042,0.002 0.0035,0.009 0,0.0134 -0.01472,0.0148 -0.114179,0 -0.135802,0 -0.0093,0 -0.02076,0.006 -0.02715,0 -0.0066,-0.006 0,-0.0583 0,-0.0679 0,-0.0356 -0.01082,-0.0918 0.01359,-0.12222 0.0103,-0.0125 0.0292,-0.0157 0.04074,-0.0271 0.0035,-0.003 -0.0022,-0.009 0,-0.0136 0.02128,-0.032 0.05175,-0.0492 0.06791,-0.0814 0.0089,-0.0171 0.0116,-0.12617 0,-0.14939 -0.01257,-0.0253 -0.0423,-0.0439 -0.0543,-0.0678 -0.0048,-0.008 -0.07482,-0.0204 -0.05431,-0.0408 0.053,-0.0528 0.007,0.003 0.04074,-0.0136 0.0063,-0.003 0.05265,-0.0382 0.06791,-0.0408 0.05342,-0.008 0.236059,0.0176 0.271603,0 0.0042,-0.002 -0.0035,-0.009 0,-0.0134 0.016,-0.016 0.03832,-0.0248 0.05432,-0.0408 0.0305,-0.0306 0.0365,-0.11798 0.0543,-0.1358 0.0075,-0.007 0.03432,-0.007 0.04074,-0.0271 0.01093,-0.0327 -0.02266,-0.0716 0.02715,-0.0814 0.01332,-0.002 0.02757,0.003 0.04074,0 0.02366,-0.005 0.04385,-0.0231 0.06789,-0.0272 0.03572,-0.005 0.07428,0.0114 0.108643,0 0.01994,-0.006 0.1015,-0.0501 0.10864,-0.0679 0.0401,-0.10007 0.0014,-0.16191 -0.08149,-0.2173 -0.01552,-0.009 -0.04301,-0.0181 -0.0543,-0.0408 -0.0095,-0.0185 -0.0061,-0.22688 0,-0.25802 0.01293,-0.0646 0.0098,0.005 0.04074,-0.0408 0.0051,-0.007 -0.0042,-0.0191 0,-0.0271 0.03001,-0.0601 0.01685,-0.007 0.05432,-0.0272 0.0042,-0.002 0,-0.008 0,-0.0137 0.0093,-0.004 0.01734,-0.0114 0.02715,-0.0133 0.01756,-0.004 0.04151,-0.0128 0.0543,0 0.01247,0.0123 0,0.0903 0,0.10863 0,0.046 -0.01422,0.16106 0,0.2037 0.0012,0.004 0.01156,-0.004 0.01359,0 0.01448,0.0288 -0.01448,0.0797 0,0.10863 0.0018,0.004 0.0104,-0.003 0.01359,0 0.0062,0.005 -0.0043,0.0325 0,0.0408 0.0081,0.0163 0.03259,0.0245 0.04074,0.0408 0.0096,0.0187 -0.01645,0.012 0.01359,0.0272 0.10743,0.0538 0.2347,-0.008 0.298761,-0.0952 0.0074,-0.009 0.0165,-0.0202 0.02715,-0.0271 0.004,-0.002 0.01104,0.003 0.01359,0 0.0076,-0.0118 0.0061,-0.0285 0.01359,-0.0408 0.0064,-0.0114 0.02143,-0.0158 0.02715,-0.0271 0.02039,-0.0408 -0.01115,-0.17376 0.0543,-0.19014 0.02537,-0.006 0.153547,-0.0114 0.176542,0 0.02684,0.0134 0.06707,0.0526 0.0815,0.0814 0.02016,0.0403 -0.0046,0.0995 0.01359,0.13579 0.0032,0.005 0.0075,0.009 0.01359,0.0135 0.04707,0.0233 0.129462,-0.0235 0.176541,0 0.0057,0.002 0.0071,0.0119 0.01359,0.0136 0.04188,0.009 0.153025,0.0114 0.190122,-0.0136 0.01173,-0.007 0.04636,-0.0327 0.05432,-0.0407 0.01654,-0.0165 0.0062,-0.0303 0.02715,-0.0408 0.0042,-0.002 0.0104,0.003 0.01359,0 0.0098,-0.008 0,-0.0272 0,-0.0408 0,-0.0701 -10e-4,-0.0879 -0.06789,-0.13581 -0.01815,-0.0129 -0.0713,-0.022 -0.0815,-0.0272 -0.02291,-0.0114 -0.03383,-0.0389 -0.05432,-0.0543 -0.03582,-0.0269 -0.07197,-0.0495 -0.10864,-0.0678 -0.0146,-0.006 -0.0386,0.005 -0.0543,0 -0.06065,-0.0203 -0.13157,0.005 -0.190123,-0.0136 -0.0848,-0.0282 -0.19437,-0.0137 -0.285182,-0.0137 -0.148557,0 -0.336371,-0.0283 -0.475304,0.0271 -0.05804,0.0231 0.0047,0.001 -0.0543,0.0408 -0.01984,0.0131 -0.07228,0.002 -0.09507,0.0137 -0.02333,0.0116 -0.04506,0.0292 -0.06791,0.0408 -0.0082,0.004 -0.09092,0.0784 -0.09506,0.0952 -0.0036,0.013 0.0036,0.0275 0,0.0408 -0.0053,0.0213 -0.03371,0.0467 -0.04074,0.0678 -0.0057,0.0171 0.0057,0.0371 0,0.0543 -0.0086,0.0257 -0.04261,0.0445 -0.05432,0.0679 -0.0018,0.004 0.0035,0.009 0,0.0135 -0.05864,0.0587 -0.15239,0.049 -0.21728,0.0815 -0.01448,0.006 -0.03984,-0.006 -0.05432,0 -0.02593,0.0128 -0.04303,0.0393 -0.06791,0.0543 -0.0067,0.0299 -0.02796,0.006 -0.04074,0.0137 -0.01816,0.008 -0.106317,0.0791 -0.122221,0.0952 -0.0069,0.006 -0.0063,0.0201 -0.01359,0.0272 -0.01555,0.0156 -0.12032,0.0533 -0.122219,0.0543 -0.0042,0.002 0.0035,0.009 0,0.0136 -0.01432,0.0146 -0.03851,0.0147 -0.05432,0.0271 -0.02,0.016 -0.03301,0.0401 -0.05432,0.0543 -0.01683,0.0114 -0.03748,0.016 -0.05431,0.0271 -0.02878,0.0192 -0.05297,0.049 -0.0815,0.0679 -0.0436,0.0291 -0.09338,0.0497 -0.135801,0.0814 -0.03452,0.026 -0.04681,0.0673 -0.0815,0.0952 -0.03132,0.025 -0.08204,0.0276 -0.108641,0.0543 -0.0069,0.006 -0.0063,0.0202 -0.01359,0.0271 -0.02683,0.0268 -0.05953,0.0349 -0.0815,0.0679 -0.0022,0.003 0.0042,0.0115 0,0.0135 -0.01669,0.007 -0.03762,0.005 -0.05431,0.0136 -0.01281,0.006 -0.0037,0.0307 -0.01359,0.0408 -0.02682,0.0268 -0.05954,0.0349 -0.0815,0.0679 -0.02586,0.0387 -0.05095,0.0951 -0.0815,0.13579 -0.02263,0.0303 -0.04527,0.034 -0.06791,0.0679 -0.01335,0.02 -0.0181,0.077 -0.02714,0.0952 -0.0057,0.0114 -0.02039,0.0163 -0.02714,0.0271 -0.02652,0.0424 -0.04135,0.0825 -0.06789,0.12223 -0.01882,0.0281 -0.04407,0.0712 -0.06789,0.0952 -0.01155,0.0114 -0.0292,0.0157 -0.04074,0.0271 -0.06824,0.0682 0.0018,0.0146 -0.04074,0.0678 -0.03709,0.0464 -0.07156,0.0896 -0.108641,0.13581 -0.02779,0.0347 -0.03231,0.0856 -0.0543,0.12221 -0.01,0.0164 -0.03215,0.0235 -0.04074,0.0408 -0.02375,0.0474 -0.05095,0.0985 -0.06791,0.1494 -0.01356,0.0407 -0.01193,0.0977 -0.02715,0.13579 -0.006,0.0153 -0.02266,0.0251 -0.02714,0.0408 -0.0092,0.0312 -0.0064,0.14773 -0.01359,0.19013 -0.0048,0.0282 -0.02022,0.0538 -0.02714,0.0814 -10e-4,0.004 0,0.008 0,0.0136 0,0.0135 0.0039,0.0276 0,0.0408 -0.0055,0.0194 -0.02076,0.0352 -0.02715,0.0543 -0.008,0.0244 -0.02182,0.0819 -0.02714,0.10865 -0.0064,0.0328 -0.01515,0.1058 -0.02715,0.13582 -0.006,0.0153 -0.02267,0.025 -0.02714,0.0407 -0.005,0.0173 0.0045,0.0367 0,0.0543 -0.005,0.0196 -0.02159,0.0348 -0.02714,0.0543 -0.0039,0.013 0.0036,0.0275 0,0.0407 -0.0014,0.005 -0.01072,0.007 -0.01359,0.0135 -0.01093,0.0218 -0.01945,0.0448 -0.02715,0.0679 -0.03138,0.023 -0.0059,0.0551 -0.01359,0.0814 -0.0118,0.0412 -0.02383,0.0827 -0.04074,0.12223 -0.01994,0.0465 -0.05909,0.0829 -0.0679,0.1358 -0.0033,0.0178 0.0045,0.0368 0,0.0543 -0.01683,0.0673 -0.02425,0.13766 -0.04074,0.2037 -0.01707,0.0682 0,0.17447 0,0.24445 0,0.0722 -0.01643,0.20591 0,0.27158 0.0097,0.0383 0.04184,0.0712 0.05431,0.10865 0.0066,0.0203 0.02798,0.10898 0.05433,0.12221 0.01061,0.005 0.03131,0.006 0.04074,0.0135 0.01072,0.006 0.0157,0.0215 0.02714,0.0271 0.02507,0.0123 0.163398,-0.0129 0.176545,0 0.0035,0.003 -0.0035,0.009 0,0.0136 0.0035,0.003 0.01155,-0.004 0.01359,0 0.0042,0.007 -0.0019,0.0182 0,0.0272 0.0021,0.009 0.0093,0.018 0.01359,0.0271 0.0046,0.0272 0.0102,0.0544 0.01359,0.0815 0.0021,0.0198 0.0041,0.13969 0.01359,0.14936 0.0069,0.006 0.02001,0.006 0.02715,0.0136 0.0035,0.003 -0.0035,0.009 0,0.0135 0.0046,0.004 0.05157,-9.1e-4 0.0543,0 0.06208,0.0208 -0.05752,0.009 0.04074,0.0271 0.10224,0.0169 0.28158,0 0.393822,0 0.02657,0 0.08176,-0.008 0.108641,0 0.01709,0.005 0.03429,0.0205 0.0543,0.0271 0.008,0.002 0.05013,-0.005 0.05432,0 0.03977,0.0597 -0.02274,0.16739 0.02714,0.21726 0.0069,0.006 0.02,0.006 0.02714,0.0136 0.02475,0.0247 0.04132,0.0714 0.0815,0.0814 0.03407,0.007 0.07455,-0.007 0.10864,0 0.0061,0.001 0.0075,0.009 0.01359,0.0134 0.0362,0.0179 0.130486,-0.0212 0.149293,-0.0275 z"
         id="path11004-7" /><path
         style="fill:url(#radialGradient12144);fill-opacity:1;stroke-width:3.19794"
         d="m 50.222783,128.65105 c 0.04973,0.008 0.04984,0.0401 0.07683,0.0672 0.0051,0.004 0.01524,0.003 0.0192,0.008 0.0076,0.0118 0.0098,0.13371 0.0098,0.13442 0,0.004 0.0034,0.0499 0,0.0576 -0.02126,0.0531 -0.02337,0.007 -0.0384,0.0384 -0.0094,0.0183 -0.0011,0.0504 -0.0098,0.0672 -0.01082,0.0216 10e-4,0.006 -0.0098,0.0288 -0.0012,0.002 -0.0075,-0.002 -0.0098,0 -0.0309,0.0463 -0.01921,0.22429 -0.01921,0.2881 0,0.0226 -0.0078,0.10864 0,0.12482 0.03941,0.0788 0.0742,0.1057 0.163245,0.1057 0.016,0 0.124294,0.006 0.134435,0 0.01734,-0.0115 0.06939,-0.0582 0.07683,-0.0769 0.005,-0.0121 0.0025,-0.0271 0.0098,-0.0384 0.0039,-0.005 0.01415,-0.004 0.01921,-0.008 0.0102,-0.009 0.0103,-0.0272 0.0192,-0.0384 0.0086,-0.009 0.02068,-0.0178 0.0288,-0.0288 0.004,-0.004 -0.0038,-0.0139 0,-0.0192 0.0051,-0.007 0.01378,-0.0118 0.0192,-0.0192 0.01411,-0.0189 0.0173,-0.05 0.02879,-0.0672 0.03454,-0.0518 0.0033,0.006 0.03841,-0.0288 0.0046,-0.004 -0.0053,-0.0157 0,-0.0193 0.0084,-0.005 0.01975,-0.004 0.02879,-0.008 0.01839,-0.008 0.01396,-0.0382 0.02879,-0.0481 0.0053,-0.003 0.01313,0.002 0.01921,0 0.0088,-0.002 0.01167,-0.0142 0.01921,-0.0191 0.01447,-0.008 0.03569,-0.006 0.04801,-0.0193 0.01986,-0.02 -0.03036,8.1e-4 0.0098,-0.0192 0.03336,-0.0166 0.07359,-0.0181 0.105633,-0.0288 0.0044,-0.001 0.0063,-0.006 0.0098,-0.008 0.0063,-0.003 0.01227,-0.007 0.01921,-0.008 0.01505,-0.003 0.03295,0.003 0.04801,0 0.0045,-0.001 0.0055,-0.007 0.0098,-0.008 0.0215,-0.009 0.05555,-0.007 0.07683,-0.0191 0.0104,-0.004 0.01848,-0.0142 0.02879,-0.0192 0.01239,-0.005 0.05571,-0.005 0.06722,-0.008 0.0098,-0.003 0.02038,-0.003 0.0288,-0.008 0.0073,-0.004 0.01061,-0.0163 0.01921,-0.0193 0.01215,-0.004 0.0258,0.002 0.03841,0 0.03064,-0.004 0.05916,-0.0293 0.08642,-0.0384 0.006,-0.002 0.01299,0.001 0.01921,0 0.01072,-0.002 0.0475,-0.0237 0.05761,-0.0288 0.02182,-0.0114 0.04104,0.0232 0.05762,0.0288 0.02563,0.007 0.19556,0.0179 0.220859,0.008 0.0044,-0.001 0.0055,-0.007 0.0098,-0.008 0.0057,-0.003 0.02436,0.004 0.02879,0 0.0015,-0.001 0.01237,-0.0219 0.01921,-0.0288 0.01552,-0.0156 0.04106,-0.0367 0.04802,-0.0577 0.0097,-0.0286 0.0058,-0.0658 0.0098,-0.0961 0.0102,-0.0806 0.0098,-0.15801 0.0098,-0.24007 0,-0.0245 -0.0117,-0.13985 0,-0.16324 0.01464,-0.0293 0.05318,-0.0652 0.05761,-0.096 0.0084,-0.0583 0,-0.12336 0,-0.18247 0,-0.007 0.0062,-0.0609 0,-0.0672 -0.002,-0.002 -0.0066,0.001 -0.0098,0 -0.0104,-0.004 -0.01809,-0.0151 -0.0288,-0.0192 -0.06793,-0.0272 0.033,0.0332 -0.03841,-0.008 -0.06422,-0.0384 0.01281,0.002 -0.07683,-0.0576 -0.01359,-0.008 -0.03341,-0.002 -0.04802,-0.008 -0.0025,-0.001 0,-0.006 0,-0.008 -0.01281,-0.006 -0.02484,-0.0149 -0.03841,-0.0192 -0.03094,-0.009 -0.134112,1.8e-4 -0.153644,-0.008 -0.0342,-0.017 -0.06876,-3.8e-4 -0.105632,-0.008 -0.05866,-0.0149 -0.297939,-0.0228 -0.355295,0 -0.05103,0.0206 -0.0639,0.0277 -0.124835,0.0479 -0.02874,0.008 -0.06658,-0.006 -0.09603,0 -0.01967,0.004 -0.03705,0.0142 -0.05761,0.0192 -0.02609,0.006 -0.05958,0 -0.08644,0 -0.09037,0 -0.188882,-0.0114 -0.278475,0 -0.0101,0.001 -0.01898,0.006 -0.0288,0.008 -0.01491,0.003 -0.0335,-0.004 -0.04801,0 -0.02098,0.006 -0.03463,0.0148 -0.05761,0.0192 -0.01881,0.003 -0.196155,0.004 -0.211258,0 -0.0044,-10e-4 -0.0053,-0.007 -0.0098,-0.008 -0.02154,-0.006 -0.268539,-0.003 -0.288077,0 -0.04015,0.006 -0.07539,0.023 -0.115232,0.0287 -0.0097,0.001 -0.01949,-0.002 -0.0288,0 -0.01626,0.004 -0.02983,0.0226 -0.04801,0.0288 -0.01156,0.003 -0.04888,-0.008 -0.05761,0 -0.01927,0.0193 -0.03042,0.044 -0.05762,0.0576 -0.02189,0.0114 -0.04312,0.0359 -0.06722,0.0479 -0.0102,0.004 -0.04581,0.015 -0.04801,0.0192 -0.0057,0.0114 0,0.0258 0,0.0384 0,0.11292 0.217546,0.0627 0.288079,0.0768 0.04166,0.007 0.07254,0.0192 0.115231,0.0192 0.01082,0 0.06017,-0.006 0.06722,0 0.002,0.002 -0.0027,0.007 0,0.008 0.0057,0.002 0.01313,-0.002 0.01921,0 0.01363,0.004 0.01371,0.0233 0.0192,0.0288 0.0051,0.004 0.01415,0.004 0.0192,0.008 0.0076,0.007 0.01192,0.0837 0.01921,0.10569 0.01061,0.0318 -0.0011,0.10037 0.0098,0.14402 0.0021,0.008 -0.0049,0.0191 0,0.0288 0.02638,0.0526 0.165978,0.0713 0.220861,0.0576 z"
         id="path11008-3" /><path
         style="fill:url(#radialGradient12146);fill-opacity:1;stroke-width:3.19794"
         d="m 52.956593,131.86899 c -0.08319,-0.0678 -0.192908,-0.046 -0.285183,-0.0815 -0.156925,-0.0604 0.0102,-0.0221 -0.0543,-0.0543 -0.0078,-0.004 -0.01906,0.004 -0.02715,0 -0.01149,-0.005 -0.01572,-0.0215 -0.02715,-0.0272 -0.02286,-0.0114 -0.143608,-0.005 -0.162962,0.0135 -0.0063,0.006 0.0025,0.0186 0,0.0272 -0.0064,0.0197 -0.04562,0.037 -0.05432,0.0544 -0.0042,0.007 0.0026,0.0185 0,0.0271 -0.0018,0.005 -0.01156,0.007 -0.01359,0.0136 -0.0059,0.0178 0,0.0486 0,0.0679 0,0.0356 0.01221,0.16569 0,0.19013 -0.0101,0.0201 -0.02793,0.0486 -0.04074,0.0679 -0.03996,0.06 -0.104508,0.0758 -0.149382,0.1358 -0.0167,0.0222 -0.0072,0.0481 -0.02715,0.0679 -0.0075,0.007 -0.03432,0.007 -0.04074,0.0272 -0.0044,0.0127 0.006,0.0285 0,0.0408 -0.0046,0.008 -0.02263,0.004 -0.02715,0.0136 -0.0071,0.0149 -0.01219,0.0666 -0.02715,0.0815 -0.0035,0.003 -0.0104,-0.003 -0.01359,0 -0.01866,0.0186 -0.01878,0.0532 -0.04074,0.0679 -0.100684,0.0671 0.02669,-0.0539 -0.04074,0.0135 -0.01072,0.009 -0.01245,0.0359 -0.02715,0.0408 -0.0088,0.002 -0.01905,-0.004 -0.02715,0 -0.0088,0.004 -0.0103,0.0886 -0.01359,0.10864 -0.0018,0.0124 -0.02006,0.0165 -0.02714,0.0272 -0.01627,0.0243 -0.02662,0.0604 -0.04074,0.0814 -0.0069,0.009 -0.02006,0.0165 -0.02715,0.0272 -0.01315,0.0198 -0.02378,0.0588 -0.04074,0.0814 -0.01152,0.0155 -0.03467,0.0224 -0.04074,0.0408 -0.0025,0.007 0.0025,0.0186 0,0.0271 -0.0048,0.0143 -0.03919,0.0241 -0.04074,0.0272 -0.0096,0.0188 -0.0057,0.0482 -0.01359,0.0679 -0.01273,0.0319 -0.04651,0.0599 -0.0543,0.0952 -0.03229,0.14537 -0.02714,0.31198 -0.02714,0.46173 0,0.0289 -0.0068,0.0672 0,0.0951 0.0069,0.0281 0.01788,0.0537 0.02714,0.0814 0.0057,0.017 -0.0038,0.0365 0,0.0543 0.01093,0.0548 0.01,0.005 0.02715,0.0407 0.01126,0.0224 -1.11e-4,0.0541 0.01359,0.0814 0.01234,0.0248 0.04048,0.0448 0.05432,0.0679 0.01998,0.0332 0.02987,0.1031 0.06789,0.12221 0.01281,0.006 0.02882,0.005 0.04074,0.0136 0.0085,0.005 0.0052,0.0216 0.01359,0.0272 0.03009,0.0203 0.06392,0.0523 0.09506,0.0678 0.01751,0.008 0.05197,0.005 0.06791,0.0136 0.0093,0.004 0.0046,0.0225 0.01359,0.0272 0.0218,0.009 0.04478,0.0194 0.06789,0.0271 0.05038,0.0167 0.424197,0 0.488885,0 0.09172,0 0.168346,0.008 0.258024,0.0271 0.04208,0.007 0.07944,0.003 0.122219,0.0137 0.05254,0.0129 0.137141,0 0.190123,0 0.09341,0 0.376403,-0.0222 0.448144,0.0134 0.01966,0.009 0.03198,0.0503 0.04074,0.0678 0.03402,0.0681 0.01359,0.45029 0.01359,0.55679 0,0.0391 -0.0091,0.1541 0.01359,0.17654 0.0035,0.003 0.0104,-0.003 0.01359,0 0.01272,0.0125 -0.0084,0.0646 0,0.0814 0.0057,0.0114 0.0224,0.0154 0.02714,0.0272 0.01262,0.0317 -0.0012,0.0923 0.01359,0.12221 0.03495,0.07 0.08142,0.22629 0.149381,0.27161 0.02721,0.0181 0.07027,0.0336 0.05432,0.0814 0.02459,0.0569 -0.02143,0.0158 -0.02715,0.0271 -0.0042,0.007 0.0025,0.0186 0,0.0272 -0.0069,0.0213 -0.04538,0.0318 -0.05433,0.0408 -0.02447,0.0243 -0.04847,0.0659 -0.06791,0.0951 0.0012,0.0269 -0.02001,0.006 -0.02715,0.0134 -0.0082,0.007 -0.04872,0.0595 -0.05432,0.0679 -0.04196,0.0629 -0.02715,0.185 -0.02715,0.2716 0,0.0366 -0.01522,0.11895 0,0.14937 0.0057,0.0114 0.02311,0.0152 0.02715,0.0271 0.01468,0.044 0.0016,0.0889 0.01359,0.13581 0.0034,0.0122 0.02143,0.0158 0.02715,0.0272 0.0098,0.0194 -0.0043,0.0606 0,0.0815 0.0024,0.014 0.0102,0.0269 0.01359,0.0407 0.0019,0.008 -0.0042,0.0191 0,0.0271 0.0025,0.005 0.01156,0.007 0.01359,0.0136 0.0088,0.026 0.0017,0.0716 0.01359,0.0952 0.04301,0.0861 0.166418,0.0288 0.217281,0.0543 0.03646,0.0181 -6.68e-4,0.0801 0.01359,0.10864 0.0071,0.0148 0.01986,0.0263 0.02715,0.0407 0.01266,0.0255 -0.01267,0.0697 0,0.0952 0.04406,0.0881 0.02715,0.25656 0.02715,0.36665 0,0.0119 -0.0061,0.0556 0,0.0679 0.0096,0.0191 0.0223,0.0301 0.02715,0.0544 0.01458,0.073 -0.008,0.0898 0.04074,0.16296 0.02117,0.0317 0.03585,0.0267 0.05432,0.0543 0.0056,0.007 0.0052,0.0215 0.01359,0.0271 0.0073,0.004 0.01838,-0.002 0.02715,0 0.02921,0.006 0.0563,0.0324 0.0815,0.0407 0.01288,0.004 0.0286,-0.005 0.04074,0 0.0057,0.002 0.0071,0.0119 0.01359,0.0136 0.03151,0.007 0.238543,0.005 0.258022,-0.0136 0.016,-0.016 0.02475,-0.0384 0.04074,-0.0543 0.0063,-0.006 0.01905,0.004 0.02714,0 0.01533,-0.007 0.03109,-0.0523 0.05433,-0.0679 0.08497,-0.0566 0.147007,-0.11866 0.2037,-0.2037 0.03097,-0.0464 0.0388,-0.11442 0.06791,-0.16295 0.0064,-0.0114 0.02143,-0.0158 0.02715,-0.0272 0.0042,-0.007 -0.0051,-0.0197 0,-0.0272 0.0056,-0.007 0.02,-0.006 0.02715,-0.0136 0.0022,-0.002 0.01104,-0.0383 0.01359,-0.0407 0.0501,-0.0501 0.0055,0.0325 0.05432,-0.0408 0.0076,-0.0118 0.0061,-0.0284 0.01359,-0.0408 0.05014,-0.0836 0.0034,-0.003 0.05432,-0.0679 0.0019,-0.002 0.05136,-0.059 0.05433,-0.0679 0.0042,-0.012 -0.0042,-0.0285 0,-0.0408 0.0518,-0.15536 -0.01337,-0.3408 0.01359,-0.50247 0.0081,-0.0492 0.01163,-0.008 0.02715,-0.0408 0.0042,-0.007 -0.0042,-0.019 0,-0.0272 0.0057,-0.0114 0.02311,-0.0152 0.02715,-0.0271 0.0025,-0.007 -0.0042,-0.0189 0,-0.0272 0.0018,-0.004 0.0097,0.002 0.01359,0 0.0304,-0.0153 0.06609,-0.0399 0.09506,-0.0543 0.02173,-0.009 0.03259,-0.0435 0.05432,-0.0543 0.0042,-0.002 0.0104,0.003 0.01359,0 0.0035,-0.003 -0.0018,-0.008 0,-0.0137 0.01137,-0.0226 0.05378,-0.0625 0.0679,-0.0815 0.0099,-0.0131 0.03169,-0.0137 0.04074,-0.0272 0.01225,-0.0182 0.0078,-0.0783 0.01359,-0.0952 0.0018,-0.005 0.01072,-0.007 0.01359,-0.0135 0.01346,-0.0269 0,-0.15009 0,-0.19013 0,-0.18124 -0.02742,-0.44741 0.02715,-0.6111 0.01157,-0.0347 -0.01665,-0.15155 0,-0.17656 0.01072,-0.016 0.03215,-0.0235 0.04074,-0.0408 0.018,-0.036 -0.0013,-0.0942 0.05432,-0.12222 0.01093,-0.005 0.02987,0.005 0.04074,0 0.01347,-0.006 0.02665,-0.0224 0.04074,-0.0272 0.0341,-0.0114 0.07341,0.002 0.09507,-0.0408 0.006,-0.012 -0.0023,-0.0274 0,-0.0408 0.0024,-0.0141 0.01082,-0.0267 0.01359,-0.0408 0.0065,-0.0332 -0.01072,-0.0766 0,-0.10864 0.0042,-0.012 0.02143,-0.0158 0.02715,-0.0271 0.0018,-0.004 -0.0035,-0.009 0,-0.0134 0.05009,-0.0501 0.0055,0.0325 0.05432,-0.0408 0.01403,-0.0211 -0.02307,-0.008 0.01359,-0.0271 0.0082,-0.004 0.03504,-0.007 0.04074,-0.0135 0.0035,-0.003 -0.0035,-0.009 0,-0.0136 0.01155,-0.0114 0.02528,-0.0219 0.04074,-0.0271 0.0088,-0.002 0.01907,0.004 0.02715,0 0.0042,-0.002 -0.0018,-0.008 0,-0.0135 0.01382,-0.0276 0.04582,-0.0338 0.0543,-0.0679 0.01414,-0.0565 -8.19e-4,-0.14776 0.02715,-0.2037 0.007,-0.0147 -0.007,-0.0399 0,-0.0543 0.0018,-0.004 0.01156,0.004 0.01359,0 0.01275,-0.0255 0,-0.16574 0,-0.20371 0,-0.0285 0.01246,-0.0838 0,-0.10863 -0.0028,-0.005 -0.01155,-0.007 -0.01359,-0.0136 -0.01234,-0.037 0.0055,-0.0569 -0.01359,-0.0951 -0.007,-0.0147 0.007,-0.0399 0,-0.0543 -0.01262,-0.0252 -0.04136,-0.042 -0.05429,-0.0679 -0.01202,-0.024 0.02021,-0.004 -0.01359,-0.0271 -0.06042,-0.0403 -0.09085,-0.009 -0.1358,-0.0408 -0.009,-0.005 -0.06363,-0.0729 -0.0679,-0.0814 -0.0018,-0.004 0.0042,-0.0115 0,-0.0136 -0.01156,-0.005 -0.0439,-0.003 -0.0543,-0.0136 -0.0035,-0.003 0.0035,-0.009 0,-0.0134 -0.0035,-0.003 -0.0097,0.002 -0.01359,0 -0.01149,-0.005 -0.01572,-0.0215 -0.02715,-0.0272 -0.0042,-0.002 -0.0104,0.003 -0.01359,0 -0.0035,-0.003 0.0035,-0.009 0,-0.0136 -0.053,-0.0529 -0.0071,0.003 -0.04074,-0.0135 -0.06752,-0.0337 -0.10098,-0.12636 -0.122221,-0.19011 -0.0104,-0.031 8.79e-4,-0.0662 -0.01359,-0.0951 -0.01543,-0.031 -0.03983,-0.0661 -0.0543,-0.0952 -0.02038,-0.0408 -0.06057,-0.0322 -0.09506,-0.0408 -0.01241,-0.003 -0.01571,-0.0215 -0.02715,-0.0271 -0.02419,-0.0119 -0.05916,-0.0183 -0.0815,-0.0408 -0.02644,-0.0265 -0.01137,-0.0769 -0.02715,-0.10866 -0.01798,-0.036 -0.03684,-0.0736 -0.05432,-0.10863 -0.01374,-0.0274 0.01456,-0.2027 0,-0.21728 -0.0084,-0.007 -0.03164,-0.008 -0.04074,-0.0272 -0.01259,-0.0251 0,-0.0956 0,-0.12222 0,-0.0523 0.01698,-0.14426 -0.01359,-0.19011 -0.0022,-0.003 -0.0101,0.002 -0.01359,0 -0.01535,-0.0114 -0.02844,-0.0261 -0.04074,-0.0408 -0.01051,-0.0123 -0.01562,-0.0291 -0.02714,-0.0408 -0.04378,-0.0438 -0.37063,-0.0272 -0.448144,-0.0272 -0.05058,0 -0.113995,0.009 -0.162961,0 -0.01986,-0.003 -0.03468,-0.0222 -0.0543,-0.0272 -0.01317,-0.003 -0.0286,0.005 -0.04074,0 -0.06215,-0.0312 0.05762,0.005 -0.04074,-0.0271 -0.07849,-0.0263 -0.200251,0.0271 -0.285182,0.0271 -0.03524,0 -0.319743,0.015 -0.339504,0 -0.0619,-0.0463 -0.08035,-0.10716 -0.12222,-0.16295 -0.0074,-0.009 -0.02057,-0.0162 -0.02715,-0.0272 -0.0098,-0.016 -3.95e-4,-0.0412 -0.01359,-0.0543 -0.01811,-0.018 -0.01305,0.0288 -0.02715,-0.0133 -0.0057,-0.0171 0.0045,-0.0367 0,-0.0544 -0.0099,-0.0389 -0.01786,-0.0316 -0.02714,-0.0407 -0.0098,-0.008 0.0044,-0.0278 0,-0.0408 -0.006,-0.0181 -0.08346,-0.0229 -0.108643,-0.0272 -0.04819,-0.007 -0.222395,-0.009 -0.271602,0 -0.04951,0.009 -0.03396,0.0238 -0.06791,0.0408 -0.0078,0.004 -0.01964,-0.004 -0.02715,0 -0.01072,0.006 -0.01572,0.0215 -0.02715,0.0271 -0.01216,0.005 -0.03114,-0.008 -0.04074,0 -0.016,0.016 -0.02715,0.0362 -0.04074,0.0543 z"
         id="path11010-5" /><path
         style="fill:url(#radialGradient12148);fill-opacity:1;stroke-width:3.19794"
         d="m 53.825723,130.10358 c -0.01584,0.025 -0.02953,0.0513 -0.04753,0.0747 -0.01778,0.0231 -0.05006,0.0135 -0.07469,0.0135 -0.06383,0 -0.0562,-0.004 -0.101857,-0.0271 -0.0078,-0.003 -0.02191,-0.0219 -0.02715,-0.0271 -0.02081,-0.0209 -0.04971,-0.0384 -0.0679,-0.0612 -0.0069,-0.008 -0.0103,-0.022 -0.02036,-0.0271 -0.01454,-0.006 -0.03107,-0.006 -0.04753,-0.006 -0.0073,0 -0.02065,-0.003 -0.02714,0 -0.03586,0.0178 -0.04294,0.093 -0.03396,0.12901 8.53e-4,0.003 0.01452,0.0356 0.0066,0.0408 -0.02484,0.0165 -0.06596,0.0267 -0.09506,0.034 -0.06327,0.0159 -0.06404,-0.0156 -0.101847,-0.0407 -0.0055,-0.003 -0.05239,-0.0133 -0.06111,-0.006 -0.0074,0.005 -0.01212,0.0155 -0.02036,0.0205 -0.01483,0.008 -0.04675,-0.008 -0.06111,0 -0.0044,0.002 -0.004,0.008 -0.0066,0.0135 -0.0046,0.004 -0.0093,0.008 -0.01359,0.0135 -0.002,0 -0.0052,-0.001 -0.0066,0 -0.002,0.002 -0.0046,0.0181 -0.0066,0.0204 -0.0038,0.003 -0.0101,0.003 -0.01359,0.006 -8.23e-4,8.3e-4 -0.0104,0.0915 -0.0066,0.0952 0.0074,0.007 0.02154,0.008 0.02715,0.0204 0.0073,0.0152 0,0.0508 0,0.0679 0,0.006 0.0049,0.0156 0,0.0204 -0.0014,10e-4 -0.0048,-0.001 -0.0066,0 -0.0088,0.004 -0.01239,0.0152 -0.02036,0.0205 -0.0074,0.004 -0.01824,0.003 -0.02715,0.006 -0.004,10e-4 -0.01853,0.0166 -0.02036,0.0205 -10e-4,0.002 0.0018,0.005 0,0.006 -0.02476,0.0122 -0.09061,-0.0122 -0.115431,0 -0.01548,0.007 -0.02231,0.0222 -0.03396,0.034 -0.0038,0.003 -0.0096,0.003 -0.01359,0.006 -0.01519,0.009 -0.02691,0.029 -0.04074,0.0408 -0.0062,0.005 -0.0146,0.007 -0.02036,0.0135 -0.003,0.003 -0.01082,0.0223 -0.02036,0.0272 -0.0018,0.001 -0.0052,-0.001 -0.0066,0 -0.0014,0.001 0.001,0.004 0,0.006 -0.0044,0.007 -0.01897,0.0174 -0.02714,0.0204 -0.02533,0.007 -0.111253,-0.0194 -0.122221,0.0135 -0.0096,0.0281 -0.01349,0.11593 -0.0066,0.14938 0.0043,0.0208 0.01433,0.0225 0.02037,0.0408 0.0011,0.003 -0.0024,0.0175 0,0.0205 0.0065,0.006 0.03714,0.0163 0.04074,0.0271 0.0042,0.012 -0.0034,0.0282 0,0.0407 0.0011,0.004 0.0052,0.008 0.0066,0.0136 0.0047,0.0138 0.0023,0.13052 0,0.13583 -0.0039,0.006 -0.0093,0.0136 -0.01359,0.0204 -0.01126,0.0168 -0.0014,7.8e-4 -0.01359,0.006 -0.05207,0.0262 -0.09262,-0.0233 -0.142591,-0.006 -0.0098,0.003 -0.0181,0.008 -0.02715,0.0136 -0.0097,0.004 -0.0102,0.0132 -0.01359,0.0204 -0.006,0.012 -0.02156,0.016 -0.02715,0.0271 -0.0069,0.0145 -0.03371,0.0233 -0.04074,0.034 -0.004,0.005 0.0016,0.0141 0,0.0204 -0.0063,0.0224 -0.02057,0.0277 -0.02715,0.0475 -0.006,0.0182 -0.01562,0.0353 -0.02036,0.0543 -0.0044,0.017 0,0.0431 0,0.0612 0,0.0122 -0.0015,0.0322 0.0066,0.0407 0.01505,0.0152 0.09487,0.0271 0.115431,0.0271 0.03513,0 -0.01431,-0.002 0.03396,0.0136 0.01502,0.004 0.032,-0.003 0.04754,0 0.0034,6.5e-4 0.004,0.005 0.0066,0.006 0.0085,0.002 0.110276,0.003 0.122221,0 0.01608,-0.005 0.0423,-0.0219 0.05432,-0.0339 0.01649,-0.0165 -0.0017,-0.009 0.01359,-0.0204 0.0059,-0.003 0.01531,-0.002 0.02036,-0.006 0.0068,-0.006 0.0064,-0.0135 0.01359,-0.0204 0.0038,-0.003 0.0101,-0.003 0.01359,-0.006 0.0086,-0.007 0.0017,-0.0242 0.0066,-0.034 10e-4,-0.002 0.0052,0.001 0.0066,0 0.0082,-0.007 0.0097,-0.0201 0.02036,-0.0271 0.0044,-0.002 0.0101,-0.003 0.01359,-0.006 0.0014,-0.001 -10e-4,-0.004 0,-0.006 0.0056,-0.0114 0.01948,-0.0124 0.02715,-0.0205 0.0038,-0.003 0.0035,-0.009 0.0066,-0.0137 0.0018,-0.002 0.01618,-0.002 0.02036,-0.006 0.0038,-0.003 0.0042,-0.008 0.0066,-0.0134 0.01051,-0.0157 0.0041,0.003 0.02036,-0.0136 0.0057,-0.005 0.0075,-0.0147 0.01359,-0.0204 0.01405,-0.0143 -5.46e-4,0.0215 0.01359,-0.006 0.0067,-0.0141 0.019,-0.0309 0.03393,-0.0408 0.0016,-0.001 0.0052,0.001 0.0066,0 0.0094,-0.008 0.01661,-0.0335 0.02715,-0.0407 0.0045,-0.003 0.04529,-0.008 0.05432,-0.0136 0.01526,-0.007 0.02463,-0.0218 0.04074,-0.0272 0.0077,-0.002 0.01997,-0.003 0.02715,-0.006 0.01166,-0.005 0.01226,-0.0166 0.02715,-0.0205 0.01252,-0.003 0.02855,0.004 0.04074,0 0.0033,-0.001 0.0041,-0.005 0.0066,-0.006 0.0094,-0.004 0.02407,0.003 0.03396,0 0.02342,-0.007 0.0051,-0.006 0.02036,-0.006 0.03889,0 0.09582,-0.009 0.12901,0.006 0.01061,0.005 0.0073,0.0209 0.02036,0.0271 0.007,0.003 0.0093,-0.006 0.01359,0.006 0.0019,0.006 -0.0049,0.0157 0,0.0205 0.0014,0.001 0.0057,-0.002 0.0066,0 0.0034,0.005 0.002,0.0498 0,0.0544 -10e-4,0.002 -0.0052,-0.001 -0.0066,0 -0.0014,0.001 0.0011,0.004 0,0.006 -0.0053,0.007 -0.01609,0.0116 -0.02037,0.0205 -0.01215,0.0244 -0.01983,0.0538 -0.04074,0.0747 6.69e-4,0.0133 -0.0101,0.003 -0.01359,0.006 -0.01156,0.0115 -0.01164,0.0235 -0.02715,0.0339 -0.0075,0.004 -0.0215,0.008 -0.02715,0.0204 -0.0018,0.004 -0.01154,0.0792 -0.0066,0.0814 0.0036,0.001 0.120179,0.002 0.129012,0 0.005,-0.001 0.0089,-0.005 0.01359,-0.006 0.0045,-0.001 0.0099,0.002 0.01359,0 0.0044,-0.002 0.002,-0.0114 0.0066,-0.0136 0.0092,-0.004 0.03173,-7.7e-4 0.04074,-0.006 0.0044,-0.002 0.0035,-0.009 0.0066,-0.0134 0.0082,-0.007 0.01516,-0.003 0.02036,-0.0134 0.0059,-0.0117 0.0064,-0.0303 0.01359,-0.0408 0.0038,-0.005 0.01072,-0.007 0.01359,-0.0137 0.0073,-0.0153 0.0046,-0.0498 0.01359,-0.0679 0.004,-0.007 0.01769,-0.0121 0.02037,-0.0205 0.0019,-0.006 -0.0033,-0.0143 0,-0.0204 0.0058,-0.0115 0.01317,-0.002 0.02036,-0.0136 0.0024,-0.004 0.0443,-0.0601 0.04753,-0.0612 0.01359,-0.004 0.03991,0 0.05432,0 0.01359,0 0.0286,-0.005 0.04074,0 0.01641,0.007 0.05765,0.0507 0.06111,0.0679 0.0068,0.035 -0.01082,0.0898 0,0.12223 0.0047,0.014 0.03223,0.0294 0.04074,0.0408 0.01372,0.018 0.01419,0.0172 0.03396,0.0271 0.0032,10e-4 0.0039,0.005 0.0066,0.006 0.0218,0.005 0.109338,0.0157 0.135804,0.006 0.0033,-0.001 0.0046,-0.004 0.0066,-0.006 0.0093,-0.002 0.01795,-0.005 0.02715,-0.006 0.01911,-0.003 0.01185,0.006 0.03396,-0.006 0.01104,-0.006 0.0165,-0.0203 0.02715,-0.0271 0.0016,-0.001 0.0052,0.001 0.0066,0 0.0038,-0.003 0.0022,-0.009 0.0066,-0.0136 0.02036,-0.0135 0.0066,0.006 0.02036,0 0.05483,-0.0274 0.114948,-0.0204 0.176542,-0.0204 0.01276,0 0.02854,0.003 0.04074,0 0.02571,-0.006 0.09942,-0.0211 0.12901,-0.0136 0.0097,0.002 0.0682,0.0388 0.07469,0.0475 0.03126,0.0417 -0.01329,-0.0127 0.0066,0.0271 0.0075,0.0157 0.02635,0.0256 0.03396,0.0408 0.0054,0.009 0.0099,0.0223 0.01359,0.034 7.3e-4,0.002 -0.0014,0.005 0,0.006 0.0038,0.003 0.01082,0.002 0.01359,0.006 0.0099,0.0148 -0.0102,0.0118 0.0066,0.0205 0.006,0.003 0.01377,-10e-4 0.02036,0 0.03061,0.007 0.05873,0.024 0.08827,0.034 0.01072,0.003 0.03159,-0.005 0.04074,0 0.0125,0.007 0.02054,0.0272 0.03396,0.034 0.04492,0.0224 -0.007,-0.0166 0.04753,0.0272 0.01072,0.007 0.01417,0.0296 0.02715,0.034 0.0044,10e-4 0.0095,-0.001 0.01359,0 0.0033,9.9e-4 0.004,0.005 0.0066,0.006 0.0305,0.009 0.09342,-0.002 0.11543,0.006 0.0059,0.002 0.0082,0.009 0.01359,0.0134 0.006,0.004 0.02934,-0.002 0.03396,0 0.01051,0.005 0.006,0.0203 0.02714,0.0271 0.006,0.002 0.01425,-0.002 0.02036,0 0.01212,0.004 0.05367,0.0266 0.06111,0.0339 0.01082,0.009 0.03715,0.0467 0.04074,0.0612 0.0033,0.012 0.0043,0.13958 0,0.15617 -0.0038,0.0142 -0.01152,0.0331 -0.01359,0.0475 -0.0011,0.008 0.0036,0.0187 0,0.0271 -0.0016,0.004 -0.01082,0.002 -0.01359,0.006 -0.0022,0.003 0.0012,0.008 0,0.0136 -10e-4,0.003 -0.0054,0.003 -0.0066,0.006 -0.01082,0.0216 0.0074,0.0583 0,0.0814 -0.0023,0.007 -0.01655,0.0125 -0.02036,0.0205 -0.0035,0.006 -0.0014,0.0503 0,0.0543 0.0021,0.005 0.01072,0.007 0.01359,0.0134 0.0018,0.004 -0.0012,0.008 0,0.0137 0.0037,0.009 0.0143,0.0178 0.02036,0.0271 0.0011,0.002 -0.0014,0.005 0,0.006 0.0014,0.001 0.0052,-0.001 0.0066,0 0.0038,0.003 0.0035,0.009 0.0066,0.0135 0.0057,0.005 0.01461,0.007 0.02036,0.0136 0.0014,10e-4 -10e-4,0.004 0,0.006 0.0073,0.0153 0.02571,0.0243 0.03396,0.0407 0.02138,0.0426 0.01359,0.11474 0.01359,0.16297 0,0.006 -0.0019,0.0274 0,0.034 0.01138,0.0342 0.130014,-0.001 0.162961,0.006 0.0034,8.1e-4 0.0041,0.005 0.0066,0.006 0.07295,0.0366 -0.03472,-0.03 0.03394,0.0271 0.0075,0.006 0.01926,0.006 0.02715,0.0133 0.02566,0.0207 -0.01704,0.007 0.02036,0.0271 0.0042,0.002 0.0097,-0.002 0.01359,0 0.0018,0.001 -10e-4,0.004 0,0.006 0.0039,0.006 0.0075,0.0147 0.01359,0.0204 0.01222,0.012 0.03487,0.023 0.04074,0.0407 0.0094,0.0276 -0.0021,0.0523 -0.01359,0.0747 -10e-4,0.002 0.0014,0.005 0,0.006 -0.0014,0.001 -0.0057,-0.002 -0.0066,0 -0.0073,0.0152 0,0.0496 0,0.0679 0,0.008 -0.0046,0.0407 0,0.0475 0.0038,0.005 0.0101,0.007 0.01359,0.0135 0.0086,0.0126 0.0065,0.0361 0.02036,0.0543 0.0094,0.0121 0.03616,0.04 0.04753,0.0476 0.0059,0.003 0.01442,0.002 0.02036,0.006 0.0016,0.001 -7.29e-4,0.004 0,0.006 0.0014,0.004 0.0052,0.008 0.0066,0.0135 0.0063,0.0194 0,0.0537 0,0.0747 0,0.004 0.0022,0.009 0,0.0134 -0.0024,0.004 -0.01137,0.002 -0.01359,0.006 -0.0048,0.008 -0.0013,0.0528 0.0066,0.0612 0.0049,0.004 0.01379,-0.001 0.02038,0 0.01603,0.003 0.03067,0.009 0.04754,0.0136 0.02793,0.005 0.07766,-0.008 0.101857,0 0.0059,0.002 0.0078,0.009 0.01359,0.0136 0.0049,0.0208 0.01881,0.002 0.02715,0.006 0.01784,0.008 0.03212,0.0184 0.04753,0.0339 0.0038,0.003 0.0035,0.009 0.0066,0.0137 0.0014,10e-4 0.0052,-0.001 0.0066,0 0.03352,0.0335 0.02979,0.10549 0.04074,0.14937 0.0044,0.0169 -0.0037,0.037 0,0.0543 0.0021,0.0118 0.01072,0.0221 0.01359,0.034 0.0034,0.0123 -0.0042,0.0285 0,0.0408 0.0056,0.0169 0.03243,0.0633 0.04753,0.0747 0.01518,0.0114 0.05337,0.0254 0.0611,0.0408 0.01226,0.0244 0.0134,0.0829 0.05432,0.0747 0.01595,-0.003 0.04297,-0.0159 0.05432,-0.0272 0.0014,-0.001 -0.0018,-0.005 0,-0.006 0.0084,-0.004 0.01925,-0.002 0.02715,-0.006 0.06789,-0.0424 0.0086,-0.015 0.03396,-0.034 0.0064,-0.004 0.01618,-0.006 0.02036,-0.0133 0.0037,-0.005 0,-0.0136 0,-0.0205 0,-0.0489 -0.0143,-0.14222 0.04074,-0.16975 0.0061,-0.003 0.02707,0.001 0.03395,0 0.05806,-0.008 0.117368,-0.006 0.176541,-0.006 0.01768,0 0.0438,0.004 0.06112,0 0.02645,-0.006 0.04134,-0.0318 0.06111,-0.0475 0.02302,-0.0183 0.04593,-0.0289 0.06111,-0.0544 0.01051,-0.0173 0.0075,-0.0309 0.02036,-0.0475 0.01276,-0.0169 0.0363,-0.0239 0.04753,-0.0408 0.0067,-0.009 0.0065,-0.0213 0.02037,-0.0272 0.02032,-0.008 0.06503,-0.0116 0.0747,-0.0408 0.0037,-0.009 0,-0.0298 0,-0.0407 0,-0.0356 0.0076,-0.15947 0,-0.18333 -0.0043,-0.0123 -0.01619,-0.0215 -0.02036,-0.0339 -0.0012,-0.004 0.001,-0.008 0,-0.0134 -0.0068,-0.0279 -0.0345,-0.0885 -0.06111,-0.1019 -0.01138,-0.005 -0.05689,-0.0322 -0.06111,-0.034 -0.0093,-0.003 -0.145837,-0.0155 -0.162962,-0.006 -0.01726,0.008 0.0068,0.007 -0.02036,0.0135 -0.0086,0.001 -0.12411,0.0219 -0.129012,0.0205 -0.0074,-0.004 -0.02352,-0.0168 -0.03396,-0.0205 -0.0091,-0.003 -0.01938,-0.001 -0.02714,-0.006 -0.0066,-0.004 -0.0075,-0.0148 -0.01359,-0.0205 -0.0098,-0.008 -0.03023,-0.0152 -0.04074,-0.0205 -0.05679,-0.0283 -0.07216,-0.13485 -0.06111,-0.19013 0.0043,-0.0206 0.01385,-0.0208 0.02715,-0.034 0.01236,-0.0122 0.02243,-0.029 0.03395,-0.0408 0.0048,-0.004 0.07585,-0.006 0.0815,-0.006 0.05577,0 0.108949,0.004 0.162961,0.0136 0.03418,0.005 0.07362,0 0.10864,0 0.05884,0 0.117693,0 0.176541,0 0.01764,0 0.05299,-0.006 0.06791,0 0.0057,0.002 0.01156,0.007 0.01359,0.0136 0.0027,0.008 0.0037,0.088 0,0.1019 -0.0033,0.012 -0.01687,0.0268 -0.02037,0.0408 -0.0053,0.0213 0,0.0526 0,0.0747 0,0.005 -0.0036,0.0306 0,0.034 0.03166,0.0318 0.0078,0.004 0.03396,0.0137 0.03651,0.012 0.0544,0.0391 0.101847,0.0272 0.01104,-0.002 0.01137,-0.0205 0.02036,-0.0272 0.0039,-0.002 0.0097,0.002 0.01359,0 0.02488,-0.0122 0.05933,-0.0559 0.06789,-0.0814 0.0012,-0.004 -0.0018,-0.008 0,-0.0134 0.001,-0.002 0.0052,0.001 0.0066,0 0.0069,-0.006 0.01115,-0.0172 0.01359,-0.0272 0.0054,-0.0215 0.0036,-0.10189 0,-0.12222 -5.16e-4,-0.003 -0.0048,-0.004 -0.0066,-0.006 -0.0095,-0.0114 -0.01912,-0.0219 -0.02715,-0.034 -0.0198,-0.0298 -0.02769,-0.0693 -0.04074,-0.1019 -0.01969,-0.0493 4.57e-4,0.002 -0.0066,-0.034 -0.004,-0.0191 -0.01433,-0.0362 -0.02036,-0.0543 -0.0071,-0.0219 -0.0058,-0.0449 -0.01359,-0.0679 -0.01405,-0.0422 5.45e-4,0.0224 -0.01359,-0.034 -0.0046,-0.018 0.01359,0.008 0,-0.0271 -0.0047,-0.0122 -0.01517,-0.0218 -0.02036,-0.0339 -0.0019,-0.004 -0.0119,-0.0513 -0.01359,-0.0543 -0.007,-0.0124 -0.02014,-0.0213 -0.02715,-0.034 -0.01488,-0.0268 -0.02182,-0.082 -0.03396,-0.11542 -0.0065,-0.0181 -0.01236,-0.0367 -0.02036,-0.0543 -0.0036,-0.006 -0.01104,-0.0124 -0.01359,-0.0205 -0.01229,-0.0369 -0.01597,-0.0783 -0.02715,-0.11543 -0.0025,-0.008 -0.01082,-0.0173 -0.01359,-0.0272 -0.0016,-0.006 0.0019,-0.0138 0,-0.0205 -0.0049,-0.0145 -0.0142,-0.0269 -0.02036,-0.0408 -0.0075,-0.0175 -0.01506,-0.0357 -0.02036,-0.0544 -0.0011,-0.004 0.0014,-0.008 0,-0.0136 -0.0053,-0.0144 -0.01439,-0.0268 -0.02036,-0.0408 -0.0047,-0.009 -0.0039,-0.0228 -0.0066,-0.034 -0.0066,-0.0238 -0.02001,-0.044 -0.02715,-0.0679 -0.01431,-0.0476 0.0029,-0.0214 -0.02036,-0.0679 -0.03676,-0.0735 -0.07506,-0.14851 -0.108641,-0.22405 -0.0075,-0.0175 -0.01104,-0.0374 -0.02036,-0.0543 -0.0021,-0.004 -0.0093,-0.004 -0.01359,-0.006 -0.0093,-0.0134 -0.02025,-0.0261 -0.02715,-0.0408 -0.02212,-0.0473 -0.03259,-0.10149 -0.0543,-0.14938 -0.01661,-0.0365 -0.03928,-0.071 -0.05432,-0.10865 -0.008,-0.0205 -0.02027,-0.0405 -0.02715,-0.0612 -0.0033,-0.008 -0.0019,-0.0191 -0.0066,-0.0271 -0.0048,-0.007 -0.01422,-0.0127 -0.02036,-0.0205 -0.0417,-0.0501 -0.08068,-0.10404 -0.115431,-0.15618 -0.02767,-0.0416 0.0021,0.0182 -0.03394,-0.0272 -0.01082,-0.0134 -0.0099,-0.0339 -0.02037,-0.0475 -0.01,-0.0124 -0.02506,-0.0208 -0.03396,-0.034 -0.0052,-0.007 -6.37e-4,-0.0203 -0.0066,-0.0271 -0.02399,-0.0274 -0.04375,-0.0184 -0.06111,-0.0476 -0.002,-0.003 0.0021,-0.008 0,-0.0137 -0.0096,-0.0152 -0.0231,-0.0268 -0.03396,-0.0407 -0.02328,-0.0299 -0.03934,-0.0646 -0.06111,-0.0952 -0.01662,-0.0231 -0.03284,-0.0279 -0.04753,-0.0543 -0.01,-0.0176 -0.03361,-0.0744 -0.04753,-0.0882 -0.01234,-0.0122 -0.03047,-0.0184 -0.04074,-0.0339 -0.0076,-0.0118 -0.02099,-0.0283 -0.02715,-0.0408 -0.0035,-0.006 -0.0034,-0.0143 -0.0066,-0.0205 -0.01225,-0.0206 -0.03442,-0.0347 -0.04753,-0.0543 -0.0042,-0.005 -0.0034,-0.0144 -0.0066,-0.0204 -0.0133,-0.0221 -0.03804,-0.0416 -0.0543,-0.0612 -0.0035,-0.003 -0.0031,-0.009 -0.0066,-0.0137 -0.0102,-0.007 -0.02402,-0.0116 -0.03396,-0.0204 -0.02267,-0.0201 -0.03151,-0.0506 -0.04753,-0.0747 -0.02104,-0.0317 -0.0536,-0.0566 -0.07469,-0.0883 -0.0011,-0.002 0.0014,-0.005 0,-0.006 -0.0038,-0.003 -0.01051,-0.002 -0.01359,-0.006 -0.0062,-0.007 -0.0074,-0.019 -0.01359,-0.0271 -0.01733,-0.0243 -0.04328,-0.0442 -0.06112,-0.0679 -0.006,-0.007 -0.0076,-0.0185 -0.01359,-0.0271 0.0058,-0.0316 -0.0146,-0.007 -0.02036,-0.0133 -0.0038,-0.003 -0.004,-0.008 -0.0066,-0.0136 -0.01126,-0.0152 -0.02866,-0.0218 -0.04074,-0.034 -0.0057,-0.005 -0.0093,-0.0136 -0.01359,-0.0205 -0.0066,-0.004 -0.01412,-0.007 -0.02036,-0.0135 -0.0202,-0.0168 -0.04546,-0.0482 -0.06791,-0.0612 -0.0268,-0.0154 -0.05304,-0.022 -0.0815,-0.034 -0.03038,-0.0124 -0.06513,-0.0356 -0.09506,-0.0475 -0.0062,-0.002 -0.01558,0.004 -0.02036,0 -0.01603,-0.0161 0.03787,0.003 -0.01359,-0.0136 -0.01538,-0.004 -0.139074,-0.0155 -0.156172,-0.006 -0.01254,0.005 -0.02822,0.0142 -0.04074,0.0205 -0.02798,0.0143 -0.06142,0.0423 -0.06791,0.0747 -0.0061,0.0311 0.01388,-0.007 -0.0066,0.0408 -0.0059,0.0142 -0.02643,0.0418 -0.04074,0.0475 -0.0088,0.003 -0.01916,0.002 -0.02715,0.006 -0.0045,0.002 -0.0035,0.009 -0.0066,0.0136 -0.01082,0.009 -0.05622,0.0242 -0.0679,0.006 -0.0276,-0.0414 -0.01359,-0.17671 -0.01359,-0.23087 0,-0.007 0.0054,-0.0422 0,-0.0475 -0.06101,-0.0611 -0.130656,-0.0549 -0.210492,-0.0747 -0.01115,-0.002 -0.02364,-0.001 -0.03395,-0.006 -0.0082,-0.004 -0.09608,-0.0699 -0.101858,-0.0814 -0.01207,-0.0241 0.05287,0.0277 -0.02036,-0.0271 -0.0016,-0.001 -0.0052,0.001 -0.0066,0 -0.0014,-0.001 0,-0.004 0,-0.006 -0.0046,-0.006 -0.0066,-0.0159 -0.01359,-0.0205 -0.002,-0.001 -0.05188,-0.0114 -0.06111,-0.0136 -0.02145,-0.005 -0.165732,-0.004 -0.190123,0 -0.0253,0.004 -0.04086,0.0165 -0.06791,0.0204 -0.01772,0.002 -0.04538,0.001 -0.06111,0.006 -0.0074,0.002 -0.01308,0.009 -0.02036,0.0136 -0.016,0.007 -0.02613,0.004 -0.04074,0.0137 -0.01384,0.008 -0.02613,0.02 -0.04074,0.0271 -0.0092,0.004 -0.02493,0.002 -0.03396,0.006 -0.0057,0.002 -0.0078,0.009 -0.01359,0.0136 -0.014,0.007 -0.02741,0.009 -0.04074,0.0205 -0.0074,0.005 -0.01179,0.0161 -0.02036,0.0204 -0.01673,0.007 0.006,-0.0199 -0.02036,0.006 -0.0014,0.001 0.0011,0.004 0,0.006 -0.0043,0.005 -0.03007,0.0369 -0.03394,0.0408 -0.02504,0.025 -0.0024,-0.0163 -0.02715,0.0205 -0.0022,0.003 0.0035,0.009 0,0.0134 -0.0014,0.001 -0.0052,-0.001 -0.0066,0 -0.01888,0.0189 -3.04e-4,0.0963 -0.0066,0.12224 -0.008,0.0327 -0.0035,-3.4e-4 -0.01359,0.0204 -0.0046,0.008 0.0062,0.0139 -0.0066,0.0205 -0.0065,0.003 -0.01319,0.009 -0.02037,0.0134 -0.04013,0.0203 -0.09473,0.006 -0.135804,0.0205 -0.0098,0.003 -0.0099,0.009 -0.01359,0.0135 -0.0025,0.002 -0.01625,0.004 -0.02036,0.006 -0.02824,0.0143 0.007,-4.7e-4 -0.0066,0.0137 -0.0038,0.003 -0.0101,0.003 -0.01359,0.006 -0.0048,0.004 0,0.0485 0,0.0544 0,0.0293 0.01811,0.0475 0.02715,0.0747 0.0074,0.023 0,0.12863 0,0.15618 0,0.009 -0.0054,0.0607 -0.0066,0.0611 -0.03217,0.009 -0.152366,-0.0119 -0.176541,0 -0.0025,10e-4 -0.004,0.005 -0.0066,0.006 -0.03396,0.0114 -0.0611,0.006 -0.0611,0.0543 0,0.0159 -0.01126,0.0363 0,0.0475 0.01945,0.0194 0.05782,0.0169 0.0815,0.0205 0.02254,0.003 0.04528,0.0159 0.0679,0.0204 0.02913,0.005 0.06487,0 0.09508,0 0.0205,0 0.04934,0.006 0.06789,0.0135 0.0098,0.003 0.01734,0.0114 0.02715,0.0135 0.01429,0.003 0.139305,0.0117 0.149381,0.006 0.0103,-0.004 0.03251,-0.0188 0.04074,-0.0272 0.0014,-0.001 -0.0014,-0.005 0,-0.006 0.0056,-0.005 0.02148,-0.007 0.02715,-0.0137 0.05006,-0.0751 -0.0146,0.0148 0.02715,-0.0271 0.0014,-0.001 0,-0.004 0,-0.006 0.0046,-0.004 0.0082,-0.009 0.01359,-0.0135 0.0016,-10e-4 0.0057,0.002 0.0066,0 0.0018,-0.004 -8.81e-4,-0.008 0,-0.0137 0.0012,-0.006 0.0054,-0.0133 0.0066,-0.0205 0.0037,-0.0173 -0.0037,-0.0369 0,-0.0543 10e-4,-0.004 0.0046,-0.008 0.0066,-0.0135 0.002,-0.008 0.0056,-0.0178 0.0066,-0.0271 0.0031,-0.0229 -1.06e-4,-0.0336 0.0066,-0.0543 0.0068,-0.021 0.01104,-0.0123 0.02715,-0.0339 0.0058,-0.007 0.01061,-0.0334 0.02037,-0.0407 0.0057,-0.004 0.01423,-0.003 0.02036,-0.006 0.01155,-0.006 0.02247,-0.0197 0.03395,-0.0271 0.0059,-0.003 0.01531,-0.002 0.02036,-0.006 0.0078,-0.007 0.01154,-0.0202 0.02036,-0.0271 0.0038,-0.002 0.0101,0.002 0.01359,0 0.0064,-0.004 0.0075,-0.0148 0.01359,-0.0205 0.02084,-0.0209 0.07122,-0.0331 0.09506,-0.0475 0.0017,-0.001 -0.0016,-0.005 0,-0.006 0.0068,-0.0183 0.02435,-4e-4 0.03396,-0.006 0.01072,-0.006 0.01674,-0.0198 0.02715,-0.0271 0.01483,-0.009 0.04517,-0.006 0.06111,-0.006 0.01618,0 0.04894,-0.001 0.05431,0.0205 0.006,0.0246 0.0017,0.11239 -0.0066,0.1358 -0.0031,0.007 -0.01,0.0129 -0.01359,0.0205 -0.0043,0.007 -0.001,0.0199 -0.0066,0.0272 -0.0054,0.006 -0.02854,0.023 -0.03396,0.034 -0.0018,0.004 0.0018,0.008 0,0.0135 -0.0058,0.0117 -0.01104,0.0246 -0.02036,0.034 -0.0038,0.003 -0.01051,0.002 -0.01359,0.006 -0.01188,0.015 -0.01722,0.0377 -0.02715,0.0543 -0.0046,0.006 -0.0093,0.0137 -0.01359,0.0205 -0.002,0 -0.0055,-0.002 -0.0066,0 -0.0075,0.0117 -0.01252,0.0357 -0.02036,0.0475 -0.0082,0.0123 -0.02722,0.0207 -0.03396,0.034 -0.0036,0.006 -0.0037,0.0207 -0.0066,0.0271 -0.0041,0.007 -0.0101,0.004 -0.0066,0.0136 0.0044,0.0124 0.04584,0.0449 0.04074,0.0475 -0.0042,0.002 -0.0096,-0.001 -0.01359,0 -0.0073,0.003 -0.01262,0.0114 -0.02036,0.0134 -0.01204,0.004 -0.05463,0.004 -0.06791,0 -0.0097,-0.003 -0.02112,-0.0114 -0.03395,-0.006 -0.04316,0.0146 -0.07323,0.0607 -0.0815,0.1019 -0.0034,0.0154 0.0022,0.0322 0,0.0475 -0.0051,0.0307 -0.01413,0.047 -0.03396,0.0747 -0.0063,0.008 -0.136833,0.0369 -0.156171,0.0271 -0.0057,-0.002 -0.0093,-0.008 -0.01359,-0.0137"
         id="path11012-6" /><path
         style="fill:url(#radialGradient12150);fill-opacity:1;stroke-width:3.19794"
         d="m 52.684991,129.85233 c -0.02263,-0.0205 -0.04818,-0.0379 -0.06791,-0.0612 -0.01072,-0.0124 -0.06136,-0.0827 -0.0679,-0.11542 -0.0041,-0.0199 0.0061,-0.1636 0,-0.16974 -0.0057,-0.005 -0.01308,-0.009 -0.02036,-0.0136 -0.01817,-0.008 -0.100592,0.003 -0.115431,0.0136 -0.0016,0.001 0.0019,0.005 0,0.006 -0.01307,0.004 -0.0271,0.004 -0.04074,0.006 -0.002,3.2e-4 -0.0052,-0.001 -0.0066,0 -0.0038,0.003 -0.0035,0.009 -0.0066,0.0135 -0.0038,0.003 -0.0101,0.003 -0.01359,0.006 -0.02512,0.0253 -0.02187,0.0701 -0.02715,0.1019 -0.0061,0.0371 -0.01359,0.0639 -0.01359,0.1019 0,0.0255 0.0076,0.0646 0,0.0882 -0.0067,0.0209 -0.01255,0.0123 -0.02036,0.0204 -0.0095,0.008 -0.0099,0.0262 -0.02036,0.0339 -0.01475,0.0114 -0.0406,0.006 -0.05432,0.0205 -0.0038,0.003 -0.0035,0.009 -0.0066,0.0136 -0.01061,0.009 -0.02642,0.0188 -0.03394,0.0339 -0.0018,0.004 0.0022,0.009 0,0.0136 -0.0024,0.004 -0.01082,0.002 -0.01359,0.006 -0.0046,0.006 0.002,0.0136 0,0.0205 -0.0057,0.017 -0.02174,0.0313 -0.02715,0.0475 -0.0019,0.006 0.0019,0.014 0,0.0205 -0.0022,0.007 -0.01,0.0129 -0.01359,0.0205 -0.0053,0.009 0,0.0431 0,0.0543 0,0.004 -0.0038,0.009 0,0.0136 0.02833,0.0226 0.0759,0.0135 0.108642,0.0135 0.0417,0 0.13422,0.007 0.17654,0 0.04375,-0.008 0.07868,-0.0434 0.122222,-0.0543 0.02103,-0.005 0.118477,0.002 0.135802,0.006 0.0061,0.001 0.0072,0.0115 0.01359,0.0136 0.0044,0.001 0.0099,-0.002 0.01359,0 0.0044,0.002 0.0035,0.009 0.0066,0.0134 0.0048,0.004 0.09918,0.006 0.115432,0.006 0.01424,0 0.05654,0.007 0.06791,0 0.02817,-0.0188 0.02036,-0.0526 0.02036,-0.0815 0,-0.0332 0.01,-0.11081 -0.0066,-0.13581 -0.0089,-0.0127 -0.02969,-0.032 -0.04074,-0.0408 -0.0056,-0.004 -0.01532,-0.002 -0.02036,-0.006 -0.02616,-0.0263 0.02542,-0.002 -0.02714,-0.0339 -0.0103,-0.005 -0.09957,0 -0.115432,0 z"
         id="path11014-7" /><path
         style="fill:url(#radialGradient12152);fill-opacity:1;stroke-width:3.19794"
         d="m 55.604667,135.45379 c 0.129722,0.0846 0.115483,0.0739 0.115483,0.18369 0,0.0814 0,0.16296 0,0.24443 0,0.0114 -0.0078,0.0261 0,0.034 0.0014,0.001 0.0046,0 0.0066,0 0.0046,0.004 0.0099,0.007 0.01359,0.0133 0.0033,0.004 0.002,0.0114 0.0066,0.0137 0.006,0.003 0.01359,0 0.02036,0 0.01359,0 0.02714,0 0.04074,0 0.0059,0 0.0291,0.003 0.03396,0 0.0074,-0.005 0.0146,-0.0124 0.02036,-0.0204 0.0037,-0.004 0,-0.0374 0,-0.0408 0,-0.0144 0.0075,-0.0569 0,-0.0678 -0.02435,-0.0341 -0.04773,-0.0422 -0.0543,-0.0882 -0.0057,-0.0402 -0.0066,-0.0813 -0.0066,-0.12222 0,-0.0241 0.0073,-0.0656 0,-0.0883 -0.0019,-0.006 -0.01359,0 -0.02037,0 -0.02037,0 -0.04074,0 -0.06112,0 -0.0068,0 -0.0096,-10e-4 -0.01359,0.006 -0.001,0.002 0.0016,0.007 0,0.006 -0.03504,-0.0232 -0.06793,-0.05 -0.101908,-0.075"
         id="path11018-0" /></g></g></svg>
