<?xml version="1.0" encoding="UTF-8" standalone="no"?>
<!-- Created with Inkscape (http://www.inkscape.org/) -->

<svg
   width="3.2950001mm"
   height="3.0179999mm"
   viewBox="0 0 3.2949999 3.0179998"
   version="1.1"
   id="svg1"
   xml:space="preserve"
   inkscape:version="1.4 (86a8ad7, 2024-10-11)"
   sodipodi:docname="format-text-italic.svg"
   xmlns:inkscape="http://www.inkscape.org/namespaces/inkscape"
   xmlns:sodipodi="http://sodipodi.sourceforge.net/DTD/sodipodi-0.dtd"
   xmlns:xlink="http://www.w3.org/1999/xlink"
   xmlns="http://www.w3.org/2000/svg"
   xmlns:svg="http://www.w3.org/2000/svg"><sodipodi:namedview
     id="namedview1"
     pagecolor="#ffffff"
     bordercolor="#000000"
     borderopacity="0.25"
     inkscape:showpageshadow="2"
     inkscape:pageopacity="0.0"
     inkscape:pagecheckerboard="0"
     inkscape:deskcolor="#d1d1d1"
     inkscape:document-units="mm"
     inkscape:zoom="8.0000004"
     inkscape:cx="4.5624998"
     inkscape:cy="7.2499997"
     inkscape:window-width="1147"
     inkscape:window-height="1000"
     inkscape:window-x="436"
     inkscape:window-y="0"
     inkscape:window-maximized="0"
     inkscape:current-layer="layer1"
     showguides="true" /><defs
     id="defs1"><linearGradient
       id="linearGradient2"
       inkscape:collect="always"><stop
         style="stop-color:#ffffff;stop-opacity:0.51692307;"
         offset="0"
         id="stop1" /><stop
         style="stop-color:#ffffff;stop-opacity:0;"
         offset="1"
         id="stop2" /></linearGradient><linearGradient
       id="linearGradient22"
       inkscape:collect="always"><stop
         style="stop-color:#ffffff;stop-opacity:0.51384616;"
         offset="0"
         id="stop21" /><stop
         style="stop-color:#ffffff;stop-opacity:0;"
         offset="1"
         id="stop22" /></linearGradient><linearGradient
       id="linearGradient7"
       inkscape:collect="always"><stop
         style="stop-color:#424242;stop-opacity:1;"
         offset="0.08695652"
         id="stop7" /><stop
         style="stop-color:#424242;stop-opacity:0;"
         offset="1"
         id="stop8" /></linearGradient><linearGradient
       id="linearGradient5"
       inkscape:collect="always"><stop
         style="stop-color:#414141;stop-opacity:1;"
         offset="0"
         id="stop5" /><stop
         style="stop-color:#414141;stop-opacity:0;"
         offset="1"
         id="stop6" /></linearGradient><rect
       x="114.75573"
       y="53.552673"
       width="168.3084"
       height="36.860931"
       id="rect1" /><linearGradient
       inkscape:collect="always"
       xlink:href="#linearGradient5"
       id="linearGradient6"
       x1="115.0877"
       y1="64.80674"
       x2="172.82407"
       y2="64.80674"
       gradientUnits="userSpaceOnUse" /><linearGradient
       inkscape:collect="always"
       xlink:href="#linearGradient7"
       id="linearGradient8"
       x1="115.0877"
       y1="64.80674"
       x2="172.82407"
       y2="64.80674"
       gradientUnits="userSpaceOnUse" /><radialGradient
       inkscape:collect="always"
       xlink:href="#linearGradient2"
       id="radialGradient20-1-31-9"
       cx="23.990078"
       cy="26.766087"
       fx="23.990078"
       fy="26.766087"
       r="0.90569818"
       gradientTransform="matrix(3.1002472,-2.0192723e-8,0,0.65931962,-61.381699,7.0174358)"
       gradientUnits="userSpaceOnUse" /><radialGradient
       inkscape:collect="always"
       xlink:href="#linearGradient22"
       id="radialGradient20-1-31-9-6"
       cx="23.990078"
       cy="26.766087"
       fx="23.990078"
       fy="26.766087"
       r="0.90569818"
       gradientTransform="matrix(3.1002472,-2.0192723e-8,0,0.65931962,-62.905968,9.563133)"
       gradientUnits="userSpaceOnUse" /></defs><g
     inkscape:label="Layer 1"
     inkscape:groupmode="layer"
     id="layer1"
     transform="translate(-29.202043,-15.589901)"><g
       id="g32"
       transform="translate(-4.3325521)"><path
         style="font-style:italic;font-size:16px;font-family:'Noto Sans';-inkscape-font-specification:'Noto Sans Italic';white-space:pre;fill:#535353;stroke:#000000;stroke-width:0.07;stroke-linecap:round;stroke-linejoin:bevel;stroke-miterlimit:1"
         d="m 34.837121,18.063299 q -0.270933,0 -0.4445,-0.194733 -0.169333,-0.198967 -0.169333,-0.579967 0,-0.3175 0.08043,-0.601133 0.08467,-0.287867 0.232833,-0.503767 0.148167,-0.220133 0.351367,-0.347133 0.2032,-0.127 0.448733,-0.127 0.224367,0 0.364067,0.118533 0.1397,0.118533 0.207433,0.275167 h 0.02117 l 0.135467,-0.351367 h 0.283633 l -0.4826,2.269067 h -0.296333 l 0.05503,-0.4191 h -0.01693 q -0.143934,0.186266 -0.338667,0.325966 -0.194733,0.135467 -0.4318,0.135467 z m 0.122767,-0.309033 q 0.156633,0 0.3048,-0.1143 0.1524,-0.1143 0.275166,-0.309034 0.122767,-0.194733 0.186267,-0.436033 0.03387,-0.122767 0.04233,-0.224367 0.0127,-0.105833 0.0127,-0.194733 0,-0.198967 -0.110066,-0.325967 -0.110067,-0.127 -0.296334,-0.127 -0.1651,0 -0.3048,0.105834 -0.1397,0.1016 -0.245533,0.283633 -0.105833,0.1778 -0.1651,0.4064 -0.05503,0.2286 -0.05503,0.478367 0,0.2286 0.09313,0.3429 0.09313,0.1143 0.262467,0.1143 z"
         id="path23" /><path
         style="font-style:italic;font-size:16px;font-family:'Noto Sans';-inkscape-font-specification:'Noto Sans Italic';white-space:pre;fill:none;stroke:#a4a4a4;stroke-width:0.05;stroke-linecap:round;stroke-linejoin:bevel;stroke-miterlimit:1;stroke-dasharray:none;stroke-opacity:0.716535"
         d="m 34.858541,18.113237 q -0.270933,0 -0.4445,-0.194733 -0.169333,-0.198967 -0.169333,-0.579967 0,-0.3175 0.08043,-0.601133 0.08467,-0.287867 0.232833,-0.503767 0.148167,-0.220133 0.351367,-0.347133 0.2032,-0.127 0.448733,-0.127 0.224367,0 0.364067,0.118533 0.1397,0.118533 0.207433,0.275167 h 0.02117 l 0.135467,-0.351367 h 0.283633 l -0.4826,2.269067 h -0.296333 l 0.05503,-0.4191 h -0.01693 q -0.143934,0.186266 -0.338667,0.325966 -0.194733,0.135467 -0.4318,0.135467 z m 0.122767,-0.309033 q 0.156633,0 0.3048,-0.1143 0.1524,-0.1143 0.275166,-0.309034 0.122767,-0.194733 0.186267,-0.436033 0.03387,-0.122767 0.04233,-0.224367 0.0127,-0.105833 0.0127,-0.194733 0,-0.198967 -0.110066,-0.325967 -0.110067,-0.127 -0.296334,-0.127 -0.1651,0 -0.3048,0.105834 -0.1397,0.1016 -0.245533,0.283633 -0.105833,0.1778 -0.1651,0.4064 -0.05503,0.2286 -0.05503,0.478367 0,0.2286 0.09313,0.3429 0.09313,0.1143 0.262467,0.1143 z"
         id="path23-6" /></g><ellipse
       style="mix-blend-mode:color-dodge;fill:url(#radialGradient20-1-31-9);stroke:none;stroke-width:0.146005;stroke-linecap:round;stroke-linejoin:bevel;stroke-miterlimit:1;stroke-dasharray:none;stroke-opacity:1"
       id="path18-6-5-6"
       ry="0.5971446"
       rx="2.8078885"
       cy="24.664843"
       cx="12.993469"
       transform="matrix(0.99469492,-0.10286895,0.72374527,0.69006724,0,0)" /><ellipse
       style="mix-blend-mode:color-dodge;fill:url(#radialGradient20-1-31-9-6);stroke:none;stroke-width:0.146005;stroke-linecap:round;stroke-linejoin:bevel;stroke-miterlimit:1;stroke-dasharray:none;stroke-opacity:1"
       id="path18-6-5-6-9"
       ry="0.5971446"
       rx="2.8078885"
       cy="27.210539"
       cx="11.469201"
       transform="matrix(0.99469492,-0.10286895,0.72374527,0.69006724,0,0)" /></g></svg>
