<?xml version="1.0" encoding="UTF-8" standalone="no"?>
<!-- Created with Inkscape (http://www.inkscape.org/) -->

<svg
   width="3.2950001mm"
   height="3.0179999mm"
   viewBox="0 0 3.295 3.0179998"
   version="1.1"
   id="svg1"
   xml:space="preserve"
   inkscape:version="1.4 (86a8ad7, 2024-10-11)"
   sodipodi:docname="format-text-strikethrough.svg"
   xmlns:inkscape="http://www.inkscape.org/namespaces/inkscape"
   xmlns:sodipodi="http://sodipodi.sourceforge.net/DTD/sodipodi-0.dtd"
   xmlns:xlink="http://www.w3.org/1999/xlink"
   xmlns="http://www.w3.org/2000/svg"
   xmlns:svg="http://www.w3.org/2000/svg"><sodipodi:namedview
     id="namedview1"
     pagecolor="#ffffff"
     bordercolor="#000000"
     borderopacity="0.25"
     inkscape:showpageshadow="2"
     inkscape:pageopacity="0.0"
     inkscape:pagecheckerboard="0"
     inkscape:deskcolor="#d1d1d1"
     inkscape:document-units="mm"
     inkscape:zoom="5.6568543"
     inkscape:cx="7.6013979"
     inkscape:cy="-32.350135"
     inkscape:window-width="1147"
     inkscape:window-height="1000"
     inkscape:window-x="436"
     inkscape:window-y="0"
     inkscape:window-maximized="0"
     inkscape:current-layer="layer1"
     showguides="true" /><defs
     id="defs1"><linearGradient
       id="linearGradient39"
       inkscape:collect="always"><stop
         style="stop-color:#ffffff;stop-opacity:0.51373625;"
         offset="0"
         id="stop38" /><stop
         style="stop-color:#ffffff;stop-opacity:0;"
         offset="1"
         id="stop39" /></linearGradient><linearGradient
       id="linearGradient37"
       inkscape:collect="always"><stop
         style="stop-color:#ffffff;stop-opacity:0.5;"
         offset="0"
         id="stop36" /><stop
         style="stop-color:#ffffff;stop-opacity:0;"
         offset="1"
         id="stop37" /></linearGradient><linearGradient
       id="linearGradient7"
       inkscape:collect="always"><stop
         style="stop-color:#424242;stop-opacity:1;"
         offset="0.08695652"
         id="stop7" /><stop
         style="stop-color:#424242;stop-opacity:0;"
         offset="1"
         id="stop8" /></linearGradient><linearGradient
       id="linearGradient5"
       inkscape:collect="always"><stop
         style="stop-color:#414141;stop-opacity:1;"
         offset="0"
         id="stop5" /><stop
         style="stop-color:#414141;stop-opacity:0;"
         offset="1"
         id="stop6" /></linearGradient><rect
       x="114.75573"
       y="53.552673"
       width="168.3084"
       height="36.860931"
       id="rect1" /><linearGradient
       inkscape:collect="always"
       xlink:href="#linearGradient5"
       id="linearGradient6"
       x1="115.0877"
       y1="64.80674"
       x2="172.82407"
       y2="64.80674"
       gradientUnits="userSpaceOnUse" /><linearGradient
       inkscape:collect="always"
       xlink:href="#linearGradient7"
       id="linearGradient8"
       x1="115.0877"
       y1="64.80674"
       x2="172.82407"
       y2="64.80674"
       gradientUnits="userSpaceOnUse" /><radialGradient
       inkscape:collect="always"
       xlink:href="#linearGradient39"
       id="radialGradient20-1-31-9-6-7"
       cx="23.990078"
       cy="26.766087"
       fx="23.990078"
       fy="26.766087"
       r="0.90569818"
       gradientTransform="matrix(3.1002472,-2.0192723e-8,0,0.65931962,-61.32691,6.9498075)"
       gradientUnits="userSpaceOnUse" /><radialGradient
       inkscape:collect="always"
       xlink:href="#linearGradient37"
       id="radialGradient20-1-31-9-6-7-5"
       cx="23.990078"
       cy="26.766087"
       fx="23.990078"
       fy="26.766087"
       r="0.90569818"
       gradientTransform="matrix(3.1002472,-2.0192723e-8,0,0.65931962,-62.990005,9.7708903)"
       gradientUnits="userSpaceOnUse" /></defs><g
     inkscape:label="Layer 1"
     inkscape:groupmode="layer"
     id="layer1"
     transform="translate(-29.202043,-15.589901)"><path
       d="m 30.913489,15.713799 q 0.414866,0 0.613833,0.182033 0.198967,0.182034 0.198967,0.579967 v 1.545167 h -0.270934 l -0.07197,-0.321734 h -0.01693 q -0.148166,0.186267 -0.313266,0.275167 -0.160867,0.0889 -0.448734,0.0889 -0.309033,0 -0.512233,-0.160867 -0.2032,-0.1651 -0.2032,-0.512233 0,-0.338667 0.2667,-0.5207 0.2667,-0.186267 0.821267,-0.2032 l 0.385233,-0.0127 v -0.135467 q 0,-0.283633 -0.122767,-0.3937 -0.122766,-0.110066 -0.347133,-0.110066 -0.1778,0 -0.338667,0.05503 -0.160866,0.0508 -0.300566,0.118533 l -0.1143,-0.2794 q 0.148166,-0.08043 0.351366,-0.135466 0.2032,-0.05927 0.423334,-0.05927 z m 0.110066,1.210733 q -0.423333,0.01693 -0.588433,0.135467 -0.160867,0.118533 -0.160867,0.334433 0,0.1905 0.1143,0.2794 0.118534,0.0889 0.300567,0.0889 0.287867,0 0.478367,-0.156633 0.1905,-0.160867 0.1905,-0.491067 v -0.2032 z m -1.739897,0.118532 v -0.300566 h 3.048 v 0.300566 z"
       id="path24"
       style="font-size:16px;font-family:'Noto Sans';-inkscape-font-specification:'Noto Sans';white-space:pre;fill:#535353;stroke:#000000;stroke-width:0.07;stroke-linecap:round;stroke-linejoin:bevel;stroke-miterlimit:1" /><g
       id="g33"
       transform="translate(-7.8310039)"><path
         d="m 38.781506,15.741912 c 0.276578,0 0.481189,0.06068 0.613834,0.182033 0.132644,0.121356 0.198966,0.314678 0.198966,0.579967 v 1.545167 h -0.270933 l -0.07197,-0.321734 h -0.01693 c -0.09878,0.124178 -0.2032,0.2159 -0.313267,0.275167 -0.107244,0.05927 -0.256822,0.0889 -0.448733,0.0889 -0.206022,0 -0.376766,-0.05362 -0.512233,-0.160867 -0.135467,-0.110067 -0.2032,-0.280811 -0.2032,-0.512233 0,-0.225778 0.0889,-0.399345 0.2667,-0.5207 0.1778,-0.124178 0.451555,-0.191911 0.821266,-0.2032 l 0.385234,-0.0127 v -0.135467 c 0,-0.189089 -0.04092,-0.320322 -0.122767,-0.3937 -0.08185,-0.07338 -0.197556,-0.110066 -0.347133,-0.110066 -0.118533,0 -0.231422,0.01834 -0.338667,0.05503 -0.107245,0.03387 -0.207434,0.07338 -0.300567,0.118533 l -0.1143,-0.2794 c 0.09878,-0.05362 0.2159,-0.09877 0.351367,-0.135466 0.135467,-0.03951 0.276578,-0.05927 0.423333,-0.05927 z m 0.110067,1.210733 c -0.282222,0.01129 -0.478366,0.05644 -0.588433,0.135467 -0.107245,0.07902 -0.160867,0.1905 -0.160867,0.334433 0,0.127 0.0381,0.220133 0.1143,0.2794 0.07902,0.05927 0.179211,0.0889 0.300567,0.0889 0.191911,0 0.351366,-0.05221 0.478366,-0.156633 0.127,-0.107245 0.1905,-0.270934 0.1905,-0.491067 v -0.2032 z"
         id="path25-8-1"
         style="font-size:16px;font-family:'Noto Sans';-inkscape-font-specification:'Noto Sans';white-space:pre;fill:none;stroke:#c6c6c6;stroke-width:0.05;stroke-linecap:round;stroke-linejoin:bevel;stroke-miterlimit:1;stroke-dasharray:none;stroke-opacity:0.629921"
         sodipodi:nodetypes="ssscccccscscccsssccccssccscscscc" /></g><ellipse
       style="mix-blend-mode:color-dodge;fill:url(#radialGradient20-1-31-9-6-7);stroke:none;stroke-width:0.146005;stroke-linecap:round;stroke-linejoin:bevel;stroke-miterlimit:1;stroke-dasharray:none;stroke-opacity:1"
       id="path18-6-5-6-9-9"
       ry="0.5971446"
       rx="2.8078885"
       cy="24.597216"
       cx="13.048262"
       transform="matrix(0.99469492,-0.10286895,0.72374527,0.69006724,0,0)" /><ellipse
       style="mix-blend-mode:color-dodge;fill:url(#radialGradient20-1-31-9-6-7-5);stroke:none;stroke-width:0.146005;stroke-linecap:round;stroke-linejoin:bevel;stroke-miterlimit:1;stroke-dasharray:none;stroke-opacity:1"
       id="path18-6-5-6-9-9-0"
       ry="0.5971446"
       rx="2.8078885"
       cy="27.418299"
       cx="11.385165"
       transform="matrix(0.99469492,-0.10286895,0.72374527,0.69006724,0,0)" /><rect
       style="fill:#535353;fill-opacity:1;stroke:#000000;stroke-width:0.0533326;stroke-linecap:round;stroke-linejoin:bevel;stroke-miterlimit:1;stroke-dasharray:none;stroke-opacity:1"
       id="rect30"
       width="3.0552819"
       height="0.31649292"
       x="29.2833"
       y="16.734449" /><rect
       style="fill:none;fill-opacity:1;stroke:#bdbdbd;stroke-width:0.0595929;stroke-linecap:round;stroke-linejoin:bevel;stroke-miterlimit:1;stroke-dasharray:none;stroke-opacity:0.503937"
       id="rect29"
       width="2.9834311"
       height="0.24291587"
       x="29.322851"
       y="16.776634" /></g></svg>
