<?xml version="1.0" encoding="UTF-8" standalone="no"?>
<!-- Created with Inkscape (http://www.inkscape.org/) -->

<svg
   width="3.2950001mm"
   height="3.0179999mm"
   viewBox="0 0 3.2949999 3.0179998"
   version="1.1"
   id="svg1"
   xml:space="preserve"
   inkscape:version="1.4 (86a8ad7, 2024-10-11)"
   sodipodi:docname="format-text-bold.svg"
   xmlns:inkscape="http://www.inkscape.org/namespaces/inkscape"
   xmlns:sodipodi="http://sodipodi.sourceforge.net/DTD/sodipodi-0.dtd"
   xmlns:xlink="http://www.w3.org/1999/xlink"
   xmlns="http://www.w3.org/2000/svg"
   xmlns:svg="http://www.w3.org/2000/svg"><sodipodi:namedview
     id="namedview1"
     pagecolor="#ffffff"
     bordercolor="#000000"
     borderopacity="0.25"
     inkscape:showpageshadow="2"
     inkscape:pageopacity="0.0"
     inkscape:pagecheckerboard="0"
     inkscape:deskcolor="#d1d1d1"
     inkscape:document-units="mm"
     inkscape:zoom="7.9999996"
     inkscape:cx="5.6875002"
     inkscape:cy="-3.8750002"
     inkscape:window-width="1147"
     inkscape:window-height="1000"
     inkscape:window-x="436"
     inkscape:window-y="0"
     inkscape:window-maximized="0"
     inkscape:current-layer="layer1"
     showguides="true" /><defs
     id="defs1"><linearGradient
       id="linearGradient22"
       inkscape:collect="always"><stop
         style="stop-color:#ffffff;stop-opacity:0.39951575;"
         offset="0"
         id="stop21" /><stop
         style="stop-color:#ffffff;stop-opacity:0;"
         offset="1"
         id="stop22" /></linearGradient><linearGradient
       id="linearGradient19"
       inkscape:collect="always"><stop
         style="stop-color:#ffffff;stop-opacity:0.4953846;"
         offset="0"
         id="stop19" /><stop
         style="stop-color:#ffffff;stop-opacity:0;"
         offset="1"
         id="stop20" /></linearGradient><linearGradient
       id="linearGradient7"
       inkscape:collect="always"><stop
         style="stop-color:#424242;stop-opacity:1;"
         offset="0.08695652"
         id="stop7" /><stop
         style="stop-color:#424242;stop-opacity:0;"
         offset="1"
         id="stop8" /></linearGradient><linearGradient
       id="linearGradient5"
       inkscape:collect="always"><stop
         style="stop-color:#414141;stop-opacity:1;"
         offset="0"
         id="stop5" /><stop
         style="stop-color:#414141;stop-opacity:0;"
         offset="1"
         id="stop6" /></linearGradient><rect
       x="114.75573"
       y="53.552673"
       width="168.3084"
       height="36.860931"
       id="rect1" /><linearGradient
       inkscape:collect="always"
       xlink:href="#linearGradient5"
       id="linearGradient6"
       x1="115.0877"
       y1="64.80674"
       x2="172.82407"
       y2="64.80674"
       gradientUnits="userSpaceOnUse" /><linearGradient
       inkscape:collect="always"
       xlink:href="#linearGradient7"
       id="linearGradient8"
       x1="115.0877"
       y1="64.80674"
       x2="172.82407"
       y2="64.80674"
       gradientUnits="userSpaceOnUse" /><radialGradient
       inkscape:collect="always"
       xlink:href="#linearGradient19"
       id="radialGradient20-4-1-8"
       cx="23.990078"
       cy="26.766087"
       fx="23.990078"
       fy="26.766087"
       r="0.90569818"
       gradientTransform="matrix(3.1002472,-2.0192723e-8,0,0.65931962,-61.564983,6.8181343)"
       gradientUnits="userSpaceOnUse" /><radialGradient
       inkscape:collect="always"
       xlink:href="#linearGradient22"
       id="radialGradient20-1-31"
       cx="23.990078"
       cy="26.766087"
       fx="23.990078"
       fy="26.766087"
       r="0.90569818"
       gradientTransform="matrix(3.1063892,-2.7410827e-8,0,0.71574288,-61.000712,6.8533606)"
       gradientUnits="userSpaceOnUse" /></defs><g
     inkscape:label="Layer 1"
     inkscape:groupmode="layer"
     id="layer1"
     transform="translate(-29.202043,-15.589901)"><g
       id="g31"
       transform="translate(-1.3559895)"><path
         style="font-weight:bold;font-size:16px;font-family:'Noto Sans';-inkscape-font-specification:'Noto Sans Bold';white-space:pre;fill:#535353;stroke:#000000;stroke-width:0.07;stroke-linecap:round;stroke-linejoin:bevel;stroke-miterlimit:1"
         d="m 32.264935,15.624901 q 0.465667,0 0.7112,0.2032 0.249767,0.198966 0.249767,0.613833 v 1.540933 h -0.440267 l -0.122767,-0.313266 h -0.01693 q -0.148167,0.186266 -0.313267,0.270933 -0.1651,0.08467 -0.452966,0.08467 -0.309034,0 -0.512234,-0.1778 -0.2032,-0.182034 -0.2032,-0.554567 0,-0.3683 0.258234,-0.541867 0.258233,-0.1778 0.7747,-0.194733 l 0.402166,-0.0127 v -0.1016 q 0,-0.182033 -0.09737,-0.2667 -0.09313,-0.08467 -0.262467,-0.08467 -0.169333,0 -0.3302,0.0508 -0.160867,0.04657 -0.321733,0.118534 l -0.207434,-0.427567 q 0.186267,-0.09737 0.410634,-0.1524 0.2286,-0.05503 0.474133,-0.05503 z m 0.0889,1.2954 q -0.3048,0.0085 -0.423333,0.110066 -0.118534,0.1016 -0.118534,0.2667 0,0.143934 0.08467,0.207434 0.08467,0.05927 0.220133,0.05927 0.2032,0 0.3429,-0.118533 0.1397,-0.122767 0.1397,-0.3429 v -0.1905 z"
         id="path22" /><path
         style="font-weight:bold;font-size:16px;font-family:'Noto Sans';-inkscape-font-specification:'Noto Sans Bold';white-space:pre;fill:none;stroke:#c2c2c2;stroke-width:0.07;stroke-linecap:round;stroke-linejoin:bevel;stroke-miterlimit:1;stroke-opacity:0.519685"
         d="m 32.264214,15.670142 q 0.465667,0 0.7112,0.2032 0.249767,0.198966 0.249767,0.613833 v 1.540933 h -0.440267 l -0.122767,-0.313266 h -0.01693 q -0.148167,0.186266 -0.313267,0.270933 -0.1651,0.08467 -0.452966,0.08467 -0.309034,0 -0.512234,-0.1778 -0.2032,-0.182034 -0.2032,-0.554567 0,-0.3683 0.258234,-0.541867 0.258233,-0.1778 0.7747,-0.194733 l 0.402166,-0.0127 v -0.1016 q 0,-0.182033 -0.09737,-0.2667 -0.09313,-0.08467 -0.262467,-0.08467 -0.169333,0 -0.3302,0.0508 -0.160867,0.04657 -0.321733,0.118534 l -0.207434,-0.427567 q 0.186267,-0.09737 0.410634,-0.1524 0.2286,-0.05503 0.474133,-0.05503 z m 0.0889,1.2954 q -0.3048,0.0085 -0.423333,0.110066 -0.118534,0.1016 -0.118534,0.2667 0,0.143934 0.08467,0.207434 0.08467,0.05927 0.220133,0.05927 0.2032,0 0.3429,-0.118533 0.1397,-0.122767 0.1397,-0.3429 v -0.1905 z"
         id="path22-1" /></g><ellipse
       style="mix-blend-mode:color-dodge;fill:url(#radialGradient20-1-31);stroke:none;stroke-width:0.152275;stroke-linecap:round;stroke-linejoin:bevel;stroke-miterlimit:1;stroke-dasharray:none;stroke-opacity:1"
       id="path18-6-5"
       ry="0.64824706"
       rx="2.8134513"
       cy="26.010998"
       cx="13.521804"
       transform="matrix(0.99272819,-0.12037751,0.66669116,0.74533408,0,0)" /><ellipse
       style="mix-blend-mode:color-dodge;fill:url(#radialGradient20-4-1-8);stroke:none;stroke-width:0.146005;stroke-linecap:round;stroke-linejoin:bevel;stroke-miterlimit:1;stroke-dasharray:none;stroke-opacity:1"
       id="path18-4-1-7"
       ry="0.5971446"
       rx="2.8078885"
       cy="24.465538"
       cx="12.810184"
       transform="matrix(0.99469492,-0.10286895,0.72374527,0.69006724,0,0)" /></g></svg>
