/* XPM */
static char * noblenote_xpm[] = {
"32 32 268 2",
"  	c None",
". 	c #C7C6BF",
"+ 	c #57595A",
"@ 	c #B4B5B5",
"# 	c #A3A4A4",
"$ 	c #A1A2A1",
"% 	c #8F8F8F",
"& 	c #C3C5C3",
"* 	c #FFE155",
"= 	c #9F9D8C",
"- 	c #FCDC5C",
"; 	c #919393",
"> 	c #E6CF70",
", 	c #A09D8E",
"' 	c #D3C58C",
") 	c #A29972",
"! 	c #C1BA9F",
"~ 	c #A2996F",
"{ 	c #ABABA8",
"] 	c #928E78",
"^ 	c #9B9B98",
"/ 	c #868787",
"( 	c #616266",
"_ 	c #FEDD5B",
": 	c #FFE258",
"< 	c #FFDE5A",
"[ 	c #F7D85D",
"} 	c #FBDC60",
"| 	c #EBCF5F",
"1 	c #E7CD67",
"2 	c #EFD25C",
"3 	c #C3B475",
"4 	c #FFE15F",
"5 	c #ACA585",
"6 	c #F5D96B",
"7 	c #B0A67A",
"8 	c #D6C78A",
"9 	c #C0B072",
"0 	c #B2AD94",
"a 	c #DAC779",
"b 	c #A7A8AD",
"c 	c #DECB81",
"d 	c #FFDE5B",
"e 	c #FEDD5A",
"f 	c #FFE15C",
"g 	c #FEDE5B",
"h 	c #FFDF59",
"i 	c #FFE05A",
"j 	c #FFE059",
"k 	c #F2D45E",
"l 	c #FFE15A",
"m 	c #DDC567",
"n 	c #DEC978",
"o 	c #FFE05C",
"p 	c #F1AC40",
"q 	c #F7BF4A",
"r 	c #F9CB51",
"s 	c #FACC51",
"t 	c #FFDF5B",
"u 	c #FFDF58",
"v 	c #C2B78A",
"w 	c #FDDA59",
"x 	c #F7C14B",
"y 	c #FDD757",
"z 	c #F8C74F",
"A 	c #F5B746",
"B 	c #FACA50",
"C 	c #FFE157",
"D 	c #A3A4A5",
"E 	c #FACD52",
"F 	c #F4B645",
"G 	c #F9C84F",
"H 	c #FACE52",
"I 	c #FCD355",
"J 	c #F4D662",
"K 	c #F9C950",
"L 	c #F6BD49",
"M 	c #F6BC49",
"N 	c #FCD656",
"O 	c #F3B444",
"P 	c #F4B646",
"Q 	c #FBD154",
"R 	c #DBC672",
"S 	c #F5B847",
"T 	c #FBD054",
"U 	c #FEDA59",
"V 	c #F8C24C",
"W 	c #F9CA50",
"X 	c #FCD556",
"Y 	c #FDD657",
"Z 	c #C5B782",
"` 	c #F4B444",
" .	c #F8C34D",
"..	c #FBCE52",
"+.	c #FACB51",
"@.	c #FBD053",
"#.	c #FACD51",
"$.	c #FFE058",
"%.	c #B4AD90",
"&.	c #FEDB59",
"*.	c #F8C54E",
"=.	c #F8C54D",
"-.	c #F9C94F",
";.	c #FCD254",
">.	c #F8C64E",
",.	c #F7BF4B",
"'.	c #F3B143",
").	c #A2A3A6",
"!.	c #FDD858",
"~.	c #F4B445",
"{.	c #FEDC59",
"].	c #EFD465",
"^.	c #A9A7A2",
"/.	c #FBCD52",
"(.	c #FBD255",
"_.	c #F9C64F",
":.	c #F7C34D",
"<.	c #F6BD4A",
"[.	c #DAC574",
"}.	c #AEADA5",
"|.	c #D7A5A6",
"1.	c #E69B9B",
"2.	c #FCD455",
"3.	c #F9C64E",
"4.	c #F5BB48",
"5.	c #F4B545",
"6.	c #FDD857",
"7.	c #C7B981",
"8.	c #B6B1A0",
"9.	c #EBE8E4",
"0.	c #B8BBBB",
"a.	c #A16F6F",
"b.	c #FEDC5A",
"c.	c #F5B947",
"d.	c #F3B445",
"e.	c #F6BE4A",
"f.	c #F4B747",
"g.	c #B4AC8D",
"h.	c #F7B14F",
"i.	c #EF9629",
"j.	c #948F8B",
"k.	c #F2AE41",
"l.	c #F4B746",
"m.	c #FFDE59",
"n.	c #A8A597",
"o.	c #D9AC5A",
"p.	c #F7B04F",
"q.	c #EE972C",
"r.	c #D27013",
"s.	c #FCD255",
"t.	c #FDD556",
"u.	c #FACB50",
"v.	c #F7C34C",
"w.	c #FFDD5B",
"x.	c #F3B344",
"y.	c #EED466",
"z.	c #C1A26E",
"A.	c #F8B04D",
"B.	c #D27116",
"C.	c #F9C850",
"D.	c #F5BB49",
"E.	c #FED958",
"F.	c #FDD656",
"G.	c #E9C064",
"H.	c #F7B04E",
"I.	c #EF972B",
"J.	c #D47317",
"K.	c #F5BA47",
"L.	c #FDDB59",
"M.	c #F6BF4A",
"N.	c #EDC360",
"O.	c #F6AF4F",
"P.	c #ED972C",
"Q.	c #D47419",
"R.	c #FFDF5C",
"S.	c #F2AC40",
"T.	c #F4B847",
"U.	c #FCD154",
"V.	c #FBD254",
"W.	c #F6BC48",
"X.	c #F9C74F",
"Y.	c #FACC52",
"Z.	c #FFDA56",
"`.	c #EDC25E",
" +	c #EE982D",
".+	c #D6751B",
"++	c #FDD758",
"@+	c #F6BA48",
"#+	c #FACF53",
"$+	c #F5B744",
"%+	c #EDC55D",
"&+	c #EE982E",
"*+	c #D7761A",
"=+	c #CAAD72",
"-+	c #FCD456",
";+	c #F5BC49",
">+	c #FAC950",
",+	c #EDC35B",
"'+	c #F6AE4E",
")+	c #C2A870",
"!+	c #D6C78E",
"~+	c #EBC057",
"{+	c #F5AE4E",
"]+	c #D57319",
"^+	c #D2B263",
"/+	c #C5B783",
"(+	c #FFDF5A",
"_+	c #EABF54",
":+	c #D57218",
"<+	c #EBC04F",
"[+	c #D9C675",
"}+	c #CDBC7C",
"|+	c #E4CD6D",
"1+	c #E9D069",
"2+	c #F3D762",
"3+	c #FCDD5C",
"4+	c #ECC055",
"5+	c #D57217",
"6+	c #E8BD50",
"7+	c #FFE158",
"8+	c #CEBD7D",
"9+	c #CABA7F",
"0+	c #CFBE7C",
"a+	c #CCBC7E",
"b+	c #CDBC7E",
"c+	c #CBBC7E",
"d+	c #D8C475",
"e+	c #DEC971",
"f+	c #E5CD6C",
"g+	c #F1D564",
"h+	c #F5D861",
"i+	c #E6C662",
"j+	c #F5A944",
"k+	c #ED972E",
"l+	c #D36F15",
"m+	c #E6BA4F",
"n+	c #F8D95F",
"o+	c #D2C07A",
"p+	c #D1BF79",
"q+	c #CFBF7A",
"r+	c #CEBE7C",
"s+	c #CCBD7D",
"t+	c #CEBE7D",
"u+	c #CFBE7B",
"v+	c #CDBD7D",
"w+	c #CABB7F",
"x+	c #CEBE79",
"y+	c #D3C8A6",
"z+	c #E2D6B8",
"A+	c #D0751D",
"B+	c #D7B055",
"C+	c #D0BE7C",
"D+	c #D9C783",
"E+	c #D0C07A",
"F+	c #CABC7E",
"G+	c #CFBF7B",
"H+	c #CEBE7F",
"I+	c #C4BB95",
"J+	c #D4CCB0",
"K+	c #BCB188",
"L+	c #C2B27B",
"M+	c #CEBE7E",
"N+	c #D5C278",
"O+	c #D9C886",
"P+	c #BE9069",
"Q+	c #CEBF7B",
"R+	c #D3C178",
"S+	c #DECC86",
"                                                                ",
"              . + @   #   $   %     &                           ",
"            * = - ; > , ' ) ! ~ { ] ^   /   (                   ",
"            _ : < [ } | 1 2 3 4 5 6 7 8 9 0 a b c               ",
"            d d e f d d d g < _ h < i h j k l m n               ",
"            d d o p q r s t d e d d d d d d d u v               ",
"            d d w x y s z A B d d d d d d d d C D               ",
"          d d d d E F E G H I d o d e d d d d J                 ",
"          d d e K L E M N G s O P P I Q e d _ R                 ",
"          d d o S T I y U V W F K X Y x H d < Z                 ",
"          d d t r y G M `  ...+.@.#.q S o d $.%.                ",
"        d d d &.*.=.-.d &.o ;.>.Q ,.'._ e d $.).                ",
"        d d d !. .~.K y e e d d d t {.g d d ].^.                ",
"        d d d *. ./.(.W _.:.<.W !.&.e d d _ [.}.      |.1.      ",
"        d d d ;.2.H 3.4.5.;.6.+.Q ` t d d < 7.8.    9.0.a.      ",
"      d d d b.c.d.e.f.T H y *.I _ t e d d $.g.    h.i.j.        ",
"      d d d b.F B *.r &.H k.W l.H y o e d m.n.o.p.q.r.          ",
"      d d d s ,.s.t.u.E v.d.G w.y G x.d d y.z.A.q.B.            ",
"      d d t C.Q >.>.D.l.c.E.F.f d d t d h G.H.I.J.              ",
"      d d d ..K.K A s.L.-.K x l.M.>.t h N.O.P.Q.                ",
"    d d d R.S.T.U.X V.G S T W.X.&.Y.Z.`.O. +.+                  ",
"    d d d V.x (.++I x.@+e.#+Y X +.$+%+O.&+*+=+                  ",
"    d d d t U s X.d d o 2.-+;+>+i ,+'+&+.+)+!+                  ",
"    d d d d d e d e d d d d d i ~+{+ +]+^+/+                    ",
"  < < d d d d d d d d d d d (+_+{+ +:+<+[+}+                    ",
"  |+1+2+3+$.h < _ d d d d (+4+{+ +5+6+7+8+9+                    ",
"  0+0+a+b+c+d+e+f+g+h+$.h i+j+k+l+m+t n+o+p+                    ",
"    q+r+s+r+t+u+8+v+v+w+x+y+z+A+B+t $.g+C+D+                    ",
"                E+F+G+H+I+J+K+L+M+c+s+N+N+O+                    ",
"                        P+    Q+0+F+0+8+R+S+                    ",
"                                                                ",
"                                                                "};
