/* XPM */
static char * noblenote_xpm[] = {
"32 32 398 2",
"  	c None",
". 	c #CFCEC7",
"+ 	c #444752",
"@ 	c #B3B4B5",
"# 	c #A1A1A1",
"$ 	c #A1A3A2",
"% 	c #8F8E8E",
"& 	c #C2C2C2",
"* 	c #FFE150",
"= 	c #95948D",
"- 	c #FFE355",
"; 	c #8A8D99",
"> 	c #E6D16E",
", 	c #A09D91",
"' 	c #D6CA90",
") 	c #9B926C",
"! 	c #C2BC9F",
"~ 	c #9F956A",
"{ 	c #ABABA8",
"] 	c #8B8777",
"^ 	c #9A9B98",
"/ 	c #828385",
"( 	c #4E5156",
"_ 	c #CCCDCC",
": 	c #FEDD5B",
"< 	c #FFE556",
"[ 	c #FEDC59",
"} 	c #FAE560",
"| 	c #FBEA65",
"1 	c #E7CD5D",
"2 	c #E4CD67",
"3 	c #EDD159",
"4 	c #BBAE73",
"5 	c #FFE75C",
"6 	c #A39F88",
"7 	c #F7DD68",
"8 	c #AEA37A",
"9 	c #D6C88B",
"0 	c #BAAB6D",
"a 	c #ABA691",
"b 	c #DECB79",
"c 	c #A2A6B2",
"d 	c #DFCC80",
"e 	c #FEDD5A",
"f 	c #FFDE5B",
"g 	c #FFE65E",
"h 	c #FEDF5A",
"i 	c #FFDD5A",
"j 	c #FFDD5B",
"k 	c #FFDD59",
"l 	c #FFDF59",
"m 	c #FFE159",
"n 	c #FFE058",
"o 	c #FFF15E",
"p 	c #F1D75D",
"q 	c #FFEB5C",
"r 	c #DAC266",
"s 	c #D8C673",
"t 	c #FFE05C",
"u 	c #EEA23A",
"v 	c #F5BD49",
"w 	c #F9CA50",
"x 	c #FFDF5B",
"y 	c #FEDE5B",
"z 	c #FFDF5A",
"A 	c #FEEE60",
"B 	c #FEDB59",
"C 	c #FFDC59",
"D 	c #FFE85C",
"E 	c #C2BB8C",
"F 	c #FDD958",
"G 	c #F6C04B",
"H 	c #FDDD59",
"I 	c #F9CB50",
"J 	c #F7C64E",
"K 	c #F3B545",
"L 	c #F8C94F",
"M 	c #FFDC5A",
"N 	c #FFE75E",
"O 	c #FFE75D",
"P 	c #FFEB5F",
"Q 	c #FFE35C",
"R 	c #FFE653",
"S 	c #FFDE5A",
"T 	c #FFE15C",
"U 	c #FACF52",
"V 	c #F6B945",
"W 	c #FBDA58",
"X 	c #F7C34C",
"Y 	c #F9CC51",
"Z 	c #FBD656",
"` 	c #FEE35D",
" .	c #FFE45D",
"..	c #FFE95F",
"+.	c #FFE65D",
"@.	c #FEDC5A",
"#.	c #F5D75F",
"$.	c #F7C54D",
"%.	c #F5BF4A",
"&.	c #FAD956",
"*.	c #F8C34B",
"=.	c #FBD555",
"-.	c #F9D152",
";.	c #F2B544",
">.	c #F1B845",
",.	c #F2B644",
"'.	c #FBDB58",
").	c #FACF53",
"!.	c #DBCA73",
"~.	c #FFE85F",
"{.	c #FFE05B",
"].	c #F2B443",
"^.	c #FBDA57",
"/.	c #FDDB58",
"(.	c #F5C84E",
"_.	c #F9D755",
":.	c #F8D755",
"<.	c #FCE45C",
"[.	c #FCDD59",
"}.	c #F5C14B",
"|.	c #F9D554",
"1.	c #FEE75E",
"2.	c #FFEA5E",
"3.	c #C0BC83",
"4.	c #F8D654",
"5.	c #FCE35C",
"6.	c #F8CE51",
"7.	c #F4BA47",
"8.	c #F2B343",
"9.	c #F5C04A",
"0.	c #F9DA57",
"a.	c #FAE35B",
"b.	c #F4BB48",
"c.	c #F2B142",
"d.	c #FFE35D",
"e.	c #FFDF57",
"f.	c #B2AE8F",
"g.	c #FEE25B",
"h.	c #F7CF51",
"i.	c #F7CA4F",
"j.	c #FDD857",
"k.	c #FFE960",
"l.	c #FBD756",
"m.	c #F7CD50",
"n.	c #FBDF5A",
"o.	c #F5C34B",
"p.	c #F0AB40",
"q.	c #FFE15B",
"r.	c #FFE755",
"s.	c #9FA0AA",
"t.	c #FDDA58",
"u.	c #F7C24B",
"v.	c #F2AF42",
"w.	c #F8C74E",
"x.	c #FCD757",
"y.	c #FEE05B",
"z.	c #FDE15B",
"A.	c #FFF163",
"B.	c #FFF263",
"C.	c #FEF061",
"D.	c #FFED60",
"E.	c #FDE25C",
"F.	c #FFE95E",
"G.	c #F0E269",
"H.	c #A7A8A0",
"I.	c #F6C24B",
"J.	c #FBD254",
"K.	c #F8C84F",
"L.	c #F7C44C",
"M.	c #F6C84E",
"N.	c #F4C44C",
"O.	c #F9D855",
"P.	c #FCEA5E",
"Q.	c #FEE15B",
"R.	c #FEF263",
"S.	c #D7CC76",
"T.	c #AAABA5",
"U.	c #D6A3A3",
"V.	c #E69B9B",
"W.	c #FBD455",
"X.	c #FBD556",
"Y.	c #FACE52",
"Z.	c #F4B946",
"`.	c #FDED60",
" +	c #F8D655",
".+	c #FBE35B",
"++	c #F1B543",
"@+	c #FFF061",
"#+	c #FFEE60",
"$+	c #C6BA81",
"%+	c #B1AA92",
"&+	c #EBEBEA",
"*+	c #B7BABA",
"=+	c #9E6B6B",
"-+	c #FDDD5A",
";+	c #F3B444",
">+	c #F2B042",
",+	c #F6BF4A",
"'+	c #F3B644",
")+	c #F9D254",
"!+	c #F9CF52",
"~+	c #FCE65D",
"{+	c #F7D252",
"]+	c #FBE55C",
"^+	c #FEF062",
"/+	c #FFF262",
"(+	c #FEF363",
"_+	c #FFDF56",
":+	c #B3AB8C",
"<+	c #F7B252",
"[+	c #F19421",
"}+	c #908D8C",
"|+	c #FEDE5A",
"1+	c #F2B143",
"2+	c #F8CD50",
"3+	c #FEEF61",
"4+	c #FAD354",
"5+	c #EFAB3F",
"6+	c #F9DC57",
"7+	c #F3BC47",
"8+	c #FADE58",
"9+	c #FCE95E",
"0+	c #FFF464",
"a+	c #FFE057",
"b+	c #A3A199",
"c+	c #D7AB57",
"d+	c #F6B252",
"e+	c #ED9629",
"f+	c #D16E10",
"g+	c #F9CC50",
"h+	c #F5BC48",
"i+	c #FBD355",
"j+	c #F9CE51",
"k+	c #F2B645",
"l+	c #F7D152",
"m+	c #FEF262",
"n+	c #FCE85D",
"o+	c #F8D353",
"p+	c #F0AD41",
"q+	c #EBD163",
"r+	c #BFA16F",
"s+	c #F9B04E",
"t+	c #EE972A",
"u+	c #D16F13",
"v+	c #F7C44D",
"w+	c #F5BB47",
"x+	c #FCDF59",
"y+	c #FFF062",
"z+	c #FFE85E",
"A+	c #FFE55D",
"B+	c #FFDE55",
"C+	c #E6C067",
"D+	c #F7AF4D",
"E+	c #EE9729",
"F+	c #D27115",
"G+	c #FEDF5B",
"H+	c #FADB57",
"I+	c #F8C74F",
"J+	c #F2AE41",
"K+	c #F5BF49",
"L+	c #F6C44C",
"M+	c #FFEC60",
"N+	c #FFDE56",
"O+	c #EAC263",
"P+	c #F6AF4F",
"Q+	c #D37116",
"R+	c #FFE25D",
"S+	c #EEA23B",
"T+	c #FAD355",
"U+	c #FCD857",
"V+	c #F7C74E",
"W+	c #F2B243",
"X+	c #FAD253",
"Y+	c #F4B847",
"Z+	c #FED853",
"`+	c #EAC261",
" @	c #EE972B",
".@	c #D47218",
"+@	c #FCD555",
"@@	c #EFA93E",
"#@	c #F3B645",
"$@	c #F6C44B",
"%@	c #FBD354",
"&@	c #F8D051",
"*@	c #F3B03E",
"=@	c #EBC560",
"-@	c #D77214",
";@	c #C4AF76",
">@	c #FDDA59",
",@	c #F8CA4F",
"'@	c #F7CC50",
")@	c #FEE85E",
"!@	c #F4B746",
"~@	c #FFEF5E",
"{@	c #EBC75F",
"]@	c #F5AE4F",
"^@	c #ED972C",
"/@	c #D46F15",
"(@	c #C0AA73",
"_@	c #D3C282",
":@	c #FEE45D",
"<@	c #FFE25C",
"[@	c #FFE25B",
"}@	c #E9C95C",
"|@	c #F5AD4E",
"1@	c #D26D14",
"2@	c #D2BA65",
"3@	c #C1B482",
"4@	c #FFF261",
"5@	c #FFF162",
"6@	c #FFF362",
"7@	c #FFE45A",
"8@	c #E7BE55",
"9@	c #F4AD4E",
"0@	c #D36C14",
"a@	c #EAC753",
"b@	c #D7C575",
"c@	c #CDBD7A",
"d@	c #E2CC6B",
"e@	c #E5CE69",
"f@	c #F2D661",
"g@	c #FCDC59",
"h@	c #FFEF5A",
"i@	c #FFF462",
"j@	c #FFF463",
"k@	c #FEF364",
"l@	c #FFF363",
"m@	c #FFF161",
"n@	c #FEF162",
"o@	c #FFF361",
"p@	c #EBC256",
"q@	c #F4AD4F",
"r@	c #EC962B",
"s@	c #D26C12",
"t@	c #E7C151",
"u@	c #FFE056",
"v@	c #C9BA7E",
"w@	c #C6B77D",
"x@	c #CEBD7A",
"y@	c #CEBD7B",
"z@	c #CBBB7D",
"A@	c #CABB7E",
"B@	c #C6B980",
"C@	c #D9CC77",
"D@	c #DDD475",
"E@	c #E3DB71",
"F@	c #F1E769",
"G@	c #F3E969",
"H@	c #FFFA5F",
"I@	c #FFF461",
"J@	c #E4CB64",
"K@	c #F5A63F",
"L@	c #EC962C",
"M@	c #D06A10",
"N@	c #E5BD51",
"O@	c #F7D95E",
"P@	c #D3C078",
"Q@	c #CFBD75",
"R@	c #CDBE78",
"S@	c #CCBD7B",
"T@	c #C9BA7D",
"U@	c #CDBD7B",
"V@	c #CFBF7C",
"W@	c #CFC57D",
"X@	c #D0C47E",
"Y@	c #CDBF7D",
"Z@	c #CFC17E",
"`@	c #C7BC83",
" #	c #CDC27A",
".#	c #D2C6A6",
"+#	c #E1D8BF",
"@#	c #CE6F14",
"##	c #D7B359",
"$#	c #FFDF58",
"%#	c #FFE156",
"&#	c #EDD463",
"*#	c #D8C883",
"=#	c #CFC27C",
"-#	c #C7BC80",
";#	c #D1C57B",
">#	c #CDC080",
",#	c #C4BA93",
"'#	c #D3CCB1",
")#	c #BAAE85",
"!#	c #C0B17C",
"~#	c #CCBB7D",
"{#	c #CABA7E",
"]#	c #C8B97F",
"^#	c #D3C176",
"/#	c #D1C077",
"(#	c #D8C885",
"_#	c #BD9068",
":#	c #CDBE7A",
"<#	c #CEBE79",
"[#	c #C8B97E",
"}#	c #CCBC7C",
"|#	c #D5C176",
"1#	c #D9CB86",
"                                                                ",
"              . + @   #   $   %     &                           ",
"            * = - ; > , ' ) ! ~ { ] ^   /   ( _                 ",
"            : < [ } | 1 2 3 4 5 6 7 8 9 0 a b c d               ",
"            e f e g h i j f k : l k m n o p q r s               ",
"            i f t u v w w x y f f i z A B C i D E               ",
"            y : F G H I J K L e M N O P Q P j R                 ",
"          h S i T U V W X Y Z `  ...+.@.i M f #.                ",
"          ....e $.%.&.*.=.L -.;.>.,.'.).e i M !.                ",
"          ..~.{.].).^.F /.(._.;.:.<.[.}.|.1.2.3.                ",
"          S i ..4.5.6.7.8.9.&.0.a.&.b.c.d.M e.f.                ",
"        e y i g.h.i.$.y j.k.l.m.n.o.p.q.@.i r.s.                ",
"        e f S t.u.v.w.x.y.z.A.B.C.D.E.f g.F.G.H.                ",
"        f f e I.X Y J.K.L.M.N.O.P.Q.[ i ..R.S.T.      U.V.      ",
"        f e x W.X.Y.L.Z.v.'.`. +.+++@+S Q #+$+%+    &+*+=+      ",
"      f f f -+;+>+,+'+)+!+~+{+]+^+/+(+{.i _+:+    <+[+}+        ",
"      f f |+@.1+Y X 2+3+4+5+6+7+8+9+0+[ : a+b+c+d+e+f+          ",
"      f f e g+h+i+X.I j+I.k+l+m+n+o+p+e f q+r+s+t+u+            ",
"      f i x w.W.v+w.K >+w+z.x+y+z+A+/+S B+C+D+E+F+              ",
"      f f G+H+K I c.W.y L I+X J+K+L+M+N+O+P+e+Q+                ",
"    f f i R+S+c.T+U+J.V+W+X+Y+{+-+Y.Z+`+P+ @.@                  ",
"    f f : U v +@U+W.@@#@$@%@x.U+&@*@=@P+ @-@;@                  ",
"    f f f t >@,@'@)@i T W.%@!@K.~@{@]@^@/@(@_@                  ",
"    e f j e S :@F.^++.|+<@[@@.n }@|@ @1@2@3@                    ",
"  @.f S e  .B.B.4@5@/+P y+6@7@8@9@ @0@a@b@c@                    ",
"  d@e@f@g@h@i@j@k@l@m@n@5@o@p@q@r@s@t@u@v@w@                    ",
"  x@y@z@A@B@C@D@E@F@G@H@I@J@K@L@M@N@i O@P@Q@                    ",
"    R@S@T@U@V@W@X@Y@Z@`@ #.#+#@###$#%#&#U@*#                    ",
"                =#-#;#>#,#'#)#!#~#{#]#^#/#(#                    ",
"                        _#    :#<#[#x@}#|#1#                    ",
"                                                                ",
"                                                                "};
