<?xml version="1.0" encoding="UTF-8" standalone="no"?>
<!-- Created with Inkscape (http://www.inkscape.org/) -->

<svg
   width="13mm"
   height="13mm"
   viewBox="0 0 12.999999 13"
   version="1.1"
   id="svg1"
   xml:space="preserve"
   inkscape:version="1.4 (86a8ad7, 2024-10-11)"
   sodipodi:docname="trash.svg"
   xmlns:inkscape="http://www.inkscape.org/namespaces/inkscape"
   xmlns:sodipodi="http://sodipodi.sourceforge.net/DTD/sodipodi-0.dtd"
   xmlns:xlink="http://www.w3.org/1999/xlink"
   xmlns="http://www.w3.org/2000/svg"
   xmlns:svg="http://www.w3.org/2000/svg"><sodipodi:namedview
     id="namedview1"
     pagecolor="#ffffff"
     bordercolor="#000000"
     borderopacity="0.25"
     inkscape:showpageshadow="2"
     inkscape:pageopacity="0.0"
     inkscape:pagecheckerboard="0"
     inkscape:deskcolor="#d1d1d1"
     inkscape:document-units="mm"
     showguides="true"
     inkscape:zoom="3.4870506"
     inkscape:cx="17.923456"
     inkscape:cy="17.780069"
     inkscape:window-width="1147"
     inkscape:window-height="1000"
     inkscape:window-x="320"
     inkscape:window-y="0"
     inkscape:window-maximized="0"
     inkscape:current-layer="layer1"><sodipodi:guide
       position="-10.522603,294.00549"
       orientation="1,0"
       id="guide1"
       inkscape:locked="false" /></sodipodi:namedview><defs
     id="defs1"><linearGradient
       id="linearGradient40"
       inkscape:collect="always"><stop
         style="stop-color:#d3d3d3;stop-opacity:1;"
         offset="0"
         id="stop40" /><stop
         style="stop-color:#d3d3d3;stop-opacity:0;"
         offset="1"
         id="stop41" /></linearGradient><linearGradient
       id="linearGradient33"
       inkscape:collect="always"><stop
         style="stop-color:#d3d3d3;stop-opacity:1;"
         offset="0"
         id="stop33" /><stop
         style="stop-color:#ffffff;stop-opacity:0;"
         offset="1"
         id="stop34" /></linearGradient><linearGradient
       id="linearGradient29"
       inkscape:collect="always"><stop
         style="stop-color:#9c9c9c;stop-opacity:1;"
         offset="0"
         id="stop29" /><stop
         style="stop-color:#a0a0a0;stop-opacity:0.48768473;"
         offset="0.65376621"
         id="stop31" /><stop
         style="stop-color:#9e9e9e;stop-opacity:0;"
         offset="1"
         id="stop30" /></linearGradient><linearGradient
       id="linearGradient28"
       inkscape:collect="always"><stop
         style="stop-color:#979994;stop-opacity:1;"
         offset="0"
         id="stop26" /><stop
         style="stop-color:#a5a6a1;stop-opacity:0.56650245;"
         offset="0.5876891"
         id="stop27" /><stop
         style="stop-color:#cdcecb;stop-opacity:0;"
         offset="1"
         id="stop28" /></linearGradient><linearGradient
       id="linearGradient18"
       inkscape:collect="always"><stop
         style="stop-color:#1a1a1a;stop-opacity:0.26881725;"
         offset="0"
         id="stop18" /><stop
         style="stop-color:#424242;stop-opacity:0;"
         offset="1"
         id="stop19" /></linearGradient><linearGradient
       id="linearGradient13"
       inkscape:collect="always"><stop
         style="stop-color:#979994;stop-opacity:1;"
         offset="0"
         id="stop13" /><stop
         style="stop-color:#a5a6a1;stop-opacity:0.56650245;"
         offset="0.5461095"
         id="stop15" /><stop
         style="stop-color:#cdcecb;stop-opacity:0;"
         offset="1"
         id="stop14" /></linearGradient><linearGradient
       id="linearGradient12"
       inkscape:collect="always"><stop
         style="stop-color:#3b3b3b;stop-opacity:0.67980295;"
         offset="0.10533459"
         id="stop10" /><stop
         style="stop-color:#c0c0c0;stop-opacity:0.84236455;"
         offset="0.55979824"
         id="stop11" /><stop
         style="stop-color:#cdcecb;stop-opacity:0;"
         offset="1"
         id="stop12" /></linearGradient><linearGradient
       id="linearGradient9"
       inkscape:collect="always"><stop
         style="stop-color:#5f5f5f;stop-opacity:0.67980295;"
         offset="0.06195968"
         id="stop7" /><stop
         style="stop-color:#b1b1b1;stop-opacity:0.84236455;"
         offset="0.55979824"
         id="stop8" /><stop
         style="stop-color:#cdcecb;stop-opacity:0;"
         offset="1"
         id="stop9" /></linearGradient><linearGradient
       id="linearGradient2"
       inkscape:collect="always"><stop
         style="stop-color:#ffffff;stop-opacity:0;"
         offset="0"
         id="stop2" /><stop
         style="stop-color:#f7f7f7;stop-opacity:0.84729064;"
         offset="0.29827091"
         id="stop4" /><stop
         style="stop-color:#f2f2f2;stop-opacity:0.84236455;"
         offset="0.55979824"
         id="stop5" /><stop
         style="stop-color:#cdcecb;stop-opacity:0;"
         offset="1"
         id="stop3" /></linearGradient><linearGradient
       inkscape:collect="always"
       xlink:href="#linearGradient2"
       id="linearGradient3"
       x1="87.01506"
       y1="122.93664"
       x2="89.57106"
       y2="122.93664"
       gradientUnits="userSpaceOnUse"
       gradientTransform="matrix(1.6024151,0,0,1.0001125,-48.897277,0.269183)" /><linearGradient
       inkscape:collect="always"
       xlink:href="#linearGradient9"
       id="linearGradient5"
       gradientUnits="userSpaceOnUse"
       gradientTransform="matrix(1.0611657,0,0,1.0001125,-2.4209501,-0.15424181)"
       x1="87.01506"
       y1="122.93664"
       x2="88.597435"
       y2="122.84274" /><linearGradient
       inkscape:collect="always"
       xlink:href="#linearGradient12"
       id="linearGradient10"
       gradientUnits="userSpaceOnUse"
       gradientTransform="matrix(-1.0611657,0,0,1.0001125,191.49807,-0.15903227)"
       x1="87.117058"
       y1="122.91767"
       x2="88.652557"
       y2="122.82282" /><radialGradient
       inkscape:collect="always"
       xlink:href="#linearGradient13"
       id="radialGradient14"
       cx="94.930801"
       cy="120.09396"
       fx="94.930801"
       fy="120.09396"
       r="1.2898915"
       gradientTransform="matrix(2.1477784,0.09800913,-0.00731661,0.4011722,-112.81706,73.364395)"
       gradientUnits="userSpaceOnUse" /><radialGradient
       inkscape:collect="always"
       xlink:href="#linearGradient13"
       id="radialGradient14-1"
       cx="94.705086"
       cy="120.37318"
       fx="94.705086"
       fy="120.37318"
       r="1.2898915"
       gradientTransform="matrix(2.1503631,0.02077958,0.00894112,0.40110565,-109.70939,69.794298)"
       gradientUnits="userSpaceOnUse" /><radialGradient
       inkscape:collect="always"
       xlink:href="#linearGradient13"
       id="radialGradient14-1-3"
       cx="94.705086"
       cy="120.37318"
       fx="94.705086"
       fy="120.37318"
       r="1.2898915"
       gradientTransform="matrix(1.5167908,-0.18342207,0.07125843,0.39590345,-55.963829,89.635512)"
       gradientUnits="userSpaceOnUse" /><radialGradient
       inkscape:collect="always"
       xlink:href="#linearGradient28"
       id="radialGradient14-1-3-3"
       cx="94.705086"
       cy="120.37318"
       fx="94.705086"
       fy="120.37318"
       r="1.2898915"
       gradientTransform="matrix(1.4866291,-0.35372086,0.12325175,0.40630297,-59.384863,112.00658)"
       gradientUnits="userSpaceOnUse" /><radialGradient
       inkscape:collect="always"
       xlink:href="#linearGradient18"
       id="radialGradient19"
       cx="93.231964"
       cy="113.02161"
       fx="93.231964"
       fy="113.02161"
       r="5.1203594"
       gradientTransform="matrix(3.1644324,0.05763049,-0.00328318,0.18026994,-200.11963,90.383238)"
       gradientUnits="userSpaceOnUse" /><radialGradient
       inkscape:collect="always"
       xlink:href="#linearGradient13"
       id="radialGradient14-1-3-3-8"
       cx="94.705086"
       cy="120.37318"
       fx="94.705086"
       fy="120.37318"
       r="1.2898915"
       gradientTransform="matrix(1.5167908,-0.18342207,0.07125843,0.39590345,-54.919763,89.474439)"
       gradientUnits="userSpaceOnUse" /><linearGradient
       inkscape:collect="always"
       xlink:href="#linearGradient29"
       id="linearGradient31"
       x1="89.854378"
       y1="117.98071"
       x2="91.063583"
       y2="117.94277"
       gradientUnits="userSpaceOnUse" /><linearGradient
       inkscape:collect="always"
       xlink:href="#linearGradient29"
       id="linearGradient32"
       gradientUnits="userSpaceOnUse"
       x1="89.854378"
       y1="117.98071"
       x2="91.063583"
       y2="117.94277"
       gradientTransform="matrix(-1,0,0,1,188.96288,-0.01418638)" /><radialGradient
       inkscape:collect="always"
       xlink:href="#linearGradient33"
       id="radialGradient34"
       cx="94.447403"
       cy="124.04958"
       fx="94.447403"
       fy="124.04958"
       r="1.4606135"
       gradientTransform="matrix(1.8157138,0.00582115,-0.00121214,0.12698089,-77.091167,108.06149)"
       gradientUnits="userSpaceOnUse" /><radialGradient
       inkscape:collect="always"
       xlink:href="#linearGradient40"
       id="radialGradient41"
       cx="94.388344"
       cy="116.83248"
       fx="94.388344"
       fy="116.83248"
       r="1.1002015"
       gradientTransform="matrix(2.2136588,0.0544809,-0.06934529,0.53253273,-106.46945,49.501734)"
       gradientUnits="userSpaceOnUse" /></defs><g
     inkscape:label="Layer 1"
     inkscape:groupmode="layer"
     id="layer1"
     transform="translate(-89.352748,-115.78185)"><g
       id="g1"
       transform="translate(1.337259,0.4110834)"><ellipse
         style="fill:#7a7d76;fill-opacity:1;stroke-width:0.330314;stroke-linecap:round;stroke-linejoin:bevel;stroke-miterlimit:1"
         id="path1-4"
         cx="94.481766"
         cy="117.77737"
         rx="5.0169086"
         ry="1.4592563" /><path
         id="rect1"
         style="fill:#e9eae8;fill-opacity:1;stroke:#000000;stroke-width:0.0746921;stroke-linecap:round;stroke-linejoin:bevel;stroke-miterlimit:1;stroke-dasharray:none;stroke-opacity:1"
         d="m 89.408728,118.86767 h 10.225929 l -0.713689,7.80423 c 0,0 -1.086653,1.28012 -4.273664,1.24991 -2.828311,-0.0268 -4.516484,-1.24991 -4.516484,-1.24991 z"
         sodipodi:nodetypes="cccscc" /><ellipse
         style="fill:#cdcecb;fill-opacity:1;stroke-width:0.328998;stroke-linecap:round;stroke-linejoin:bevel;stroke-miterlimit:1"
         id="path1-4-1"
         cx="94.473595"
         cy="125.30535"
         rx="4.4323831"
         ry="1.6385555" /><path
         id="rect1-8"
         style="fill:#efefef;fill-opacity:1;stroke:#000000;stroke-width:0.0319871;stroke-linecap:round;stroke-linejoin:bevel;stroke-miterlimit:1;stroke-dasharray:none;stroke-opacity:1"
         d="m 89.980749,125.44055 c 0,0 2.019019,1.26138 4.641524,1.25691 2.428603,-0.004 4.397971,-1.27502 4.397971,-1.27502 l -0.108927,1.22575 c 0,0 -1.119358,1.25847 -4.152284,1.25265 -2.691569,-0.005 -4.590386,-1.22704 -4.590386,-1.22704 z"
         sodipodi:nodetypes="csccscc" /><path
         id="path1"
         style="fill:#ebeceb;fill-opacity:1;stroke-width:0.325407;stroke-linecap:round;stroke-linejoin:bevel;stroke-miterlimit:1"
         d="m 99.172889,118.51083 c 2e-6,0.8194 -1.999736,1.37737 -4.644595,1.37737 -2.64486,0 -4.5746,-0.54616 -4.574598,-1.36555 0,-0.20485 0.02324,-0.36102 0.213028,-0.59897 0.201505,-0.25264 0.541962,-0.43396 0.975276,-0.56821 0.866631,-0.26848 2.063864,-0.43455 3.386294,-0.43455 1.322429,0 2.519663,0.16607 3.386294,0.43455 0.433314,0.13425 0.780562,0.32989 0.925266,0.60063 0.155725,0.29135 0.333035,0.34988 0.333035,0.55473 z"
         sodipodi:nodetypes="sssssssss" /><path
         id="path1-4-7"
         style="fill:#d3d3d3;fill-opacity:1;stroke:#000000;stroke-width:0.078018;stroke-linecap:round;stroke-linejoin:bevel;stroke-miterlimit:1;stroke-dasharray:none;stroke-opacity:1"
         d="m 94.492699,115.82086 c -2.266827,0.002 -4.296169,0.58482 -5.100942,1.46623 v 1.61404 c 0.804773,0.88141 2.834115,1.46472 5.100942,1.46622 2.303074,-2e-4 4.358743,-0.60083 5.140255,-1.50189 v -1.53806 c -0.777772,-0.9029 -2.834299,-1.50564 -5.140255,-1.50654 z m -0.01094,0.49726 c 2.568653,-2e-5 4.661785,0.86507 4.661246,1.66254 -3.86e-4,0.79727 -2.08231,1.44351 -4.650309,1.44349 -2.567807,-6e-5 -4.649432,-0.64628 -4.649818,-1.44349 -5.39e-4,-0.79741 2.07042,-1.66248 4.638881,-1.66254 z"
         sodipodi:nodetypes="cccccccccccc" /><path
         id="path1-4-7-5"
         style="fill:url(#radialGradient19);fill-opacity:1;stroke:none;stroke-width:0.078018;stroke-linecap:round;stroke-linejoin:bevel;stroke-miterlimit:1;stroke-dasharray:none;stroke-opacity:1"
         d="m 94.530743,115.84901 c -2.266827,0.002 -4.295691,0.58465 -5.100464,1.46606 v 0.38034 h 0.553455 c 0.445956,-0.69502 2.30253,-1.34922 4.536157,-1.34928 2.233839,-1e-5 4.107579,0.65421 4.557861,1.34928 h 0.593246 v -0.34003 c -0.777772,-0.9029 -2.834299,-1.50547 -5.140255,-1.50637 z" /><path
         id="rect2"
         style="fill:url(#linearGradient3);stroke-width:0.130615;stroke-linecap:round;stroke-linejoin:bevel;stroke-miterlimit:1"
         d="m 90.67996,118.95072 1.967712,0.46918 1.967711,0.0897 -0.173288,8.41528 -3.905124,-0.86557 z"
         sodipodi:nodetypes="cccccc" /><path
         id="rect2-2"
         style="fill:url(#linearGradient5);stroke-width:0.106291;stroke-linecap:round;stroke-linejoin:bevel;stroke-miterlimit:1"
         d="m 89.398889,118.36632 0.94593,0.52283 1.188277,0.33117 0.306167,8.28115 -1.705972,-0.77168 z"
         sodipodi:nodetypes="cccccc" /><path
         id="rect2-2-5"
         style="fill:url(#linearGradient10);stroke-width:0.106291;stroke-linecap:round;stroke-linejoin:bevel;stroke-miterlimit:1"
         d="m 99.67823,118.36153 -0.693388,0.409 -1.440819,0.445 -0.293412,8.41529 1.693218,-0.90582 z"
         sodipodi:nodetypes="cccccc" /><path
         id="path12"
         style="fill:url(#radialGradient14);stroke-width:0.193197;stroke-linecap:round;stroke-linejoin:bevel;stroke-miterlimit:1"
         transform="matrix(0.99935465,-0.03592041,0.0405138,0.99917898,0,0)"
         d="m 92.849435,130.5856 c 6e-6,0.15462 -0.299494,0.29462 -0.783725,0.39595 -0.484231,0.10133 -1.184343,0.27028 -1.923258,0.27028 -0.738915,0 -1.332125,-0.11027 -1.771757,-0.15297 -0.439632,-0.0427 -0.694534,-0.12401 -0.694528,-0.27864 1.2e-5,-0.30925 1.19802,-0.55995 2.67583,-0.55995 1.477811,0 2.497426,0.0161 2.497438,0.32533 z"
         sodipodi:nodetypes="sssssss" /><path
         id="path12-9"
         style="fill:url(#radialGradient14-1);stroke-width:0.193196;stroke-linecap:round;stroke-linejoin:bevel;stroke-miterlimit:1"
         d="m 98.142631,119.5809 c 0.0063,0.15449 -0.287364,0.30513 -0.767178,0.42377 -0.479813,0.11864 -1.132389,0.28577 -1.911066,0.33915 -0.737184,0.0505 -1.49669,0.005 -1.937768,-0.0221 -0.441079,-0.0269 -1.241893,-0.14616 -1.241893,-0.14616 -0.142501,-0.62448 1.872042,-0.77689 3.348899,-0.82998 1.476857,-0.0531 2.496466,-0.0736 2.509006,0.23536 z"
         sodipodi:nodetypes="ssssssss" /><path
         id="path12-9-4"
         style="fill:url(#radialGradient14-1-3);stroke-width:0.162964;stroke-linecap:round;stroke-linejoin:bevel;stroke-miterlimit:1"
         d="m 98.38615,119.16554 c 0.0295,0.15221 -0.152826,0.32908 -0.471302,0.49194 -0.318478,0.16287 -0.75069,0.39009 -1.290078,0.51675 -0.51065,0.11988 -1.05256,0.14692 -1.36738,0.16195 -0.314789,0.0152 -0.897717,-0.0268 -0.897717,-0.0268 -0.201439,-0.60419 1.191713,-0.94603 2.222525,-1.13864 1.030811,-0.19261 1.745092,-0.3096 1.803958,-0.005 z"
         sodipodi:nodetypes="ssssssss" /><path
         id="path12-9-4-7"
         style="fill:url(#radialGradient14-1-3-3);stroke-width:0.162964;stroke-linecap:round;stroke-linejoin:bevel;stroke-miterlimit:1"
         d="m 98.367252,126.66027 c 0.0295,0.15221 -0.01869,0.40956 -0.337171,0.57242 -0.318478,0.16287 -0.804342,0.37668 -1.34373,0.50334 -0.51065,0.11988 -1.133039,0.0799 -1.447859,0.0949 -0.314789,0.0152 -0.897717,-0.0268 -0.897717,-0.0268 -0.201439,-0.60419 1.191713,-0.94603 2.222525,-1.13864 1.030811,-0.19261 1.745092,-0.3096 1.803958,-0.005 z"
         sodipodi:nodetypes="ssssssss" /><path
         id="path12-9-4-7-8"
         style="fill:url(#radialGradient14-1-3-3-8);stroke-width:0.162964;stroke-linecap:round;stroke-linejoin:bevel;stroke-miterlimit:1"
         d="m 99.430216,119.00447 c 0.0295,0.15221 -0.01869,0.40956 -0.337171,0.57242 -0.318478,0.16287 -0.804342,0.37668 -1.34373,0.50334 -0.51065,0.11988 -1.133039,0.0799 -1.447859,0.0949 -0.314789,0.0152 -0.897717,-0.0268 -0.897717,-0.0268 -0.201439,-0.60419 1.191713,-0.94603 2.222525,-1.13864 1.030811,-0.19261 1.745092,-0.3096 1.803958,-0.005 z"
         sodipodi:nodetypes="ssssssss" /><path
         id="path28"
         style="fill:url(#linearGradient31);stroke-width:0.15865;stroke-linecap:round;stroke-linejoin:bevel;stroke-miterlimit:1"
         d="m 91.262754,118.11578 c 0.02012,0.94521 -0.383384,0.83298 -0.818874,0.53882 -0.220545,-0.14897 -0.262286,-0.1505 -0.523111,-0.45983 -0.248317,-0.29449 0.258403,-0.89556 0.777959,-1.0431 0.577212,-0.16392 0.555829,0.57899 0.564026,0.96411 z"
         sodipodi:nodetypes="sssss" /><path
         id="path28-6"
         style="fill:url(#linearGradient32);stroke-width:0.15865;stroke-linecap:round;stroke-linejoin:bevel;stroke-miterlimit:1"
         d="m 97.700127,118.1016 c -0.02012,0.94521 0.369157,0.80453 0.842585,0.55779 0.236013,-0.123 0.262286,-0.1505 0.523111,-0.45983 0.248317,-0.29449 -0.282114,-0.91453 -0.80167,-1.06207 -0.577212,-0.16392 -0.555829,0.57899 -0.564026,0.96411 z"
         sodipodi:nodetypes="sssss" /><path
         id="rect32"
         style="fill:url(#radialGradient34);fill-opacity:1;stroke-width:0.105088;stroke-linecap:round;stroke-linejoin:bevel;stroke-miterlimit:1"
         d="m 91.80623,124.34673 2.460853,-0.27802 2.815291,0.26461 -0.867741,0.1622 c 0,0 -0.828649,-0.0676 -1.996649,-0.0664 -1.275487,0.001 -2.126407,0.0995 -2.126407,0.0995 z"
         sodipodi:nodetypes="ccccscc" /><path
         id="path40"
         style="fill:url(#radialGradient41);stroke-width:0.203128;stroke-linecap:round;stroke-linejoin:bevel;stroke-miterlimit:1"
         d="m 96.495255,117.01757 c -0.165455,0.15628 -1.201956,-0.1392 -2.126955,-0.0999 -1.561297,0.0664 -2.639085,0.31345 -2.294505,-0.15211 0.294691,-0.39815 1.563146,-0.42878 2.488995,-0.42878 0.925849,0 2.467256,0.17565 2.273907,0.35827 z"
         sodipodi:nodetypes="ssssss" /></g></g></svg>
