<?xml version="1.0" encoding="UTF-8" standalone="no"?>
<!-- Created with Inkscape (http://www.inkscape.org/) -->

<svg
   width="3.2950001mm"
   height="3.0179999mm"
   viewBox="0 0 3.295 3.0179998"
   version="1.1"
   id="svg1"
   xml:space="preserve"
   inkscape:version="1.4 (86a8ad7, 2024-10-11)"
   sodipodi:docname="format-text-underline.svg"
   xmlns:inkscape="http://www.inkscape.org/namespaces/inkscape"
   xmlns:sodipodi="http://sodipodi.sourceforge.net/DTD/sodipodi-0.dtd"
   xmlns:xlink="http://www.w3.org/1999/xlink"
   xmlns="http://www.w3.org/2000/svg"
   xmlns:svg="http://www.w3.org/2000/svg"><sodipodi:namedview
     id="namedview1"
     pagecolor="#ffffff"
     bordercolor="#000000"
     borderopacity="0.25"
     inkscape:showpageshadow="2"
     inkscape:pageopacity="0.0"
     inkscape:pagecheckerboard="0"
     inkscape:deskcolor="#d1d1d1"
     inkscape:document-units="mm"
     inkscape:zoom="16"
     inkscape:cx="3.0625"
     inkscape:cy="-2.5"
     inkscape:window-width="1147"
     inkscape:window-height="1000"
     inkscape:window-x="436"
     inkscape:window-y="0"
     inkscape:window-maximized="0"
     inkscape:current-layer="layer1"
     showguides="true" /><defs
     id="defs1"><linearGradient
       id="linearGradient2"
       inkscape:collect="always"><stop
         style="stop-color:#ffffff;stop-opacity:0.4953846;"
         offset="0"
         id="stop1" /><stop
         style="stop-color:#ffffff;stop-opacity:0;"
         offset="1"
         id="stop2" /></linearGradient><linearGradient
       id="linearGradient22"
       inkscape:collect="always"><stop
         style="stop-color:#ffffff;stop-opacity:0.51384616;"
         offset="0"
         id="stop21" /><stop
         style="stop-color:#ffffff;stop-opacity:0;"
         offset="1"
         id="stop22" /></linearGradient><linearGradient
       id="linearGradient7"
       inkscape:collect="always"><stop
         style="stop-color:#424242;stop-opacity:1;"
         offset="0.08695652"
         id="stop7" /><stop
         style="stop-color:#424242;stop-opacity:0;"
         offset="1"
         id="stop8" /></linearGradient><linearGradient
       id="linearGradient5"
       inkscape:collect="always"><stop
         style="stop-color:#414141;stop-opacity:1;"
         offset="0"
         id="stop5" /><stop
         style="stop-color:#414141;stop-opacity:0;"
         offset="1"
         id="stop6" /></linearGradient><rect
       x="114.75573"
       y="53.552673"
       width="168.3084"
       height="36.860931"
       id="rect1" /><linearGradient
       inkscape:collect="always"
       xlink:href="#linearGradient5"
       id="linearGradient6"
       x1="115.0877"
       y1="64.80674"
       x2="172.82407"
       y2="64.80674"
       gradientUnits="userSpaceOnUse" /><linearGradient
       inkscape:collect="always"
       xlink:href="#linearGradient7"
       id="linearGradient8"
       x1="115.0877"
       y1="64.80674"
       x2="172.82407"
       y2="64.80674"
       gradientUnits="userSpaceOnUse" /><radialGradient
       inkscape:collect="always"
       xlink:href="#linearGradient2"
       id="radialGradient20-1-31-9-6-7-5-9"
       cx="23.990078"
       cy="26.766087"
       fx="23.990078"
       fy="26.766087"
       r="0.90569818"
       gradientTransform="matrix(3.1002472,-2.0192723e-8,0,0.65931962,-61.432289,6.9855172)"
       gradientUnits="userSpaceOnUse" /><radialGradient
       inkscape:collect="always"
       xlink:href="#linearGradient22"
       id="radialGradient20-1-31-9-6-7-5-9-1"
       cx="23.990078"
       cy="26.766087"
       fx="23.990078"
       fy="26.766087"
       r="0.90569818"
       gradientTransform="matrix(3.1002472,-2.0192723e-8,0,0.65931962,-63.13157,10.038055)"
       gradientUnits="userSpaceOnUse" /></defs><g
     inkscape:label="Layer 1"
     inkscape:groupmode="layer"
     id="layer1"
     transform="translate(-29.202043,-15.589901)"><g
       id="g34"
       transform="translate(-12.379951)"><path
         d="m 43.320731,15.713799 c 0.276578,0 0.481189,0.06068 0.613834,0.182033 0.132644,0.121356 0.198966,0.314678 0.198966,0.579967 v 1.545167 h -0.270933 l -0.07197,-0.321734 h -0.01693 c -0.09878,0.124178 -0.2032,0.2159 -0.313267,0.275167 -0.107244,0.05927 -0.256822,0.0889 -0.448733,0.0889 -0.206022,0 -0.376766,-0.05362 -0.512233,-0.160867 -0.135467,-0.110067 -0.2032,-0.280811 -0.2032,-0.512233 0,-0.225778 0.0889,-0.399345 0.2667,-0.5207 0.1778,-0.124178 0.451555,-0.191911 0.821266,-0.2032 l 0.385234,-0.0127 v -0.135467 c 0,-0.189089 -0.04092,-0.320322 -0.122767,-0.3937 -0.08185,-0.07338 -0.197556,-0.110066 -0.347133,-0.110066 -0.118533,0 -0.231422,0.01834 -0.338667,0.05503 -0.107245,0.03387 -0.207434,0.07338 -0.300567,0.118533 l -0.1143,-0.2794 c 0.09878,-0.05362 0.2159,-0.09877 0.351367,-0.135466 0.135467,-0.03951 0.276578,-0.05927 0.423333,-0.05927 z m 0.110067,1.210733 c -0.282222,0.01129 -0.478366,0.05644 -0.588433,0.135467 -0.107245,0.07902 -0.160867,0.1905 -0.160867,0.334433 0,0.127 0.0381,0.220133 0.1143,0.2794 0.07902,0.05927 0.179211,0.0889 0.300567,0.0889 0.191911,0 0.351366,-0.05221 0.478366,-0.156633 0.127,-0.107245 0.1905,-0.270934 0.1905,-0.491067 v -0.2032 z m 0.79949,1.6256 H 42.36625 v -0.2159 h 1.864038 z"
         id="path25"
         style="font-size:16px;font-family:'Noto Sans';-inkscape-font-specification:'Noto Sans';white-space:pre;fill:#535353;stroke:#000000;stroke-width:0.07;stroke-linecap:round;stroke-linejoin:bevel;stroke-miterlimit:1"
         sodipodi:nodetypes="ssscccccscscccsssccccssccscscsccccccc" /><path
         d="m 43.349218,15.746364 c 0.276578,0 0.481189,0.06068 0.613834,0.182033 0.132644,0.121356 0.198966,0.314678 0.198966,0.579967 v 1.545167 h -0.270933 l -0.07197,-0.321734 h -0.01693 c -0.09878,0.124178 -0.2032,0.2159 -0.313267,0.275167 -0.107244,0.05927 -0.256822,0.0889 -0.448733,0.0889 -0.206022,0 -0.376766,-0.05362 -0.512233,-0.160867 -0.135467,-0.110067 -0.2032,-0.280811 -0.2032,-0.512233 0,-0.225778 0.0889,-0.399345 0.2667,-0.5207 0.1778,-0.124178 0.451555,-0.191911 0.821266,-0.2032 l 0.385234,-0.0127 v -0.135467 c 0,-0.189089 -0.04092,-0.320322 -0.122767,-0.3937 -0.08185,-0.07338 -0.197556,-0.110066 -0.347133,-0.110066 -0.118533,0 -0.231422,0.01834 -0.338667,0.05503 -0.107245,0.03387 -0.207434,0.07338 -0.300567,0.118533 l -0.1143,-0.2794 c 0.09878,-0.05362 0.2159,-0.09877 0.351367,-0.135466 0.135467,-0.03951 0.276578,-0.05927 0.423333,-0.05927 z m 0.110067,1.210733 c -0.282222,0.01129 -0.478366,0.05644 -0.588433,0.135467 -0.107245,0.07902 -0.160867,0.1905 -0.160867,0.334433 0,0.127 0.0381,0.220133 0.1143,0.2794 0.07902,0.05927 0.179211,0.0889 0.300567,0.0889 0.191911,0 0.351366,-0.05221 0.478366,-0.156633 0.127,-0.107245 0.1905,-0.270934 0.1905,-0.491067 v -0.2032 z m 0.79949,1.6256 h -1.864038 v -0.2159 h 1.864038 z"
         id="path25-8"
         style="font-size:16px;font-family:'Noto Sans';-inkscape-font-specification:'Noto Sans';white-space:pre;fill:none;stroke:#c6c6c6;stroke-width:0.05;stroke-linecap:round;stroke-linejoin:bevel;stroke-miterlimit:1;stroke-dasharray:none;stroke-opacity:0.629921"
         sodipodi:nodetypes="ssscccccscscccsssccccssccscscsccccccc" /></g><ellipse
       style="mix-blend-mode:color-dodge;fill:url(#radialGradient20-1-31-9-6-7-5-9);stroke:none;stroke-width:0.146005;stroke-linecap:round;stroke-linejoin:bevel;stroke-miterlimit:1;stroke-dasharray:none;stroke-opacity:1"
       id="path18-6-5-6-9-9-0-2"
       ry="0.5971446"
       rx="2.8078885"
       cy="24.632923"
       cx="12.942881"
       transform="matrix(0.99469492,-0.10286895,0.72374527,0.69006724,0,0)" /><ellipse
       style="mix-blend-mode:color-dodge;fill:url(#radialGradient20-1-31-9-6-7-5-9-1);stroke:none;stroke-width:0.146005;stroke-linecap:round;stroke-linejoin:bevel;stroke-miterlimit:1;stroke-dasharray:none;stroke-opacity:1"
       id="path18-6-5-6-9-9-0-2-5"
       ry="0.5971446"
       rx="2.8078885"
       cy="27.685463"
       cx="11.2436"
       transform="matrix(0.99469492,-0.10286895,0.72374527,0.69006724,0,0)" /></g></svg>
