<?xml version="1.0" encoding="UTF-8" standalone="no"?>
<!-- Created with Inkscape (http://www.inkscape.org/) -->

<svg
   width="15.295mm"
   height="3.0179999mm"
   viewBox="0 0 15.295 3.0179998"
   version="1.1"
   id="svg1"
   xml:space="preserve"
   inkscape:version="1.4 (86a8ad7, 2024-10-11)"
   sodipodi:docname="format-text.svg"
   xmlns:inkscape="http://www.inkscape.org/namespaces/inkscape"
   xmlns:sodipodi="http://sodipodi.sourceforge.net/DTD/sodipodi-0.dtd"
   xmlns:xlink="http://www.w3.org/1999/xlink"
   xmlns="http://www.w3.org/2000/svg"
   xmlns:svg="http://www.w3.org/2000/svg"><sodipodi:namedview
     id="namedview1"
     pagecolor="#ffffff"
     bordercolor="#000000"
     borderopacity="0.25"
     inkscape:showpageshadow="2"
     inkscape:pageopacity="0.0"
     inkscape:pagecheckerboard="0"
     inkscape:deskcolor="#d1d1d1"
     inkscape:document-units="mm"
     inkscape:zoom="16"
     inkscape:cx="9.4375"
     inkscape:cy="-3.625"
     inkscape:window-width="1147"
     inkscape:window-height="1000"
     inkscape:window-x="436"
     inkscape:window-y="0"
     inkscape:window-maximized="0"
     inkscape:current-layer="layer1"
     showguides="true" /><defs
     id="defs1"><linearGradient
       id="linearGradient22"
       inkscape:collect="always"><stop
         style="stop-color:#ffffff;stop-opacity:0.80898875;"
         offset="0"
         id="stop21" /><stop
         style="stop-color:#ffffff;stop-opacity:0;"
         offset="1"
         id="stop22" /></linearGradient><linearGradient
       id="linearGradient19"
       inkscape:collect="always"><stop
         style="stop-color:#ffffff;stop-opacity:0.79213482;"
         offset="0"
         id="stop19" /><stop
         style="stop-color:#ffffff;stop-opacity:0;"
         offset="1"
         id="stop20" /></linearGradient><linearGradient
       id="linearGradient7"
       inkscape:collect="always"><stop
         style="stop-color:#424242;stop-opacity:1;"
         offset="0.08695652"
         id="stop7" /><stop
         style="stop-color:#424242;stop-opacity:0;"
         offset="1"
         id="stop8" /></linearGradient><linearGradient
       id="linearGradient5"
       inkscape:collect="always"><stop
         style="stop-color:#414141;stop-opacity:1;"
         offset="0"
         id="stop5" /><stop
         style="stop-color:#414141;stop-opacity:0;"
         offset="1"
         id="stop6" /></linearGradient><rect
       x="114.75573"
       y="53.552673"
       width="168.3084"
       height="36.860931"
       id="rect1" /><linearGradient
       inkscape:collect="always"
       xlink:href="#linearGradient5"
       id="linearGradient6"
       x1="115.0877"
       y1="64.80674"
       x2="172.82407"
       y2="64.80674"
       gradientUnits="userSpaceOnUse" /><linearGradient
       inkscape:collect="always"
       xlink:href="#linearGradient7"
       id="linearGradient8"
       x1="115.0877"
       y1="64.80674"
       x2="172.82407"
       y2="64.80674"
       gradientUnits="userSpaceOnUse" /><radialGradient
       inkscape:collect="always"
       xlink:href="#linearGradient19"
       id="radialGradient20-4-1-8"
       cx="23.990078"
       cy="26.766087"
       fx="23.990078"
       fy="26.766087"
       r="0.90569818"
       gradientTransform="matrix(3.1002472,-2.0192723e-8,0,0.65931962,-62.624,7.9423153)"
       gradientUnits="userSpaceOnUse" /><radialGradient
       inkscape:collect="always"
       xlink:href="#linearGradient22"
       id="radialGradient20-1-31"
       cx="23.990078"
       cy="26.766087"
       fx="23.990078"
       fy="26.766087"
       r="0.90569818"
       gradientTransform="matrix(3.1002472,-2.0192723e-8,0,0.65931962,-63.533296,9.4226366)"
       gradientUnits="userSpaceOnUse" /><radialGradient
       inkscape:collect="always"
       xlink:href="#linearGradient22"
       id="radialGradient20-1-31-9"
       cx="23.990078"
       cy="26.766087"
       fx="23.990078"
       fy="26.766087"
       r="0.90569818"
       gradientTransform="matrix(3.1002472,-2.0192723e-8,0,0.65931962,-59.475515,8.2361706)"
       gradientUnits="userSpaceOnUse" /><radialGradient
       inkscape:collect="always"
       xlink:href="#linearGradient22"
       id="radialGradient20-1-31-9-6"
       cx="23.990078"
       cy="26.766087"
       fx="23.990078"
       fy="26.766087"
       r="0.90569818"
       gradientTransform="matrix(3.1002472,-2.0192723e-8,0,0.65931962,-60.363999,9.6878946)"
       gradientUnits="userSpaceOnUse" /><radialGradient
       inkscape:collect="always"
       xlink:href="#linearGradient22"
       id="radialGradient20-1-31-9-6-7"
       cx="23.990078"
       cy="26.766087"
       fx="23.990078"
       fy="26.766087"
       r="0.90569818"
       gradientTransform="matrix(3.1002472,-2.0192723e-8,0,0.65931962,-56.204856,8.8147677)"
       gradientUnits="userSpaceOnUse" /><radialGradient
       inkscape:collect="always"
       xlink:href="#linearGradient22"
       id="radialGradient20-1-31-9-6-7-5"
       cx="23.990078"
       cy="26.766087"
       fx="23.990078"
       fy="26.766087"
       r="0.90569818"
       gradientTransform="matrix(3.1002472,-2.0192723e-8,0,0.65931962,-57.261886,10.28589)"
       gradientUnits="userSpaceOnUse" /><radialGradient
       inkscape:collect="always"
       xlink:href="#linearGradient22"
       id="radialGradient20-1-31-9-6-7-5-9"
       cx="23.990078"
       cy="26.766087"
       fx="23.990078"
       fy="26.766087"
       r="0.90569818"
       gradientTransform="matrix(3.1002472,-2.0192723e-8,0,0.65931962,-50.509918,9.5965224)"
       gradientUnits="userSpaceOnUse" /><radialGradient
       inkscape:collect="always"
       xlink:href="#linearGradient22"
       id="radialGradient20-1-31-9-6-7-5-9-1"
       cx="23.990078"
       cy="26.766087"
       fx="23.990078"
       fy="26.766087"
       r="0.90569818"
       gradientTransform="matrix(3.1002472,-2.0192723e-8,0,0.65931962,-51.305927,10.987564)"
       gradientUnits="userSpaceOnUse" /></defs><g
     inkscape:label="Layer 1"
     inkscape:groupmode="layer"
     id="layer1"
     transform="translate(-29.202043,-15.589901)"><g
       id="g31"
       transform="translate(-1.8190104)"><path
         style="font-weight:bold;font-size:16px;font-family:'Noto Sans';-inkscape-font-specification:'Noto Sans Bold';white-space:pre;fill:#535353;stroke:#000000;stroke-width:0.07;stroke-linecap:round;stroke-linejoin:bevel;stroke-miterlimit:1"
         d="m 32.264935,15.624901 q 0.465667,0 0.7112,0.2032 0.249767,0.198966 0.249767,0.613833 v 1.540933 h -0.440267 l -0.122767,-0.313266 h -0.01693 q -0.148167,0.186266 -0.313267,0.270933 -0.1651,0.08467 -0.452966,0.08467 -0.309034,0 -0.512234,-0.1778 -0.2032,-0.182034 -0.2032,-0.554567 0,-0.3683 0.258234,-0.541867 0.258233,-0.1778 0.7747,-0.194733 l 0.402166,-0.0127 v -0.1016 q 0,-0.182033 -0.09737,-0.2667 -0.09313,-0.08467 -0.262467,-0.08467 -0.169333,0 -0.3302,0.0508 -0.160867,0.04657 -0.321733,0.118534 l -0.207434,-0.427567 q 0.186267,-0.09737 0.410634,-0.1524 0.2286,-0.05503 0.474133,-0.05503 z m 0.0889,1.2954 q -0.3048,0.0085 -0.423333,0.110066 -0.118534,0.1016 -0.118534,0.2667 0,0.143934 0.08467,0.207434 0.08467,0.05927 0.220133,0.05927 0.2032,0 0.3429,-0.118533 0.1397,-0.122767 0.1397,-0.3429 v -0.1905 z"
         id="path22" /><path
         style="font-weight:bold;font-size:16px;font-family:'Noto Sans';-inkscape-font-specification:'Noto Sans Bold';white-space:pre;fill:none;stroke:#c2c2c2;stroke-width:0.07;stroke-linecap:round;stroke-linejoin:bevel;stroke-miterlimit:1;stroke-opacity:0.519685"
         d="m 32.264214,15.670142 q 0.465667,0 0.7112,0.2032 0.249767,0.198966 0.249767,0.613833 v 1.540933 h -0.440267 l -0.122767,-0.313266 h -0.01693 q -0.148167,0.186266 -0.313267,0.270933 -0.1651,0.08467 -0.452966,0.08467 -0.309034,0 -0.512234,-0.1778 -0.2032,-0.182034 -0.2032,-0.554567 0,-0.3683 0.258234,-0.541867 0.258233,-0.1778 0.7747,-0.194733 l 0.402166,-0.0127 v -0.1016 q 0,-0.182033 -0.09737,-0.2667 -0.09313,-0.08467 -0.262467,-0.08467 -0.169333,0 -0.3302,0.0508 -0.160867,0.04657 -0.321733,0.118534 l -0.207434,-0.427567 q 0.186267,-0.09737 0.410634,-0.1524 0.2286,-0.05503 0.474133,-0.05503 z m 0.0889,1.2954 q -0.3048,0.0085 -0.423333,0.110066 -0.118534,0.1016 -0.118534,0.2667 0,0.143934 0.08467,0.207434 0.08467,0.05927 0.220133,0.05927 0.2032,0 0.3429,-0.118533 0.1397,-0.122767 0.1397,-0.3429 v -0.1905 z"
         id="path22-1" /></g><g
       id="g32"
       transform="translate(-1.8190104)"><path
         style="font-style:italic;font-size:16px;font-family:'Noto Sans';-inkscape-font-specification:'Noto Sans Italic';white-space:pre;fill:#535353;stroke:#000000;stroke-width:0.07;stroke-linecap:round;stroke-linejoin:bevel;stroke-miterlimit:1"
         d="m 34.837121,18.063299 q -0.270933,0 -0.4445,-0.194733 -0.169333,-0.198967 -0.169333,-0.579967 0,-0.3175 0.08043,-0.601133 0.08467,-0.287867 0.232833,-0.503767 0.148167,-0.220133 0.351367,-0.347133 0.2032,-0.127 0.448733,-0.127 0.224367,0 0.364067,0.118533 0.1397,0.118533 0.207433,0.275167 h 0.02117 l 0.135467,-0.351367 h 0.283633 l -0.4826,2.269067 h -0.296333 l 0.05503,-0.4191 h -0.01693 q -0.143934,0.186266 -0.338667,0.325966 -0.194733,0.135467 -0.4318,0.135467 z m 0.122767,-0.309033 q 0.156633,0 0.3048,-0.1143 0.1524,-0.1143 0.275166,-0.309034 0.122767,-0.194733 0.186267,-0.436033 0.03387,-0.122767 0.04233,-0.224367 0.0127,-0.105833 0.0127,-0.194733 0,-0.198967 -0.110066,-0.325967 -0.110067,-0.127 -0.296334,-0.127 -0.1651,0 -0.3048,0.105834 -0.1397,0.1016 -0.245533,0.283633 -0.105833,0.1778 -0.1651,0.4064 -0.05503,0.2286 -0.05503,0.478367 0,0.2286 0.09313,0.3429 0.09313,0.1143 0.262467,0.1143 z"
         id="path23" /><path
         style="font-style:italic;font-size:16px;font-family:'Noto Sans';-inkscape-font-specification:'Noto Sans Italic';white-space:pre;fill:none;stroke:#a4a4a4;stroke-width:0.05;stroke-linecap:round;stroke-linejoin:bevel;stroke-miterlimit:1;stroke-dasharray:none;stroke-opacity:0.716535"
         d="m 34.858541,18.113237 q -0.270933,0 -0.4445,-0.194733 -0.169333,-0.198967 -0.169333,-0.579967 0,-0.3175 0.08043,-0.601133 0.08467,-0.287867 0.232833,-0.503767 0.148167,-0.220133 0.351367,-0.347133 0.2032,-0.127 0.448733,-0.127 0.224367,0 0.364067,0.118533 0.1397,0.118533 0.207433,0.275167 h 0.02117 l 0.135467,-0.351367 h 0.283633 l -0.4826,2.269067 h -0.296333 l 0.05503,-0.4191 h -0.01693 q -0.143934,0.186266 -0.338667,0.325966 -0.194733,0.135467 -0.4318,0.135467 z m 0.122767,-0.309033 q 0.156633,0 0.3048,-0.1143 0.1524,-0.1143 0.275166,-0.309034 0.122767,-0.194733 0.186267,-0.436033 0.03387,-0.122767 0.04233,-0.224367 0.0127,-0.105833 0.0127,-0.194733 0,-0.198967 -0.110066,-0.325967 -0.110067,-0.127 -0.296334,-0.127 -0.1651,0 -0.3048,0.105834 -0.1397,0.1016 -0.245533,0.283633 -0.105833,0.1778 -0.1651,0.4064 -0.05503,0.2286 -0.05503,0.478367 0,0.2286 0.09313,0.3429 0.09313,0.1143 0.262467,0.1143 z"
         id="path23-6" /></g><path
       d="m 36.925483,15.713799 q 0.414866,0 0.613833,0.182033 0.198967,0.182034 0.198967,0.579967 v 1.545167 h -0.270934 l -0.07197,-0.321734 h -0.01693 q -0.148166,0.186267 -0.313266,0.275167 -0.160867,0.0889 -0.448734,0.0889 -0.309033,0 -0.512233,-0.160867 -0.2032,-0.1651 -0.2032,-0.512233 0,-0.338667 0.2667,-0.5207 0.2667,-0.186267 0.821267,-0.2032 l 0.385233,-0.0127 v -0.135467 q 0,-0.283633 -0.122767,-0.3937 -0.122766,-0.110066 -0.347133,-0.110066 -0.1778,0 -0.338667,0.05503 -0.160866,0.0508 -0.300566,0.118533 l -0.1143,-0.2794 q 0.148166,-0.08043 0.351366,-0.135466 0.2032,-0.05927 0.423334,-0.05927 z m 0.110066,1.210733 q -0.423333,0.01693 -0.588433,0.135467 -0.160867,0.118533 -0.160867,0.334433 0,0.1905 0.1143,0.2794 0.118534,0.0889 0.300567,0.0889 0.287867,0 0.478367,-0.156633 0.1905,-0.160867 0.1905,-0.491067 v -0.2032 z m -1.739897,0.118532 v -0.300566 h 3.048 v 0.300566 z"
       id="path24"
       style="font-size:16px;font-family:'Noto Sans';-inkscape-font-specification:'Noto Sans';white-space:pre;fill:#535353;stroke:#000000;stroke-width:0.07;stroke-linecap:round;stroke-linejoin:bevel;stroke-miterlimit:1" /><g
       id="g33"
       transform="translate(-1.8190104)"><path
         d="m 38.781506,15.741912 c 0.276578,0 0.481189,0.06068 0.613834,0.182033 0.132644,0.121356 0.198966,0.314678 0.198966,0.579967 v 1.545167 h -0.270933 l -0.07197,-0.321734 h -0.01693 c -0.09878,0.124178 -0.2032,0.2159 -0.313267,0.275167 -0.107244,0.05927 -0.256822,0.0889 -0.448733,0.0889 -0.206022,0 -0.376766,-0.05362 -0.512233,-0.160867 -0.135467,-0.110067 -0.2032,-0.280811 -0.2032,-0.512233 0,-0.225778 0.0889,-0.399345 0.2667,-0.5207 0.1778,-0.124178 0.451555,-0.191911 0.821266,-0.2032 l 0.385234,-0.0127 v -0.135467 c 0,-0.189089 -0.04092,-0.320322 -0.122767,-0.3937 -0.08185,-0.07338 -0.197556,-0.110066 -0.347133,-0.110066 -0.118533,0 -0.231422,0.01834 -0.338667,0.05503 -0.107245,0.03387 -0.207434,0.07338 -0.300567,0.118533 l -0.1143,-0.2794 c 0.09878,-0.05362 0.2159,-0.09877 0.351367,-0.135466 0.135467,-0.03951 0.276578,-0.05927 0.423333,-0.05927 z m 0.110067,1.210733 c -0.282222,0.01129 -0.478366,0.05644 -0.588433,0.135467 -0.107245,0.07902 -0.160867,0.1905 -0.160867,0.334433 0,0.127 0.0381,0.220133 0.1143,0.2794 0.07902,0.05927 0.179211,0.0889 0.300567,0.0889 0.191911,0 0.351366,-0.05221 0.478366,-0.156633 0.127,-0.107245 0.1905,-0.270934 0.1905,-0.491067 v -0.2032 z"
         id="path25-8-1"
         style="font-size:16px;font-family:'Noto Sans';-inkscape-font-specification:'Noto Sans';white-space:pre;fill:none;stroke:#c6c6c6;stroke-width:0.05;stroke-linecap:round;stroke-linejoin:bevel;stroke-miterlimit:1;stroke-dasharray:none;stroke-opacity:0.629921"
         sodipodi:nodetypes="ssscccccscscccsssccccssccscscscc" /></g><ellipse
       style="mix-blend-mode:color-dodge;fill:url(#radialGradient20-1-31);stroke:none;stroke-width:0.146005;stroke-linecap:round;stroke-linejoin:bevel;stroke-miterlimit:1;stroke-dasharray:none;stroke-opacity:1"
       id="path18-6-5"
       ry="0.5971446"
       rx="2.8078885"
       cy="27.070042"
       cx="10.841872"
       transform="matrix(0.99469492,-0.10286895,0.72374527,0.69006724,0,0)" /><ellipse
       style="mix-blend-mode:color-dodge;fill:url(#radialGradient20-1-31-9);stroke:none;stroke-width:0.146005;stroke-linecap:round;stroke-linejoin:bevel;stroke-miterlimit:1;stroke-dasharray:none;stroke-opacity:1"
       id="path18-6-5-6"
       ry="0.5971446"
       rx="2.8078885"
       cy="25.883577"
       cx="14.899653"
       transform="matrix(0.99469492,-0.10286895,0.72374527,0.69006724,0,0)" /><ellipse
       style="mix-blend-mode:color-dodge;fill:url(#radialGradient20-1-31-9-6);stroke:none;stroke-width:0.146005;stroke-linecap:round;stroke-linejoin:bevel;stroke-miterlimit:1;stroke-dasharray:none;stroke-opacity:1"
       id="path18-6-5-6-9"
       ry="0.5971446"
       rx="2.8078885"
       cy="27.3353"
       cx="14.011169"
       transform="matrix(0.99469492,-0.10286895,0.72374527,0.69006724,0,0)" /><ellipse
       style="mix-blend-mode:color-dodge;fill:url(#radialGradient20-1-31-9-6-7);stroke:none;stroke-width:0.146005;stroke-linecap:round;stroke-linejoin:bevel;stroke-miterlimit:1;stroke-dasharray:none;stroke-opacity:1"
       id="path18-6-5-6-9-9"
       ry="0.5971446"
       rx="2.8078885"
       cy="26.462173"
       cx="18.170313"
       transform="matrix(0.99469492,-0.10286895,0.72374527,0.69006724,0,0)" /><ellipse
       style="mix-blend-mode:color-dodge;fill:url(#radialGradient20-1-31-9-6-7-5);stroke:none;stroke-width:0.146005;stroke-linecap:round;stroke-linejoin:bevel;stroke-miterlimit:1;stroke-dasharray:none;stroke-opacity:1"
       id="path18-6-5-6-9-9-0"
       ry="0.5971446"
       rx="2.8078885"
       cy="27.933296"
       cx="17.113283"
       transform="matrix(0.99469492,-0.10286895,0.72374527,0.69006724,0,0)" /><g
       id="g35"
       transform="translate(-1.8190104)"><g
         id="g34"><path
           d="m 43.320731,15.713799 c 0.276578,0 0.481189,0.06068 0.613834,0.182033 0.132644,0.121356 0.198966,0.314678 0.198966,0.579967 v 1.545167 h -0.270933 l -0.07197,-0.321734 h -0.01693 c -0.09878,0.124178 -0.2032,0.2159 -0.313267,0.275167 -0.107244,0.05927 -0.256822,0.0889 -0.448733,0.0889 -0.206022,0 -0.376766,-0.05362 -0.512233,-0.160867 -0.135467,-0.110067 -0.2032,-0.280811 -0.2032,-0.512233 0,-0.225778 0.0889,-0.399345 0.2667,-0.5207 0.1778,-0.124178 0.451555,-0.191911 0.821266,-0.2032 l 0.385234,-0.0127 v -0.135467 c 0,-0.189089 -0.04092,-0.320322 -0.122767,-0.3937 -0.08185,-0.07338 -0.197556,-0.110066 -0.347133,-0.110066 -0.118533,0 -0.231422,0.01834 -0.338667,0.05503 -0.107245,0.03387 -0.207434,0.07338 -0.300567,0.118533 l -0.1143,-0.2794 c 0.09878,-0.05362 0.2159,-0.09877 0.351367,-0.135466 0.135467,-0.03951 0.276578,-0.05927 0.423333,-0.05927 z m 0.110067,1.210733 c -0.282222,0.01129 -0.478366,0.05644 -0.588433,0.135467 -0.107245,0.07902 -0.160867,0.1905 -0.160867,0.334433 0,0.127 0.0381,0.220133 0.1143,0.2794 0.07902,0.05927 0.179211,0.0889 0.300567,0.0889 0.191911,0 0.351366,-0.05221 0.478366,-0.156633 0.127,-0.107245 0.1905,-0.270934 0.1905,-0.491067 v -0.2032 z m 0.79949,1.6256 H 42.36625 v -0.2159 h 1.864038 z"
           id="path25"
           style="font-size:16px;font-family:'Noto Sans';-inkscape-font-specification:'Noto Sans';white-space:pre;fill:#535353;stroke:#000000;stroke-width:0.07;stroke-linecap:round;stroke-linejoin:bevel;stroke-miterlimit:1"
           sodipodi:nodetypes="ssscccccscscccsssccccssccscscsccccccc" /><path
           d="m 43.349218,15.746364 c 0.276578,0 0.481189,0.06068 0.613834,0.182033 0.132644,0.121356 0.198966,0.314678 0.198966,0.579967 v 1.545167 h -0.270933 l -0.07197,-0.321734 h -0.01693 c -0.09878,0.124178 -0.2032,0.2159 -0.313267,0.275167 -0.107244,0.05927 -0.256822,0.0889 -0.448733,0.0889 -0.206022,0 -0.376766,-0.05362 -0.512233,-0.160867 -0.135467,-0.110067 -0.2032,-0.280811 -0.2032,-0.512233 0,-0.225778 0.0889,-0.399345 0.2667,-0.5207 0.1778,-0.124178 0.451555,-0.191911 0.821266,-0.2032 l 0.385234,-0.0127 v -0.135467 c 0,-0.189089 -0.04092,-0.320322 -0.122767,-0.3937 -0.08185,-0.07338 -0.197556,-0.110066 -0.347133,-0.110066 -0.118533,0 -0.231422,0.01834 -0.338667,0.05503 -0.107245,0.03387 -0.207434,0.07338 -0.300567,0.118533 l -0.1143,-0.2794 c 0.09878,-0.05362 0.2159,-0.09877 0.351367,-0.135466 0.135467,-0.03951 0.276578,-0.05927 0.423333,-0.05927 z m 0.110067,1.210733 c -0.282222,0.01129 -0.478366,0.05644 -0.588433,0.135467 -0.107245,0.07902 -0.160867,0.1905 -0.160867,0.334433 0,0.127 0.0381,0.220133 0.1143,0.2794 0.07902,0.05927 0.179211,0.0889 0.300567,0.0889 0.191911,0 0.351366,-0.05221 0.478366,-0.156633 0.127,-0.107245 0.1905,-0.270934 0.1905,-0.491067 v -0.2032 z m 0.79949,1.6256 h -1.864038 v -0.2159 h 1.864038 z"
           id="path25-8"
           style="font-size:16px;font-family:'Noto Sans';-inkscape-font-specification:'Noto Sans';white-space:pre;fill:none;stroke:#c6c6c6;stroke-width:0.05;stroke-linecap:round;stroke-linejoin:bevel;stroke-miterlimit:1;stroke-dasharray:none;stroke-opacity:0.629921"
           sodipodi:nodetypes="ssscccccscscccsssccccssccscscsccccccc" /></g><ellipse
         style="mix-blend-mode:color-dodge;fill:url(#radialGradient20-1-31-9-6-7-5-9);stroke:none;stroke-width:0.146005;stroke-linecap:round;stroke-linejoin:bevel;stroke-miterlimit:1;stroke-dasharray:none;stroke-opacity:1"
         id="path18-6-5-6-9-9-0-2"
         ry="0.5971446"
         rx="2.8078885"
         cy="27.243929"
         cx="23.865252"
         transform="matrix(0.99469492,-0.10286895,0.72374527,0.69006724,0,0)" /><ellipse
         style="mix-blend-mode:color-dodge;fill:url(#radialGradient20-1-31-9-6-7-5-9-1);stroke:none;stroke-width:0.146005;stroke-linecap:round;stroke-linejoin:bevel;stroke-miterlimit:1;stroke-dasharray:none;stroke-opacity:1"
         id="path18-6-5-6-9-9-0-2-5"
         ry="0.5971446"
         rx="2.8078885"
         cy="28.634972"
         cx="23.069242"
         transform="matrix(0.99469492,-0.10286895,0.72374527,0.69006724,0,0)" /></g><ellipse
       style="mix-blend-mode:color-dodge;fill:url(#radialGradient20-4-1-8);stroke:none;stroke-width:0.146005;stroke-linecap:round;stroke-linejoin:bevel;stroke-miterlimit:1;stroke-dasharray:none;stroke-opacity:1"
       id="path18-4-1-7"
       ry="0.5971446"
       rx="2.8078885"
       cy="25.58972"
       cx="11.751166"
       transform="matrix(0.99469492,-0.10286895,0.72374527,0.69006724,0,0)" /><rect
       style="fill:#535353;fill-opacity:1;stroke:#000000;stroke-width:0.0533326;stroke-linecap:round;stroke-linejoin:bevel;stroke-miterlimit:1;stroke-dasharray:none;stroke-opacity:1"
       id="rect30"
       width="3.0552819"
       height="0.31649292"
       x="35.295292"
       y="16.734449" /><rect
       style="fill:none;fill-opacity:1;stroke:#bdbdbd;stroke-width:0.0595929;stroke-linecap:round;stroke-linejoin:bevel;stroke-miterlimit:1;stroke-dasharray:none;stroke-opacity:0.503937"
       id="rect29"
       width="2.9834311"
       height="0.24291587"
       x="35.334843"
       y="16.776634" /></g></svg>
